<svg version="1.1" xmlns="http://www.w3.org/2000/svg" xmlns:xlink="http://www.w3.org/1999/xlink" width="120.82527" height="387.43222" viewBox="0,0,120.82527,387.43222"><g transform="translate(-1222.04025,-310.80821)"><g data-paper-data="{&quot;isPaintingLayer&quot;:true}" fill-rule="nonzero" stroke="none" stroke-width="1" stroke-linecap="butt" stroke-linejoin="miter" stroke-miterlimit="10" stroke-dasharray="" stroke-dashoffset="0" style="mix-blend-mode: normal"><g><path d="M1308.03688,359.78271c-0.75906,1.35684 -1.27803,1.33179 -1.95326,0.95069c-2.20707,-0.97729 -4.24949,-1.77251 -6.25839,-3.26285c-5.03065,-3.55216 -10.87904,-4.53101 -16.76093,-4.81471c-8.83125,-0.25155 -16.594,2.50906 -23.60075,7.5704c-0.18141,0.16568 -0.36278,0.33105 -0.71715,0.48804c-0.89014,0.47969 -1.77189,0.78535 -2.60335,0.04853c-0.66685,-0.55444 -0.62493,-1.42359 0.12571,-2.60639c2.06224,-3.21003 5.26,-4.79742 8.4578,-6.38513c2.8434,-1.43038 5.82626,-2.15733 9.14675,-2.69386c4.02084,-0.67686 7.8603,-1.18838 11.83087,-0.82276c5.86512,0.63145 11.71351,1.61026 16.54603,5.67516c1.97536,2.18545 3.79454,4.01481 5.78666,5.85289z" fill="#040404"/><path d="M1301.52611,332.99362c-0.93205,1.34849 -1.61563,1.14107 -2.30763,1.10767c-2.56981,-0.64624 -5.13125,-1.46651 -7.70944,-1.93941c-6.54035,-1.01221 -12.99158,-0.27812 -19.1722,2.03616c-1.94488,0.77735 -3.88976,1.55435 -5.83464,2.33135c-0.88175,0.30601 -1.57375,0.27261 -2.38844,-0.81192c0.45496,-2.2423 2.252,-3.54908 4.20526,-4.49976c3.18941,-1.41403 6.53502,-2.47165 9.86389,-3.18224c3.50186,-0.7019 7.13481,-0.52666 10.78451,-0.69879c1.73836,-0.09024 3.4348,0.68798 5.13963,1.29282c2.89903,1.01065 4.89119,2.84873 7.41909,4.36412z" fill="#080808"/><path d="M1289.78582,313.96438c-0.55254,0.67007 -1.2445,0.63668 -1.76351,0.61167c-1.91135,0.08189 -3.8227,0.16412 -5.73405,0.24605c-1.91135,0.08189 -3.83108,0.33784 -5.44674,1.47891c-0.53577,0.3227 -1.06313,0.47134 -1.59052,0.62002c-0.70038,0.14033 -1.38399,-0.06675 -1.87782,-0.61319c-0.49386,-0.54609 -0.28734,-1.23286 -0.08081,-1.91963c0.3879,-0.8521 0.93205,-1.34849 1.64081,-1.66284c4.60691,-2.04204 9.1551,-2.86754 13.89006,-0.37491c0.67523,0.38076 1.16909,0.9272 0.96253,1.61397z" fill="#0f0f0f"/></g><g><path d="M1249.03864,493.66604c-1.87782,-0.61319 -2.32976,-2.02843 -2.59191,-3.78272c-0.21189,-2.79709 0.09522,-5.56916 0.05636,-8.35793c-0.49382,-0.54644 -0.98768,-1.09254 -1.48992,-1.46529c-10.34026,-8.5109 -15.68568,-19.91626 -19.24249,-32.45437c-0.73928,-2.6481 -1.65152,-5.30489 -1.51739,-8.08532c0.02515,-0.5214 -0.11431,-1.22486 -0.44356,-1.58892c-1.81076,-2.00342 -1.70178,-4.26241 -1.75744,-6.70344c-0.0724,-2.09366 0.20119,-4.17062 0.30178,-6.25593c0.05868,-1.21651 0.46334,-2.41601 1.54323,-3.23507c1.07989,-0.81871 1.66593,-2.18389 2.24361,-3.37505c2.60102,-7.19026 6.38787,-13.80038 11.18758,-19.83933c2.76262,-3.35035 6.01068,-5.98054 9.43173,-8.60207c10.08181,-7.70023 21.55295,-11.84951 33.93636,-13.34234c5.57782,-0.60176 11.28672,-0.32638 16.96212,0.64409c4.29979,0.72969 8.19492,2.65957 11.90864,4.7544c11.81643,6.66637 20.17828,16.64936 25.8278,28.94021c1.10203,2.3174 1.66825,4.95753 2.23454,7.59728c0.43514,1.76295 1.0517,3.36022 2.73141,4.48619c1.51504,0.94424 2.13159,2.54151 2.39378,4.29581c0.21189,2.79709 0.07777,5.57751 -0.05636,8.35793c-0.04191,0.8688 -0.42143,1.54722 -0.80094,2.22563c-1.67431,2.35758 -2.31906,4.93927 -2.62617,7.71135c-0.45801,5.89987 -2.62919,11.36888 -4.62741,16.84628c-0.79256,2.05157 -1.75814,4.09517 -3.06132,5.94836c-4.10771,6.07234 -8.37165,11.78861 -14.14224,16.38731c-0.12571,2.60639 -0.43282,5.37844 -0.56695,8.15886c-0.0503,1.04283 -0.10898,2.25899 -1.18049,2.90402c-0.89852,0.65337 -0.77583,1.70455 -0.82612,2.74703c-0.5083,6.94269 -0.84358,13.89336 -1.35185,20.83605c-0.91903,15.45761 -1.84643,31.08891 -3.11144,46.52948c-1.24824,15.0932 -1.97751,30.21142 -2.87974,45.32132c-0.11736,2.43302 -0.57232,4.67535 -0.68968,7.10803c-0.57,11.81674 -1.13999,23.63317 -1.88298,35.44156c-0.10056,2.08496 0.14483,4.18697 -0.98536,6.04851c-0.37951,0.67842 -0.24844,1.55556 -0.29035,2.42433c-0.41914,8.68895 -1.01962,17.54292 -1.43872,26.23153c-0.01677,0.34771 -0.04191,0.8688 -0.05868,1.21651c0.03887,2.78877 -1.23917,4.12056 -3.71978,5.21989c-8.32367,3.60471 -16.85082,4.2383 -25.58148,1.90144c-2.2238,-0.62989 -4.43087,-1.60718 -6.44814,-2.92383c-1.51507,-0.9439 -2.14001,-2.36748 -2.22917,-4.11374c-0.26752,-5.23814 -0.70807,-10.4846 -0.96717,-15.89678c-0.16159,-3.83957 0.03121,-7.8365 -0.64939,-11.70115c-1.50063,-8.43303 -0.91691,-16.93926 -1.89853,-25.34725c-0.46566,-4.72541 -1.28572,-9.29348 -1.57839,-14.01019c-0.27591,-5.06446 -0.90617,-9.9719 -1.36349,-14.87099c-0.78348,-8.92072 -1.2126,-17.99878 -2.1691,-26.92785c-1.51438,-11.74285 -2.33672,-23.45266 -3.1591,-35.16216c-0.3262,-4.02163 -0.6524,-8.04358 -0.97861,-12.06556c-0.39025,-6.28897 -0.77208,-12.75194 -1.1623,-19.04126c-0.17836,-3.4922 -0.71108,-6.82707 -0.88944,-10.31927c-0.34297,-3.67423 -0.18369,-6.97605 -0.34529,-10.81565zM1253.48093,491.44165c2.02566,1.14297 4.06812,1.93819 6.30868,2.22037c4.42248,1.78086 9.07664,2.35391 13.73083,2.92657c5.85674,0.80513 11.92004,0.92353 17.81034,1.0332c6.75526,0.15176 13.07537,-1.45944 19.57686,-3.23566c0.70876,-0.31436 1.41749,-0.62833 2.48065,-1.09971c0.06706,-1.39019 0.13412,-2.78042 0.20119,-4.17062c0.01677,-0.34737 -0.13946,-0.70346 -0.2873,-1.23321c-1.21097,-0.0584 -2.43036,0.05722 -3.65809,0.34619c-2.1011,0.42129 -4.01245,0.50318 -6.11359,0.92446c-5.24019,0.79214 -10.57796,0.01202 -15.79303,0.28311c-2.77634,0.04018 -5.56944,0.42808 -8.32901,0.12086c-6.02977,-0.81348 -12.10144,-0.75781 -18.09764,-2.26641c-1.54022,-0.42247 -3.25343,-0.85366 -4.79365,-1.27613c-0.6417,-1.07622 -2.04243,-0.79526 -2.89065,-1.18468c-1.01283,-0.57149 -2.02569,-1.14262 -3.93704,-1.06074c1.10203,2.3174 0.47404,4.55138 1.06545,6.67008c0.8566,0.21542 1.49831,1.29161 2.72604,1.0023zM1260.11582,497.68396c-3.90348,-1.75616 -4.93307,-1.97994 -7.19882,-1.74068c0.07243,2.09331 0.15321,4.01328 0.22561,6.10694c-0.05868,1.21651 0.5914,2.1187 1.60423,2.69019c0.67523,0.38076 1.54022,0.42247 2.21545,0.80357c2.53628,1.34135 5.45211,2.00463 8.22845,1.96445c1.16909,0.9272 2.55305,0.99395 3.93704,1.06074c7.77651,0.54921 15.3716,1.26411 23.19002,0.94452c3.47672,-0.18082 6.96182,-0.53501 10.28227,-1.07154c2.62849,-0.56993 5.42998,-1.13151 7.60653,-3.11667c0.10898,-2.25899 0.21795,-4.51833 0.32693,-6.77736c-1.40076,0.28096 -2.62849,0.56993 -3.68324,0.86759c-4.91097,1.15655 -9.80518,1.96539 -14.66589,2.07946c-6.25305,0.22065 -12.46419,-0.42714 -18.68371,-0.90126c-2.94094,-0.14185 -5.6586,-1.31821 -8.60793,-1.28638c-1.49831,-1.29126 -3.2199,-1.54843 -4.77688,-1.62353zM1272.23805,692.12796c2.37168,1.15932 4.78523,1.45016 7.21559,1.39297c0.16461,0.18238 0.50221,0.37276 0.67523,0.38111c4.16033,0.0266 8.33739,-0.29454 12.21877,-1.67486c2.29086,-0.76031 4.57337,-1.34693 6.39556,-3.17511c0.4694,-9.73143 0.9388,-19.46255 1.43336,-29.71507c-4.24412,1.71099 -8.43799,2.3795 -12.62343,2.87433c-3.66647,0.51987 -7.10127,-0.16811 -10.75098,0.00402c-1.38399,-0.06675 -2.58658,-0.29887 -3.97057,-0.36562c-2.03408,-0.96894 -4.25788,-1.59883 -6.84446,-1.8977c-0.25145,5.2131 0.89783,10.14558 1.00909,15.02798c0.27591,5.06446 0.7248,10.13724 1.00912,15.02763c1.49831,1.29161 2.8655,1.70611 4.23273,2.12023zM1269.59795,656.99085c1.16905,0.92755 2.54467,1.16802 3.92863,1.23477c1.35046,0.76187 2.9158,0.66328 4.4644,0.91206c4.83556,0.40733 9.713,-0.05411 14.43422,-0.87129c2.80148,-0.56158 5.61974,-1.47091 8.12554,-3.09166c0.03353,-0.69511 0.24005,-1.38185 0.27358,-2.07696c0.41072,-8.51492 0.8131,-16.85616 1.39681,-25.36242c0.6089,-9.028 1.20938,-17.88194 1.81824,-26.90995c0.81005,-13.19828 1.78471,-26.21487 2.59476,-39.41311c1.05848,-14.75415 1.58958,-29.35932 2.99408,-44.09646c0.29035,-2.42467 0.2431,-5.03976 0.36881,-7.64612c-1.9365,0.60332 -3.71677,1.56235 -5.6365,1.81827c-6.13036,1.27183 -12.38341,1.49283 -18.61966,1.36612c-5.53591,-0.26704 -11.06343,-0.70776 -16.59096,-1.14883c-2.23222,-0.45586 -4.29979,-0.72969 -6.53201,-1.18589c-1.3337,-1.10923 -2.90741,-0.83696 -4.27464,-1.25112c-1.54022,-0.42281 -2.89065,-1.18468 -4.62901,-1.09409c-0.42981,1.7209 -0.15089,3.12779 -0.03654,4.35265c1.40842,10.34431 1.42449,20.79556 2.3139,31.11517c0.54648,6.64504 1.09292,13.29007 1.81238,19.94345c0.78348,8.92107 1.74833,17.67642 2.54023,26.42347c0.69432,7.17478 1.38864,14.34959 1.90993,21.51603c0.66917,7.69586 1.17373,15.21001 1.66991,22.89753c0.52968,6.99275 1.051,14.15921 1.74532,21.33399c1.5486,0.24878 2.53628,1.3417 3.92866,1.23442zM1338.61126,426.92229c-3.88138,1.38032 -7.54785,1.90016 -11.2227,2.59372c-3.84785,0.68521 -7.53108,1.55279 -11.37055,2.06432c-3.66647,0.51987 -7.48917,0.68365 -11.14726,1.02984c-3.83108,0.33784 -7.6622,0.67565 -11.65788,0.83111c-3.64971,0.17212 -7.46402,0.1626 -11.11373,0.33472c-3.81431,-0.00991 -7.59513,-0.71455 -11.44298,-0.02934c-3.58264,-1.21807 -7.42211,-0.70655 -11.04667,-1.05547c-3.7892,-0.53096 -7.76812,-0.7229 -11.55729,-1.2542c-3.61618,-0.52261 -7.39696,-1.22763 -11.00475,-1.92427c-3.78082,-0.70464 -7.35508,-2.09643 -11.16101,-2.27998c-0.54717,4.15392 -0.60585,5.37009 0.62726,8.56501c2.03408,0.96894 4.06812,1.93785 6.46494,2.57612c2.9158,0.66328 5.83163,1.32622 8.91203,2.17153c5.82324,1.50024 11.48184,2.81811 17.53676,3.11016c4.15195,0.20029 8.31224,0.22686 12.43066,1.12226c0.8566,0.21542 1.89458,0.26548 2.94933,-0.03183c2.1011,-0.42129 4.3417,-0.13911 6.41766,-0.03897c7.6119,0.36718 15.27406,-0.30815 22.77161,-1.16583c9.92791,-0.91456 19.56848,-3.06198 29.23423,-5.73114c1.92811,-0.42929 3.85623,-0.85889 5.31563,-2.35602c0.47172,-2.59004 0.42447,-5.2051 0.06474,-8.53162zM1269.71784,402.87192c-1.49294,2.19224 -2.29391,4.41788 -3.26787,6.63547c-0.95716,1.86954 -1.23078,3.9465 -0.63938,6.0652c0.84517,4.04699 1.16303,8.24231 0.78885,12.40458c-0.01677,0.34771 0.13108,0.87715 0.12269,1.05118c0.83984,0.56279 1.53184,0.59618 2.42197,0.11684c0.18141,-0.16568 0.37113,-0.50473 0.37951,-0.67842c0.76207,-5.01437 1.87016,-10.01205 3.3242,-14.99306c0.20652,-0.68677 0.42984,-1.72125 0.11736,-2.43302c-0.55787,-2.81378 -1.11574,-5.6276 -3.24737,-8.16877zM1258.07228,428.61111c0.74531,-4.66701 1.82825,-9.14328 3.07576,-13.4375c0.41304,-1.37353 0.29873,-2.59839 -0.15321,-4.01363c-0.76439,-2.12705 -1.89157,-3.92305 -3.01033,-5.89308c-0.31245,-0.71178 -0.61655,-1.59727 -1.6713,-1.29996c-1.0075,2.91271 -2.1796,5.64274 -2.84108,8.57215c2.5889,7.44026 2.5889,7.44026 2.35955,15.7895c0.49382,0.54644 1.17744,0.75352 2.24056,0.28252zM1299.79977,447.86748c-0.84285,3.0944 -1.51272,6.19718 -2.18261,9.30027c-0.20652,0.68677 -0.41304,1.37353 -0.27358,2.07696c1.07688,2.83848 1.98073,5.66896 3.94775,8.02809c2.17655,-1.98482 2.82126,-4.56652 3.9766,-6.94914c0.57769,-1.19147 0.45499,-2.24264 -0.00533,-3.48385c-1.24987,-2.84717 -2.15372,-5.67765 -2.8762,-8.67347c0.00838,-0.17368 -0.32922,-0.36441 -0.65847,-0.72847c-0.52735,0.14864 -1.22773,0.28896 -1.92811,0.42964zM1304.34246,404.01946c-2.38307,2.67193 -3.54679,5.22858 -4.8835,7.77654c-0.39631,1.02613 -0.2652,1.90328 -0.13412,2.78042c0.83679,4.22067 1.15461,8.41634 0.77208,12.75229c-0.02515,0.5214 0.12273,1.05083 0.09755,1.57223c1.89458,0.26548 2.24898,0.10849 2.31601,-1.28174c0.21792,-4.51799 1.29248,-8.82058 3.21526,-12.73407c1.15534,-2.38262 1.08291,-4.47628 0.32689,-6.77701c-0.63332,-1.2499 -1.10203,-2.3174 -1.71016,-4.08873zM1278.47759,429.76949c0.86499,0.04174 1.07151,-0.64503 1.10504,-1.34014c0.23472,-4.86573 1.84498,-9.49065 3.45531,-14.11592c1.2224,-3.77282 0.72321,-7.80314 -1.68737,-11.7512c-1.28641,1.50548 -1.54323,3.23472 -2.48367,4.75724c-1.88921,3.21803 -2.04849,6.51985 -1.52415,10.02874c0.50758,3.85626 1.18818,7.72087 0.65774,11.52743c0.14788,0.5294 0.31245,0.71178 0.47709,0.89384zM1292.22425,403.60936c-1.13857,2.03491 -2.07059,3.38336 -2.82965,4.7402c-1.31998,2.20094 -1.59353,4.27755 -1.01889,6.74397c0.87874,3.35156 1.05706,6.84376 1.06243,10.32762c0.11431,1.22486 0.04725,2.61505 -0.0114,3.83125c0.8566,0.21577 1.05474,-0.29731 1.07151,-0.64503c1.10805,-4.99768 2.38913,-9.98704 4.35379,-14.76894c0.2149,-0.8608 0.42146,-1.54756 0.29035,-2.42467c-0.74763,-2.47442 -1.32227,-4.94083 -2.91815,-7.80436zM1310.78242,446.65527c0.53272,3.33521 -0.13714,6.43796 -0.63404,9.5494c-0.04191,0.8688 -0.59442,1.53887 -0.29035,2.42433c0.45194,1.41524 2.39378,4.29581 4.22133,5.95148c1.2948,-1.67951 1.74137,-3.74781 2.52558,-5.62604c0.59442,-1.53887 0.48849,-2.93741 -0.30944,-4.36935c-1.2666,-2.49981 -2.18725,-4.98254 -2.57214,-7.78801c0.00838,-0.17368 -0.32083,-0.53809 -0.48548,-0.72012c-0.68361,-0.20708 -1.37561,-0.24043 -2.4555,0.57827zM1251.06412,455.27037c0.92062,2.48311 0.60512,5.42887 2.05313,7.76296c1.21935,-0.11528 1.78027,-0.95938 2.5058,-1.6211c1.27803,-1.33179 2.71229,-2.30752 3.66949,-4.17741c-0.88712,-3.17784 -0.37345,-6.63669 -1.0792,-9.9799c-0.83984,-0.56314 -1.70483,-0.60488 -2.58658,-0.29922c-1.18049,2.90402 -2.69857,5.61769 -4.56267,8.31467zM1279.13765,448.43835c-0.42981,1.7209 -0.85965,3.44215 -1.78329,4.61657c-2.21846,2.85396 -2.18798,5.81677 -0.94649,8.83762c0.46871,1.06753 0.41841,2.11035 1.40609,3.20289c1.8138,-1.65415 3.11698,-3.50734 4.42016,-5.36056c0.37113,-0.50439 0.40466,-1.19947 0.27358,-2.07696c-0.56625,-2.63975 -0.9679,-5.09782 -1.53416,-7.73757c0.02515,-0.5214 -0.2873,-1.23321 -1.8359,-1.48199zM1268.23883,447.91262c-0.87638,3.78951 -2.08202,7.21496 -4.46509,9.88689c-0.54415,0.49639 -0.40466,1.19981 -0.43819,1.89458c0.09755,1.57257 0.36812,3.15318 1.33065,4.76715c2.5393,-2.31587 4.21364,-4.67379 5.89633,-7.20506c0.56092,-0.8441 0.77583,-1.70455 0.6531,-2.75538c-0.25377,-1.92832 -0.33458,-3.84826 -0.58836,-5.77624c0.00838,-0.17368 -0.32083,-0.53809 -0.48548,-0.72012c-0.51901,-0.02504 -1.03798,-0.05005 -1.90297,-0.0918zM1317.0795,413.1686c-0.60817,-1.77095 -1.20796,-3.71597 -1.81612,-5.48693c-0.16461,-0.18238 -0.32922,-0.36441 -0.65847,-0.72847c-1.97841,1.47212 -3.11698,3.50734 -3.90116,5.38522c0.95114,5.44553 1.919,10.54339 1.63402,16.45157c2.5561,-2.66358 1.47922,-5.50241 2.10717,-7.73636c0.6531,-2.75538 1.64383,-5.32003 2.63456,-7.88503zM1267.49705,398.58449c-1.62938,-2.16876 -2.91278,-4.32082 -5.27607,-5.65382c-0.75064,1.18281 -1.65758,2.01021 -2.22685,3.02765c-0.5693,1.01778 -1.31156,2.02691 -1.37024,3.24342c0.44356,1.58892 1.60423,2.68984 2.41054,3.94806c0.80631,1.25825 1.25825,2.67349 2.6003,3.60904c1.34509,-2.72199 2.50881,-5.27864 3.86229,-8.17434zM1246.98371,428.42444c0.94345,-5.17971 1.67199,-9.499 2.40053,-13.81826c0.01677,-0.34771 0.2149,-0.86045 -0.11431,-1.22486c-1.11876,-1.97003 -1.8748,-4.27076 -4.06511,-5.59542c-0.80932,2.39932 -1.6103,4.62492 -2.23824,6.8589c2.05618,4.10543 3.05758,8.50813 4.0171,13.77963zM1289.22341,465.81988c1.61563,-1.14107 2.04547,-2.86231 2.8045,-4.21915c0.94043,-1.52217 1.36186,-3.06939 0.76207,-5.01437c-0.73928,-2.6481 -1.47853,-5.29655 -0.99839,-8.06027c-1.19424,-0.4058 -1.89458,-0.26548 -1.94488,0.777c-0.29873,2.59839 -0.60585,5.37043 -1.7528,7.57937c-1.54323,3.23507 -0.28498,5.90821 1.1295,8.93742zM1272.28107,461.17086c-2.39145,2.84562 -4.4034,5.01281 -6.24235,7.18836c-0.05868,1.21651 0.4268,1.93667 0.73925,2.64845c0.48548,0.72012 0.78116,1.7793 1.97536,2.18545c1.97003,-1.2984 3.78383,-2.95255 5.43299,-4.78908c-0.41003,-2.28404 -1.00143,-4.40274 -1.90529,-7.23322zM1299.03091,470.99592c-1.43124,-2.68184 -2.70626,-5.00758 -3.9729,-7.50704c-1.31995,2.20059 -2.63151,4.2275 -3.94307,6.25437c1.10203,2.3174 1.86642,4.44445 3.86693,6.10847c1.63243,-1.48878 2.75424,-3.17667 4.04903,-4.85583zM1276.06913,393.42456c-2.12625,0.94234 -2.7542,3.17632 -3.87604,4.86417c-0.37113,0.50439 -0.24005,1.3815 0.08081,1.91963c0.95415,1.788 1.74369,3.39362 2.70626,5.00758c-0.00838,0.17368 0.33763,0.19038 0.68361,0.20708c1.32833,-2.37427 2.49205,-4.93092 3.82038,-7.3052c-0.78116,-1.77965 -2.09806,-3.23663 -3.41502,-4.69323zM1302.2779,400.0881c-0.59979,-1.94498 -1.20796,-3.71597 -3.05224,-5.02428c-1.4594,1.49713 -3.26483,2.97794 -4.23041,5.02151c0.46033,1.24121 0.57464,2.46607 1.21634,3.54194c0.46867,1.06787 0.22862,2.44972 1.76046,3.0459c1.49294,-2.19224 2.98591,-4.38448 4.30585,-6.58507zM1303.91677,470.3608c0.61655,1.59727 2.13162,2.54117 3.63831,3.65875c1.48455,-2.01821 3.28997,-3.49899 4.0993,-5.89831c-1.31693,-1.45698 -2.08971,-3.41031 -3.92561,-4.8923c-1.32833,2.37462 -2.48367,4.75724 -3.81203,7.13186zM1321.64238,444.39226c-0.32388,3.11979 0.03585,6.44631 -0.63404,9.5494c-0.47172,2.5897 0.67222,4.03829 2.68111,5.52867c1.30318,-1.85322 1.74137,-3.74781 2.36097,-5.80807c-2.11486,-2.88888 -2.82057,-6.23244 -4.40804,-9.27zM1237.41317,425.52444c0.70038,-0.14067 0.72553,-0.66172 0.75068,-1.18315c0.28197,-2.25064 0.39933,-4.6837 0.85428,-6.926c0.85124,-3.26812 -0.79491,-5.08947 -2.95168,-7.10924c-0.40466,1.19947 -0.79259,2.05192 -1.0075,2.91237c-0.61957,2.06026 -0.88477,3.9632 0.58001,5.94992c0.80631,1.25825 1.07688,2.83883 1.3558,4.24572c-0.20652,0.68677 -0.59442,1.53887 0.41841,2.11035zM1242.90506,459.05714c0.89852,-0.65337 1.45102,-1.32344 1.99518,-1.81983c1.79704,-1.30675 2.39145,-2.84562 2.14607,-4.94762c-0.26219,-1.75426 0.00301,-3.65754 -0.08615,-5.40348c0.02515,-0.5214 0.22329,-1.03448 -0.9793,-1.2666c-0.98235,2.39097 -2.31068,4.76559 -3.9766,6.94948c-0.37113,0.50473 -0.41304,1.37353 -0.44657,2.06861c0.27892,1.40689 0.56625,2.6401 1.34741,4.4194zM1286.45241,469.34392c-0.60817,-1.77095 -1.03496,-3.70762 -2.17049,-5.32994c-1.82219,1.82818 -3.8006,3.30026 -5.12054,5.50085c0.95415,1.788 1.38933,3.5506 3.242,4.68488c1.4594,-1.49713 3.08345,-2.81222 4.04903,-4.85583zM1286.58775,405.42729c1.82215,-1.82783 2.96072,-3.86305 3.75331,-5.915c-0.95418,-1.78765 -1.74369,-3.39362 -3.22523,-5.03263c-1.43429,0.97608 -2.36634,2.32457 -3.13375,3.85505c0.929,2.30908 1.68505,4.60978 2.60567,7.09255zM1270.67008,476.59508c0.97933,1.26625 1.45639,2.16006 2.28785,2.89688c0.49382,0.54644 0.99606,0.9192 1.49831,1.29161c1.77189,-0.78535 3.38755,-1.92676 4.50933,-3.61427c-0.78116,-1.77965 -1.56232,-3.55895 -3.23361,-4.85894c-1.63243,1.48878 -3.24806,2.63019 -5.06186,4.28469zM1238.26303,443.85389c-2.00356,1.99351 -3.45458,3.31696 -5.09539,4.97946c-0.20652,0.68677 -0.09221,1.91163 0.37646,2.9795c0.29572,1.05918 -0.10898,2.25899 0.88712,3.17784c1.58213,-0.4463 2.66203,-1.26504 3.58569,-2.43981c-0.03887,-2.78877 0.08684,-5.39513 0.24611,-8.69695zM1264.62085,389.91099c0.82307,0.91085 1.64615,1.82139 2.46922,2.73189c0.82307,0.9105 1.65453,1.64736 2.4776,2.55786c1.30318,-1.85288 2.58121,-3.18467 3.0194,-5.0796c-0.46871,-1.06753 -1.48992,-1.46529 -2.32976,-2.02843c-0.83984,-0.56279 -1.65453,-1.64736 -2.87392,-1.53173c-1.09666,1.16611 -2.17655,1.98482 -2.76258,3.35zM1291.89846,478.664c-1.30017,-1.80435 -2.06456,-3.93136 -4.07345,-5.42173c-1.27803,1.33179 -2.38307,2.67193 -3.66114,4.00372c1.30017,1.80435 2.2627,3.41831 4.29678,4.38726c1.25288,-0.8104 2.48903,-1.27339 3.43782,-2.96924zM1250.74073,408.0529c1.18887,-3.07808 2.18798,-5.81677 3.18709,-8.55545c-0.6417,-1.07587 -1.11041,-2.14337 -2.30461,-2.54952c-1.99518,1.81983 -2.97752,4.2108 -4.13283,6.59342c0.6417,1.07622 1.2834,2.15206 2.10644,3.06295c0.13946,0.70346 0.47709,0.89384 1.14391,1.44863zM1261.54083,468.14227c-0.9458,-1.96133 -0.84521,-4.04664 -2.16211,-5.50362c-1.98679,1.6458 -3.79218,3.12623 -5.27677,5.14479c1.15229,1.27491 1.0685,3.01251 2.74814,4.13878c1.77189,-0.78535 2.88531,-2.29917 4.69073,-3.77995zM1313.43049,402.54215c-0.93738,-2.13536 -1.71016,-4.08873 -3.20847,-5.38034c-1.2613,0.98443 -2.35796,2.15085 -3.11698,3.50768c0.93742,2.13502 1.70181,4.26207 2.62243,6.74518c1.13019,-1.86154 2.23523,-3.20168 3.70302,-4.87252zM1243.58566,462.92175c0.58302,2.29239 1.00982,4.22902 2.67273,5.7027c1.42587,-0.80205 2.67041,-1.43872 3.42943,-2.79556c-0.5914,-2.1187 -1.00982,-4.22902 -1.75744,-6.70344c-1.61563,1.14107 -3.0583,2.29083 -4.34472,3.7963zM1293.26829,396.344c1.31156,-2.02656 3.26483,-2.97759 3.70302,-4.87252c-0.95418,-1.78765 -2.28785,-2.89688 -3.80292,-3.84113c-1.44267,1.14976 -2.87693,2.12549 -3.48811,4.01207c1.14391,1.44863 2.11486,2.88888 3.58801,4.70158zM1304.80923,477.0225c-1.15229,-1.27491 -1.9586,-2.53317 -3.48205,-3.30338c-1.30318,1.85322 -3.26483,2.97794 -4.0658,5.20354c0.9793,1.2666 1.98375,2.01177 3.53235,2.26055c1.45102,-1.32344 2.73747,-2.82892 4.0155,-4.16071zM1242.93377,404.54093c-0.97092,-1.44028 -1.80237,-2.1771 -2.98823,-2.75659c-1.27803,1.33145 -2.39984,3.0193 -2.50043,5.10461c0.98768,1.09254 1.97536,2.18545 2.9547,3.45167c1.47617,-1.84453 1.74975,-3.92149 2.53396,-5.79972zM1331.70601,458.63766c-0.99606,-0.91885 -1.82752,-1.65567 -2.85715,-1.87945c-1.12181,1.68751 -1.89763,3.39206 -2.33582,5.28699c0.81469,1.08422 1.64615,1.82104 2.84039,2.22681c1.2948,-1.67916 1.56838,-3.75612 2.35259,-5.63439zM1277.63422,483.20114c0.93738,2.13536 2.313,2.37583 3.87836,2.27725c1.21097,0.0584 2.4387,-0.23056 3.02477,-1.59571c-0.97092,-1.44028 -1.95021,-2.70685 -3.46529,-3.65075c-1.26127,0.98408 -2.34954,1.97682 -3.43782,2.96924zM1325.20199,413.73451c-0.44356,-1.58892 -0.3765,-2.97915 -1.54555,-3.90635c-3.60246,2.78721 -2.89671,6.13074 -1.34277,9.86341c0.96558,-2.04357 1.92278,-3.91349 2.88836,-5.95706zM1261.73824,478.42849c1.59052,-0.62002 2.67041,-1.43907 3.78383,-2.95289c-1.16909,-0.9272 -1.25825,-2.67314 -2.60871,-3.43501c-1.04636,0.12363 -1.42587,0.80205 -2.14302,1.29005c-0.72553,0.66172 -1.60725,0.96738 -1.66593,2.18389c0.6417,1.07587 1.2834,2.15206 2.63383,2.91393zM1282.49004,429.26632c1.85267,1.13428 2.90741,0.83696 3.15585,-0.7186c0.28197,-2.25064 0.21795,-4.51833 0.14556,-6.61199c0.0335,-0.69477 -0.09755,-1.57223 -1.11879,-1.96968c-1.01584,3.08605 -1.68574,6.18918 -2.18261,9.30027zM1314.65331,477.84554c0.29568,1.05952 0.96253,1.61397 1.99213,1.83809c1.80542,-1.48043 3.94844,-2.77052 5.10378,-5.15348c-2.02569,-1.14262 -3.59941,-0.87036 -4.89424,0.80918c-0.72553,0.66172 -1.78862,1.13272 -2.2017,2.50625zM1305.75551,428.64661c2.42197,0.11684 2.95771,-0.20552 3.03315,-1.7694c-0.05563,-2.44137 -0.10291,-5.05611 -0.85054,-7.53088c-1.53488,3.06139 -2.88836,5.95706 -2.18261,9.30027zM1330.68549,447.44124c-0.24005,1.38185 -0.29873,2.59839 -0.5304,3.80621c-0.29035,2.42467 -0.29035,2.42467 2.78167,3.4437c0.40466,-1.19981 0.99073,-2.565 1.19725,-3.25177c-1.31693,-1.45698 -2.29623,-2.7232 -3.44855,-3.99815zM1286.12884,382.58816c-1.07989,0.81871 -2.65361,1.09101 -2.74582,3.0026c0.99606,0.91885 2.17354,1.67237 3.33421,2.77363c1.2613,-0.98443 2.68717,-1.78644 3.27321,-3.15162c-1.16909,-0.9272 -2.15677,-2.02012 -3.8616,-2.62461zM1319.47047,460.66023c-0.97396,2.21729 -2.12092,4.42619 -3.09488,6.64382c0.3041,0.88549 0.78954,1.60562 1.84432,1.30796c1.63243,-1.48878 2.93561,-3.342 3.56356,-5.57595c-0.6417,-1.07587 -1.30017,-1.80435 -2.313,-2.37583zM1315.64895,399.68818c1.21939,-0.11563 2.11791,-0.769 2.86016,-1.77809c-0.31245,-0.71178 -0.62493,-1.42359 -0.93738,-2.13536c-0.47709,-0.89384 -0.78116,-1.7793 -1.80237,-2.1771c-1.03798,-0.05005 -1.91973,0.25592 -2.65364,1.09136c0.78954,1.60562 1.74373,3.39327 2.53324,4.99923zM1281.73615,394.56871c1.2613,-0.98443 2.01194,-2.1672 2.59798,-3.53238c-1.33366,-1.10958 -2.49437,-2.2105 -3.66346,-3.1377c-1.40911,0.4543 -2.1514,1.46377 -2.37469,2.4979c1.14391,1.44863 2.28785,2.89723 3.44014,4.17218zM1322.30902,405.40875c-0.46871,-1.06753 -0.93738,-2.13536 -1.57908,-3.21124c-0.16461,-0.18238 -0.51059,-0.19907 -0.84822,-0.38945c-0.71715,0.48804 -1.77189,0.78535 -2.35792,2.1505c0.45194,1.41524 0.7141,3.16988 1.858,4.61847c1.42591,-0.80239 2.16817,-1.81148 2.92723,-3.16832zM1330.75698,420.79556c0.2652,-1.90328 2.18493,-2.15885 2.26876,-3.89679c-0.62493,-1.42359 -0.72248,-2.99581 -2.03941,-4.45279c-1.25288,0.8104 -2.33281,1.62945 -1.88925,3.21837c0.44356,1.58892 0.19513,3.14449 1.6599,5.13121zM1325.03918,471.03111c0.75068,-1.18315 1.67431,-2.35758 2.4166,-3.36705c0.18137,-0.16534 0.02515,-0.52108 0.04191,-0.8688c-0.84822,-0.38911 -1.6713,-1.29996 -3.25343,-0.85366c-0.93205,1.34849 -1.87248,2.87066 -2.98591,4.38448c1.17744,0.75352 2.20703,0.97764 3.78078,0.70499zM1276.98209,385.28202c-0.98768,-1.09254 -1.96701,-2.35914 -2.79009,-3.26964c-1.5821,0.44595 -2.66203,1.26504 -3.56893,2.0921c0.11431,1.22486 1.31693,1.45698 1.98375,2.01177c0.66685,0.55444 1.32531,1.28292 2.54467,1.16767c0.70876,-0.31401 1.42587,-0.80205 1.83057,-2.00186zM1247.65606,472.00137c0.80631,1.25791 1.45639,2.16041 2.10647,3.0626c0.15622,0.35571 0.66685,0.55479 0.83146,0.73682c1.21097,0.0584 2.10949,-0.59497 2.85178,-1.60441c-0.79793,-1.43194 -1.42286,-2.85552 -2.57518,-4.13009c-1.06313,0.471 -1.96165,1.12437 -3.21453,1.93511zM1335.36479,447.49286c0.80094,-2.22563 1.60191,-4.45158 1.20027,-6.9093c-1.58213,0.4463 -2.97448,0.55323 -3.90653,1.90172c0.72248,2.99581 0.72248,2.99581 2.70626,5.00758zM1264.56186,481.00305c2.78167,3.4437 2.9547,3.45202 6.15246,1.86431c-0.97933,-1.26625 -2.14001,-2.36748 -3.1193,-3.63408c-1.21939,0.11563 -2.11791,0.769 -3.03315,1.76974zM1307.96771,393.56977c-0.79793,-1.43194 -1.61262,-2.51647 -2.96304,-3.27833c-0.35436,0.15699 -0.89014,0.47969 -1.42587,0.80205c-0.36278,0.33105 -0.73391,0.83575 -1.09666,1.16646c0.79793,1.43194 1.41448,3.02921 2.75656,3.96475c1.06313,-0.471 1.97841,-1.47212 2.72905,-2.65489zM1237.6702,463.33314c0.53574,-0.32236 1.25288,-0.8104 1.45102,-1.32344c0.61118,-1.88623 0.34903,-3.64087 -0.76976,-5.61056c-1.07151,0.64503 -2.47223,0.92564 -3.04154,1.94311c0.60817,1.7713 0.68895,3.69127 2.36024,4.99089zM1248.79959,394.37341c-0.16461,-0.18238 -0.32922,-0.36441 -0.65847,-0.72847c-2.31601,1.28174 -4.1382,3.10954 -5.96038,4.93771c0.46033,1.24156 1.12718,1.796 2.50275,2.03678c1.31156,-2.02691 2.79615,-4.04543 4.1161,-6.24602zM1296.22994,421.22025c-1.16372,2.55631 -2.49205,4.93092 -2.46157,7.89338c-0.00838,0.17368 0.66685,0.55479 1.01283,0.57149c0.86499,0.04174 1.59052,-0.62002 1.63243,-1.48913c0.62795,-2.23395 0.39094,-4.50964 -0.18373,-6.97571zM1302.55217,387.21218c-0.81469,-1.08422 -1.62938,-2.16876 -2.80682,-2.92227c-1.21097,-0.0584 -2.09276,0.24757 -3.01639,1.42203c1.16067,1.10123 2.313,2.37618 3.48205,3.30338c1.05474,-0.29766 1.77189,-0.78535 2.34116,-1.80313zM1290.72331,485.05187c2.41359,0.29052 4.48116,0.56435 6.6158,-0.55171c-0.44356,-1.58892 -1.621,-2.34244 -2.97984,-2.93062c-1.43426,0.97573 -2.68714,1.78609 -3.63595,3.48229zM1228.73676,447.22617c1.60725,-0.96738 1.78862,-1.13272 1.8138,-1.65415c0.25682,-1.72925 -0.53272,-3.33521 -1.33065,-4.7668c-0.32083,-0.53809 -1.17744,-0.75352 -1.74674,0.26392c0.96253,1.61397 0.16159,3.83957 1.26362,6.157zM1255.66081,395.92337c1.48455,-2.01856 3.13375,-3.8547 3.44921,-6.80046c-2.48062,1.09936 -3.79218,3.12623 -5.08701,4.80577c0.13108,0.87715 0.63332,1.24956 1.63776,1.99473zM1255.37926,477.2506c-0.89014,0.47969 -1.77189,0.7857 -2.66203,1.26504c0.78954,1.60597 1.76884,2.87222 3.69696,2.44293c0.52739,-0.14899 1.05474,-0.29766 1.2613,-0.98443c-0.29572,-1.05918 -1.12718,-1.796 -2.29623,-2.72355zM1317.43016,427.4681c1.55698,0.0751 2.26571,-0.23891 2.15978,-1.63745c-0.11431,-1.22486 -0.22862,-2.44972 -0.51596,-3.68258c-0.14784,-0.52974 -0.46867,-1.06787 -1.16905,-0.92755c-0.61957,2.06026 -0.71178,3.97189 -0.47477,6.24758zM1251.85883,420.82158c-0.80094,2.22563 -1.25593,4.46828 -0.8459,6.75231c-0.00838,0.17368 0.66685,0.55444 0.83984,0.56279c0.34598,0.0167 0.71711,-0.48769 0.73391,-0.83541c-0.06401,-2.26734 0.38256,-4.33595 -0.72785,-6.4797zM1243.26995,426.32922c-0.43518,-1.76261 -0.34297,-3.67423 -1.28877,-5.63557c-0.97396,2.21729 -1.41216,4.11222 -0.94345,5.17971c0.29572,1.05918 0.98768,1.09254 2.23222,0.45586zM1307.60465,483.77602c2.1011,-0.42129 4.52308,-0.30445 5.83464,-2.33135c-3.04691,-1.54043 -4.35847,0.48648 -5.83464,2.33135zM1306.70824,452.03253c0.34598,0.0167 0.52735,-0.14864 0.87337,-0.13198c-0.08916,-1.74629 0.67825,-3.27678 -0.1113,-4.88239c-1.0296,-0.22377 -1.55698,-0.0751 -2.11787,0.76865c0.46033,1.24156 0.91224,2.65679 1.3558,4.24572zM1273.79593,422.57646c-0.63637,2.40801 -1.07456,4.3026 -1.00213,6.39625c-0.01677,0.34771 0.31245,0.71178 0.83146,0.73682c0.17299,0.00835 0.52735,-0.14864 0.70876,-0.31401c0.80097,-2.22598 0.90153,-4.31094 -0.53806,-6.81907zM1240.51059,465.56029c-1.05474,0.29766 -1.59052,0.62002 -1.26965,1.15811c0.46033,1.24156 1.09364,2.49111 1.72696,3.74098c0.48548,0.72012 1.00445,0.74517 1.55698,0.0751c-0.4268,-1.93667 -0.87032,-3.52559 -2.01426,-4.97419zM1293.55933,383.12068c0.71715,-0.48804 1.42587,-0.80205 2.14302,-1.29005c0.18137,-0.16534 0.19814,-0.51308 0.39628,-1.02579c-2.07596,-0.10014 -3.95377,-0.71334 -6.23629,-0.12671c1.16071,1.10088 1.99216,1.83774 3.69699,2.44258zM1262.01092,447.61222c0.0892,1.74594 0.18674,3.31817 0.25914,5.41183c1.8138,-1.65415 2.40822,-3.19298 2.31906,-4.93927c-0.83984,-0.56279 -1.35046,-0.76187 -2.5782,-0.47255zM1316.54162,445.88817c0.63332,1.24956 0.19513,3.14449 2.04779,4.27911c0.72016,-4.14557 0.76207,-5.01437 -0.08615,-5.40383c-0.86499,-0.04174 -1.40076,0.28096 -1.96165,1.12472zM1263.39935,422.42349c-2.2017,2.50625 -2.30229,4.59156 -1.73604,7.23166c2.52257,-1.96847 1.25593,-4.46793 1.73604,-7.23166zM1326.83674,419.38711c-2.02033,2.34123 -2.11254,4.25251 -1.86711,6.35451c-0.00838,0.17368 0.32922,0.36441 0.67523,0.38111c0.51901,0.02504 0.88175,-0.30601 0.89852,-0.65337c0.25682,-1.72959 0.16766,-3.4755 0.2934,-6.08224zM1324.97122,443.68201c0.44356,1.58892 0.53272,3.33521 2.20402,4.63482c0.6028,-1.71255 0.50525,-3.28478 0.39929,-4.68336c-1.01283,-0.57149 -1.71321,-0.43116 -2.60335,0.04853zM1329.7365,409.5988c-1.13556,-1.62232 -1.04335,-3.53359 -2.73979,-4.31212c-0.63633,2.40767 -0.63633,2.40767 1.14928,4.93214c0.35436,-0.15699 0.70876,-0.31401 1.59052,-0.62002zM1310.25597,475.54328c2.44709,-0.40425 3.73353,-1.91007 4.85534,-3.59757c-0.46871,-1.06753 -1.16071,-1.10088 -1.70483,-0.60488c-0.93205,1.34849 -2.03709,2.68863 -3.15051,4.20245zM1310.67165,391.43562c1.04636,-0.12363 1.91973,-0.25557 2.48903,-1.27339c-0.65008,-0.90216 -1.30017,-1.80435 -2.32976,-2.02808c-0.87337,0.13198 -1.40914,0.45465 -1.78865,1.13306c0.3041,0.88549 0.79796,1.43159 1.62942,2.16841zM1285.70852,452.41301c0.58603,-1.36518 0.98235,-2.39132 0.68663,-3.45049c-0.15622,-0.35571 -0.49382,-0.54644 -0.83146,-0.73682c-0.51901,-0.02504 -1.22777,0.28931 -1.07989,0.81871c-0.0503,1.04283 -0.10898,2.25899 1.22472,3.36857zM1281.89611,380.46794c-1.53184,-0.59653 -2.95771,0.20586 -4.35847,0.48648c1.96701,2.35914 2.313,2.37583 4.35847,-0.48648zM1233.59048,425.68821c0.8177,-2.573 0.8177,-2.573 -0.68895,-3.69093c-0.39631,1.02613 -0.80094,2.22563 0.68895,3.69093zM1296.48766,448.22999c-0.66685,-0.55444 -1.18586,-0.57949 -1.37561,-0.24043c-0.93205,1.34849 -0.78421,1.87823 0.69733,3.51724c0.57769,-1.19147 0.62795,-2.23395 0.67825,-3.27678zM1334.03556,421.12779c-0.9069,0.82706 -1.64081,1.66284 -1.35348,2.8957c2.7931,-0.38755 2.98286,-0.72691 1.35348,-2.8957zM1230.2509,419.43107c-1.09666,1.16611 -1.33671,2.54796 -1.56838,3.75612c-0.03353,0.69511 0.46033,1.24156 1.53184,0.59653c0.23167,-1.20816 0.47172,-2.59004 0.03654,-4.35265zM1323.96961,399.74101c-0.42984,1.72125 0.04725,2.61505 1.41448,3.02921c0,0 0.35436,-0.15699 0.36275,-0.33071c0.22329,-1.03448 -0.78116,-1.77965 -1.77722,-2.6985zM1274.18476,450.46369c1.05474,-0.29766 1.43429,-0.97608 1.2948,-1.67916c0.01677,-0.34771 -0.31245,-0.71178 -0.65005,-0.9025c-0.33763,-0.19038 -0.87337,0.13232 -0.89014,0.47969c-0.19814,0.51308 -0.23167,1.20816 0.24542,2.10201zM1304.74549,384.87961c0.63332,1.24956 1.30017,1.80435 2.71766,1.17598c-0.79793,-1.43194 -1.47316,-1.81269 -2.71766,-1.17598z" fill="#000000"/><path d="M1269.15823,511.53159c5.52752,0.44072 11.05505,0.88179 16.59096,1.14883c6.2279,0.30043 12.48934,-0.09429 18.61966,-1.36612c1.92811,-0.42964 3.52701,-1.2233 5.6365,-1.81827c-0.13409,2.78008 -0.07846,5.22145 -0.36881,7.64578c-1.39612,14.56377 -1.9356,29.34266 -2.99408,44.09681c-0.98304,13.18993 -1.78471,26.21452 -2.59476,39.41311c-0.60886,9.02766 -1.20938,17.88194 -1.81824,26.9096c-0.58371,8.50657 -0.8131,16.85616 -1.39681,25.36273c-0.03353,0.69511 -0.06706,1.39019 -0.27358,2.07696c-2.51415,1.79444 -5.15103,2.53805 -8.1255,3.09132c-4.72122,0.81753 -9.59869,1.27897 -14.43422,0.87164c-1.55698,-0.0751 -3.12232,0.02349 -4.4644,-0.91206c1.57375,-0.27261 3.27858,0.33223 5.22346,-0.44477c-1.07688,-2.83883 -0.41536,-5.76789 -0.45426,-8.55666c0.00838,-0.17368 0.01677,-0.34771 -0.15622,-0.35606c-1.15766,-4.75845 -0.91459,-9.79787 -1.54486,-14.70531c-0.26219,-1.75426 -1.04335,-3.53394 -0.61354,-5.25484c0.51364,-3.45884 -0.88407,-6.83576 -0.37044,-10.29457c0.00838,-0.17368 -0.14788,-0.5294 -0.13108,-0.87715c-0.35973,-3.32652 -0.90084,-6.48805 -0.91459,-9.79787c0.18442,-3.82325 -1.03192,-7.36551 -0.50151,-11.17172c-0.929,-2.30908 -0.47404,-4.55138 -0.52968,-6.99275c0.01677,-0.34737 0.02515,-0.52108 0.04191,-0.8688c-1.21634,-3.54229 -0.3483,-7.15808 -0.87264,-10.66698c-0.52438,-3.50855 -0.00236,-7.14108 -0.35367,-10.64162c-0.3262,-4.02198 -1.17976,-7.89494 -0.4596,-12.04051c0.01677,-0.34771 0.04191,-0.8688 -0.11431,-1.22486c-0.9458,-1.96133 -0.3262,-4.02163 -0.39863,-6.11526c0.0503,-1.04283 0.28197,-2.25064 -0.01372,-3.31017c-0.61655,-1.59727 -0.3765,-2.97915 -0.30105,-4.54303c0.04191,-0.8688 0.25682,-1.72959 -0.05563,-2.44137c-0.929,-2.30908 -0.46566,-4.72506 -0.35672,-6.98405c0.04191,-0.8688 0.25682,-1.72959 -0.05563,-2.44137c-0.77278,-1.95299 -0.50758,-3.85626 -0.41536,-5.76789c0.15089,-3.12779 -0.90922,-6.31398 -0.58534,-9.43377c0.19814,-0.51274 -0.29572,-1.05918 -0.44356,-1.58892z" fill="#87d7dc"/><path d="M1269.15823,511.53159c0.14784,0.52974 0.6417,1.07622 0.61655,1.59727c-0.32388,3.11979 0.56321,6.29767 0.58534,9.43377c-0.09221,1.91163 -0.35741,3.8149 0.41536,5.76789c0.31245,0.71178 0.09755,1.57257 0.05563,2.44137c-0.10898,2.25899 -0.39929,4.68336 0.35672,6.98405c0.31245,0.71178 -0.07545,1.56422 0.05563,2.44137c-0.07545,1.56391 -0.14251,2.95411 0.30105,4.54303c0.29568,1.05952 0.06401,2.26734 0.01372,3.31017c0.0724,2.09366 -0.54717,4.15392 0.39863,6.11526c0.15622,0.35606 0.13108,0.87715 0.11431,1.22486c-0.71178,3.97189 0.1334,8.01853 0.4596,12.04051c0.34297,3.67423 -0.17905,7.30676 0.35367,10.64162c0.52434,3.5089 -0.34366,7.12473 0.87264,10.66698c0.16461,0.18203 -0.02515,0.5214 -0.04191,0.8688c-0.10898,2.25934 -0.39933,4.6837 0.52968,6.99275c-0.70339,3.79786 0.51294,7.34015 0.50151,11.17172c-0.15924,3.30147 0.55486,6.47135 0.91459,9.79787c-0.01677,0.34771 0.14784,0.52974 0.13108,0.87715c-0.51364,3.45884 0.88407,6.83576 0.37044,10.29457c-0.2652,1.90293 0.52434,3.5089 0.61354,5.25484c0.45728,4.89909 0.3872,9.94686 1.54486,14.70531c-0.00838,0.17403 0.15622,0.35606 0.15622,0.35606c0.03887,2.78877 -0.62261,5.71783 0.45426,8.55666c-1.77189,0.78535 -3.46833,0.00679 -5.22346,0.44477c-1.38399,-0.06675 -2.76795,-0.1335 -3.92863,-1.23477c0.0503,-1.04248 0.28197,-2.25064 -0.01375,-3.30982c-1.03493,-3.70797 -0.6859,-7.34881 -0.85588,-11.01473c-0.16998,-3.66588 -1.20494,-7.37351 -0.50151,-11.17137c-0.929,-2.30908 -0.47404,-4.55172 -0.52968,-6.99275c0.01677,-0.34737 0.04191,-0.8688 -0.11431,-1.22486c-0.78954,-1.60562 -0.35973,-3.32652 -0.45731,-4.89874c0.04191,-0.86914 0.08383,-1.73794 -0.05563,-2.44137c-0.68057,-3.86461 -1.17976,-7.89494 -0.98699,-11.89153c0.02515,-0.5214 0.23167,-1.20816 -0.09755,-1.57223c-0.78116,-1.77965 -0.52434,-3.5089 -0.44051,-5.24684c0.2652,-1.90293 -0.86197,-3.69928 -0.58836,-5.77624c0.30712,-2.77208 -0.43216,-5.42018 -0.64402,-8.21726c-0.16159,-3.83957 -1.02353,-7.53884 -0.83076,-11.53578c0.03353,-0.69511 0.24844,-1.55556 -0.0724,-2.09366c-0.62493,-1.42359 -0.3765,-2.97915 -0.47404,-4.55138c0.06706,-1.39019 -0.03887,-2.78877 -0.3262,-4.02198c-0.58302,-2.29239 -0.82006,-4.56807 -0.7027,-7.00075c0.00305,-3.65788 -1.03192,-7.36551 -0.32852,-11.16337c0.01677,-0.34737 -0.13108,-0.87715 -0.11431,-1.22486c-0.34297,-3.67423 -0.85893,-7.35681 -0.85591,-11.01438c0.18439,-3.82291 -1.01515,-7.71291 -0.48475,-11.51908c0.02515,-0.5214 -0.29572,-1.05918 -0.44356,-1.58892c-0.23704,-2.27569 -0.29267,-4.71706 0.33528,-6.95104c0.87337,-0.13198 1.56537,-0.09858 2.26571,-0.23891c2.39682,0.63789 4.45601,1.08575 6.69661,1.36792z" fill="#b0eef2"/><path d="M1338.61126,426.92229c0.35973,3.32652 0.40698,5.94157 -0.41072,8.51492c-1.45102,1.32344 -3.37914,1.75273 -5.31563,2.35602c-9.65737,2.49548 -19.30633,4.81658 -29.23423,5.73114c-7.48917,0.684 -15.15136,1.3593 -22.77161,1.16583c-2.07596,-0.10014 -4.31656,-0.38232 -6.41766,0.03897c-0.87337,0.13198 -1.91135,0.08189 -2.94933,0.03183c-4.11842,-0.89537 -8.28713,-0.74794 -12.43066,-1.12226c-5.87354,-0.45742 -11.71351,-1.60991 -17.53676,-3.11016c-2.90741,-0.83696 -5.82324,-1.4999 -8.91203,-2.17153c-2.40517,-0.46455 -4.43087,-1.60718 -6.46494,-2.57612c-1.06008,-3.18654 -1.17442,-4.41105 -0.62726,-8.56501c3.79755,0.35727 7.38019,1.57534 11.16101,2.27998c3.60779,0.69664 7.38858,1.40166 11.00475,1.92427c3.78917,0.5313 7.75974,0.89693 11.55729,1.2542c3.61618,0.52296 7.45564,0.01147 11.04667,1.05547c3.84785,-0.68521 7.62866,0.01943 11.44298,0.02934c3.64132,0.00156 7.46402,-0.1626 11.11373,-0.33472c3.8227,-0.16378 7.65378,-0.50162 11.65788,-0.83111c3.65809,-0.34619 7.48079,-0.50997 11.14726,-1.02984c3.83946,-0.51152 7.5227,-1.37911 11.37055,-2.06432c4.02084,-0.67686 7.68731,-1.19673 11.56869,-2.57702z" fill="#d1eaeb"/><path d="M1262.62626,510.3457c-0.70038,0.14033 -1.39234,0.10693 -2.26571,0.23891c-0.62798,2.23429 -0.73692,4.49332 -0.33528,6.95104c0.14784,0.52974 0.46867,1.06787 0.44356,1.58892c-0.5304,3.80656 0.49618,7.68786 0.48475,11.51908c-0.17604,3.64922 0.51294,7.34015 0.85588,11.01473c-0.01677,0.34737 0.13108,0.87715 0.11435,1.22451c-0.70343,3.79821 0.51294,7.34015 0.32852,11.16337c-0.10898,2.25899 0.11968,4.70836 0.7027,7.00075c0.27892,1.40689 0.38488,2.80543 0.3262,4.02198c-0.07545,1.56391 -0.3155,2.94576 0.47404,4.55138c0.32083,0.53809 0.10593,1.39854 0.0724,2.09366c-0.18442,3.82325 0.66917,7.69621 0.83076,11.53578c0.21189,2.79709 0.95114,5.44553 0.64402,8.21761c-0.2652,1.90293 0.86197,3.69928 0.58836,5.77624c-0.25682,1.72925 -0.52202,3.63253 0.44051,5.24649c0.14784,0.52974 0.12273,1.05083 0.09755,1.57223c-0.1928,3.99694 0.31477,7.8532 0.98699,11.89153c0.13108,0.87749 -0.08383,1.73794 0.05563,2.44137c-0.07545,1.56391 -0.33226,3.29313 0.45728,4.89909c0.15622,0.35571 0.13108,0.87715 0.11435,1.22451c-0.10898,2.25899 -0.39933,4.6837 0.52968,6.99275c-0.70339,3.79786 0.33157,7.50549 0.50151,11.17172c0.16998,3.66588 -0.18744,7.48044 0.85591,11.01438c0.29572,1.05918 0.06401,2.26734 0.01375,3.30982c-1.56537,0.09893 -2.55305,-0.99395 -3.75567,-1.22607c-0.51294,-7.34015 -1.21561,-14.34125 -1.74532,-21.33399c-0.66917,-7.69586 -1.17373,-15.21001 -1.66991,-22.89753c-0.52133,-7.16643 -1.21561,-14.34125 -1.90993,-21.51603c-0.78348,-8.92072 -1.74833,-17.67642 -2.54023,-26.42347c-0.54648,-6.64504 -1.09292,-13.29007 -1.81238,-19.94345c-0.88941,-10.31961 -1.07847,-20.77921 -2.3139,-31.11517c-0.10593,-1.39854 -0.55787,-2.81378 0.03654,-4.35265c1.55698,0.0751 3.08882,0.67128 4.62901,1.09409c0.84822,0.38911 2.42197,0.11684 3.76402,1.05239z" fill="#87d7dc"/><path d="M1276.78537,662.56313c3.64971,-0.17247 7.09289,0.34214 10.75098,-0.00402c4.18548,-0.49483 8.37931,-1.16334 12.62346,-2.87468c-0.48617,10.07883 -0.96395,19.98395 -1.43336,29.71507c-1.99518,1.81983 -4.27769,2.40645 -6.39556,3.17511c-4.05437,1.37197 -8.05009,1.52775 -12.21877,1.67486c-0.17299,-0.00835 -0.51062,-0.19873 -0.67523,-0.38076c1.60725,-0.96738 1.15534,-2.38262 0.87638,-3.78951c-0.69733,-3.51724 -1.22167,-7.02614 -0.88103,-10.4933c0.03353,-0.69511 0.06706,-1.39019 -0.0724,-2.09366c-0.87874,-3.35156 -0.53809,-6.81872 -0.89783,-10.14558c-0.2538,-1.92798 -0.53272,-3.33487 -1.67666,-4.78346z" fill="#61afb4"/><path d="M1261.14614,487.10878c6.00462,1.33456 12.06791,1.45293 18.09764,2.26641c2.75957,0.30722 5.54432,0.09301 8.32901,-0.12086c5.20669,-0.09737 10.55284,0.50903 15.79303,-0.28311c2.09276,-0.24757 4.18548,-0.49483 6.11359,-0.92446c1.22777,-0.28931 2.44712,-0.40459 3.65809,-0.34619c0.14784,0.52974 0.3041,0.88549 0.2873,1.23321c-0.06706,1.39019 -0.13412,2.78042 -0.20119,4.17062c-0.89014,0.47934 -1.5989,0.7937 -2.48062,1.09936c-6.3285,1.78488 -12.82999,3.56144 -19.57686,3.23601c-5.89027,-0.11005 -11.9536,-0.22807 -17.81034,-1.0332c-4.65415,-0.57304 -9.31669,-0.97202 -13.73083,-2.92657c0.88175,-0.30601 1.89458,0.26548 2.63688,-0.74361c0.43819,-1.89493 1.06617,-4.12888 -1.11574,-5.6276z" fill="#61aeb3"/><path d="M1264.73648,498.95178c2.95771,-0.20586 5.67537,0.97047 8.60796,1.28603c6.21952,0.47411 12.43904,0.94854 18.68371,0.90126c5.03367,-0.10537 9.92791,-0.91456 14.66589,-2.07946c1.22773,-0.28896 2.4555,-0.57827 3.68324,-0.86724c-0.11736,2.43268 -0.21792,4.51799 -0.32689,6.77701c-2.17655,1.98517 -4.81343,2.72878 -7.60653,3.11667c-3.32049,0.53657 -6.81394,1.06475 -10.28227,1.07154c-7.81842,0.31959 -15.41352,-0.39496 -23.19002,-0.94417c-1.38399,-0.06675 -2.76795,-0.1335 -3.93701,-1.06108c0.04191,-0.8688 0.25682,-1.72925 -0.05567,-2.44102c-0.60817,-1.77095 -0.33458,-3.84792 -0.24237,-5.75954z" fill="#61aeb3"/><path d="M1276.78537,662.56313c0.97933,1.26625 1.43124,2.68149 1.52041,4.42775c0.35973,3.32652 0.01909,6.79367 0.89783,10.14558c0.13946,0.70346 0.10593,1.39854 0.0724,2.09366c-0.17604,3.64922 0.35672,6.98405 0.88106,10.49295c0.2873,1.23321 0.73086,2.82213 -0.87638,3.78951c-2.60335,0.04888 -5.00855,-0.41568 -7.21559,-1.39297c-0.40165,-2.45772 -0.97628,-4.92414 -0.51294,-7.34015c0.01677,-0.34771 -0.13108,-0.87715 -0.11431,-1.22486c-0.35135,-3.50055 -0.69432,-7.17478 -0.87264,-10.66698c-0.09755,-1.57223 -0.03052,-2.96246 -0.30105,-4.54303c-0.4268,-1.93667 -0.49919,-4.02995 0.45801,-5.89987c0.87337,-0.13198 1.56537,-0.09858 2.26575,-0.23926c1.21097,0.0584 2.58658,0.29922 3.79755,0.35762z" fill="#87d7dc"/><path d="M1269.71784,402.87192c1.95863,2.53282 2.68949,5.35495 3.24737,8.16877c0.13946,0.70346 0.08916,1.74629 -0.11736,2.43302c-1.62706,4.97267 -2.56212,9.97869 -3.3242,14.99306c-0.00838,0.17368 -0.19814,0.51274 -0.37951,0.67842c-0.71711,0.48769 -1.5821,0.44595 -2.42197,-0.11684c0.01677,-0.34771 -0.13946,-0.70346 -0.12269,-1.05118c0.37418,-4.16227 0.22935,-8.34924 -0.78885,-12.40458c-0.41841,-2.11035 -0.3262,-4.02198 0.63938,-6.0652c1.14695,-2.20928 1.77494,-4.44323 3.26787,-6.63547z" fill="#cce5e6"/><path d="M1258.07228,428.61111c-1.06313,0.471 -1.74674,0.26392 -2.24056,-0.28252c0.05636,-8.35759 0.05636,-8.35759 -2.35955,-15.7895c0.48852,-2.93776 1.842,-5.83346 2.84108,-8.57215c1.22773,-0.28896 1.35046,0.76187 1.6713,1.29996c1.11876,1.97003 2.24593,3.76603 3.01033,5.89308c0.45194,1.41524 0.56625,2.6401 0.15321,4.01363c-1.24755,4.29425 -2.33045,8.77053 -3.07576,13.4375z" fill="#cce5e6"/><path d="M1272.81483,662.19716c-0.70038,0.14067 -1.39238,0.10728 -2.26575,0.23926c-0.9572,1.86988 -0.88477,3.9632 -0.45801,5.89987c0.27057,1.58057 0.20351,2.9708 0.30105,4.54303c0.17836,3.4922 0.52133,7.16643 0.87264,10.66698c-0.01677,0.34771 0.13108,0.87715 0.11431,1.22486c-0.29873,2.59839 0.28429,4.89074 0.51294,7.34015c-1.36723,-0.41415 -2.56143,-0.82027 -3.89513,-1.9295c-0.28429,-4.89074 -0.90617,-9.9719 -1.00909,-15.02798c-0.28429,-4.89074 -1.26057,-9.81488 -1.00909,-15.02798c2.75957,0.30722 4.80203,1.10244 6.83607,2.07138z" fill="#60adb2"/><path d="M1299.79977,447.86748c0.70038,-0.14067 1.22777,-0.28931 1.92811,-0.42964c0.32925,0.36406 0.49382,0.54644 0.65847,0.72847c0.54949,2.98747 1.62637,5.82629 2.8762,8.67347c0.46033,1.24121 0.58302,2.29239 0.00533,3.48385c-0.98235,2.39097 -1.62706,4.97267 -3.9766,6.94914c-1.96701,-2.35914 -3.04386,-5.19796 -3.94775,-8.02809c-0.14784,-0.52974 0.06706,-1.39019 0.27358,-2.07696c0.6699,-3.10309 1.33976,-6.20587 2.18261,-9.30027z" fill="#cce5e6"/><path d="M1304.34246,404.01946c0.60817,1.7713 1.07688,2.83883 1.53717,4.08038c0.75601,2.30073 0.82844,4.39439 -0.32689,6.77701c-1.75814,4.09552 -3.00569,8.38977 -3.21526,12.73407c-0.06706,1.39019 -0.24844,1.55556 -2.31601,1.28174c0.02515,-0.5214 -0.12273,-1.05083 -0.09755,-1.57223c0.38256,-4.33595 0.06474,-8.53162 -0.77208,-12.75229c-0.12273,-1.05083 -0.2538,-1.92798 0.13412,-2.78042c1.5097,-2.53961 2.67342,-5.09626 5.05649,-7.76819z" fill="#cae2e3"/><path d="M1278.47759,429.76949c-0.16461,-0.18203 -0.32083,-0.53809 -0.31245,-0.71178c0.53879,-3.98024 0.03121,-7.8365 -0.65774,-11.52743c-0.52434,-3.5089 -0.36507,-6.81072 1.52415,-10.02874c0.94043,-1.52217 1.20563,-3.42545 2.48367,-4.75724c2.59191,3.78272 3.08276,7.98673 1.68737,11.7512c-1.6103,4.62526 -3.38523,9.06815 -3.45531,14.11592c-0.19814,0.51308 -0.23167,1.20816 -1.26965,1.15811z" fill="#c9e1e2"/><path d="M1292.22425,403.60936c1.59589,2.86352 2.17049,5.32994 2.73678,7.96969c0.13108,0.87749 0.08916,1.74629 -0.29035,2.42467c-1.79167,4.79063 -3.24574,9.77161 -4.35383,14.76929c-0.01677,0.34737 -0.2149,0.86045 -1.07151,0.64503c0.05868,-1.21651 0.12574,-2.60674 0.01143,-3.8316c-0.00533,-3.48385 -0.18373,-6.97571 -1.06243,-10.32762c-0.57464,-2.46607 -0.29267,-4.71671 1.01889,-6.74362c0.94043,-1.52252 1.87248,-2.87101 3.01105,-4.90588z" fill="#c9e1e2"/><path d="M1310.78242,446.65527c1.07989,-0.81871 1.94488,-0.777 2.80987,-0.73526c0.16461,0.18203 0.32083,0.53809 0.48548,0.72012c0.21189,2.79709 1.12413,5.45353 2.57214,7.78801c0.79793,1.43194 0.90389,2.83013 0.30944,4.36935c-0.78417,1.87789 -1.40377,3.93819 -2.52558,5.62604c-1.82752,-1.65602 -3.94238,-4.54459 -4.22133,-5.95148c-0.30407,-0.88584 0.07545,-1.56422 0.29035,-2.42467c-0.03052,-2.96246 0.81237,-6.05685 0.27965,-9.39207z" fill="#cae3e4"/><path d="M1251.06412,455.27037c1.8641,-2.69698 3.20919,-5.41896 4.38968,-8.32298c1.05474,-0.29731 1.74674,-0.26392 2.58658,0.29922c0.7141,3.16953 0.19208,6.80202 1.0792,9.9799c-0.9572,1.86988 -2.39145,2.84562 -3.66949,4.17741c-0.72553,0.66172 -1.28645,1.50582 -2.5058,1.6211c-1.27502,-2.32574 -0.9679,-5.09782 -1.88014,-7.75461z" fill="#c8e0e1"/><path d="M1279.13765,448.43835c1.5486,0.24878 1.68806,0.95225 1.82752,1.65567c0.56625,2.6401 1.14089,5.10617 1.53416,7.73792c0.13946,0.70346 0.10593,1.39854 -0.27358,2.07696c-1.30318,1.85288 -2.77935,3.69772 -4.42016,5.36021c-0.81469,-1.08422 -0.93738,-2.13536 -1.40609,-3.20289c-1.40609,-3.20289 -1.43658,-6.16569 0.94649,-8.83728c1.10504,-1.34014 1.53488,-3.06139 1.79167,-4.79063z" fill="#cbe4e5"/><path d="M1268.23883,447.91262c0.86499,0.04174 1.38399,0.06675 1.90297,0.0918c0.15622,0.35571 0.49382,0.54644 0.48548,0.72012c0.2538,1.92798 0.33458,3.84792 0.58836,5.77624c0.12273,1.05083 -0.09221,1.91128 -0.6531,2.75538c-1.68269,2.53126 -3.53003,4.88087 -5.89633,7.20506c-1.13556,-1.62232 -1.2331,-3.19454 -1.33065,-4.76715c0.0335,-0.69477 0.06703,-1.38985 0.43819,-1.89458c2.38307,-2.67193 3.58871,-6.09738 4.46509,-9.88689z" fill="#c8e0e1"/><path d="M1264.73648,498.95178c-0.09221,1.91163 -0.3658,3.98859 0.40698,5.94157c0.31245,0.71178 0.09755,1.57223 0.05563,2.44137c-2.94933,0.03183 -5.69213,-0.6231 -8.22842,-1.9648c0.46334,-2.41601 -0.1113,-4.88205 -0.35672,-6.98405c1.25288,-0.8104 2.43874,-0.23091 3.49348,-0.52822c1.56537,-0.09858 3.28696,0.15855 4.62901,1.09409z" fill="#85d5d9"/><path d="M1317.0795,413.1686c-0.99073,2.565 -1.98142,5.12965 -2.80755,7.87668c-0.63637,2.40801 0.6135,5.25519 -2.10717,7.73636c0.28498,-5.90821 -0.67454,-11.17972 -1.63402,-16.45157c0.95716,-1.86954 2.09574,-3.90479 3.90116,-5.38522c0.32925,0.36406 0.49386,0.54609 0.65847,0.72847c0.78116,1.7793 1.38933,3.5506 1.98911,5.49527z" fill="#c6dede"/><path d="M1267.49705,398.58449c-1.35348,2.8957 -2.5172,5.45236 -3.87067,8.34803c-1.3337,-1.10923 -1.78564,-2.52447 -2.6003,-3.60904c-0.80631,-1.25791 -1.96701,-2.35914 -2.41054,-3.94806c0.05868,-1.21651 0.80094,-2.22563 1.37024,-3.24342c0.56927,-1.01744 1.31156,-2.02691 2.22685,-3.02765c2.37168,1.15932 3.65508,3.31138 5.28446,5.48014z" fill="#cae3e3"/><path d="M1246.98371,428.42444c-0.95952,-5.2715 -1.96095,-9.67424 -4.00875,-13.95335c0.80094,-2.22563 1.42892,-4.45958 2.23828,-6.85925c2.18192,1.49869 2.94631,3.62574 4.06507,5.59576c0.15622,0.35571 0.13108,0.87715 0.11431,1.22486c-0.72854,4.31926 -1.45708,8.63855 -2.40891,13.99197z" fill="#cae3e4"/><path d="M1289.22341,465.81988c-1.59585,-2.86387 -2.8541,-5.53698 -1.1295,-8.93742c1.15534,-2.38262 1.45407,-4.98101 1.7528,-7.57937c0.0503,-1.04248 0.92367,-1.17446 1.94488,-0.777c-0.48011,2.76373 0.25914,5.41217 0.99839,8.06027c0.59979,1.94498 0.17836,3.4922 -0.76207,5.01437c-0.75906,1.35684 -1.18049,2.90402 -2.8045,4.21915z" fill="#c8e0e1"/><path d="M1261.14614,487.10878c2.17354,1.67237 1.55394,3.73267 1.28035,5.80963c-0.74226,1.00909 -1.76351,0.61167 -2.63688,0.74361c-2.2406,-0.28217 -4.28302,-1.0774 -6.30868,-2.22037c0.2652,-1.90293 -0.33458,-3.84792 0.61423,-5.5438c0.87337,-0.13232 1.39238,-0.10728 2.08437,-0.07389c1.71321,0.43116 3.42642,0.86201 4.9666,1.28482z" fill="#85d4d9"/><path d="M1272.28107,461.17086c0.91224,2.65679 1.49526,4.94918 2.2513,7.24988c-1.65758,2.01021 -3.46296,3.49064 -5.43299,4.78908c-1.1942,-0.40615 -1.48992,-1.46529 -1.97536,-2.18545c-0.48548,-0.72012 -0.97092,-1.44028 -0.73925,-2.64845c1.48455,-2.01856 3.50488,-4.35944 5.89633,-7.20506z" fill="#c7dfe0"/><path d="M1299.03091,470.99592c-1.2948,1.67916 -2.4166,3.36705 -4.22202,4.84748c-2.00055,-1.66402 -2.76494,-3.79107 -3.86693,-6.10847c1.31156,-2.02691 2.62313,-4.05378 3.94307,-6.25437c1.61262,2.51612 2.71464,4.83355 4.14589,7.51539z" fill="#c8e0e1"/><path d="M1276.06913,393.42456c1.31693,1.45663 2.63386,2.91358 3.40664,4.86691c-1.15534,2.38262 -2.48367,4.75724 -3.82038,7.3052c-0.34598,-0.0167 -0.692,-0.03339 -0.68361,-0.20708c-0.96253,-1.61397 -1.91672,-3.40162 -2.70626,-5.00758c-0.31245,-0.71178 -0.45194,-1.41489 -0.08081,-1.91963c1.13857,-2.03525 1.75814,-4.09552 3.88439,-5.03786z" fill="#c4dcdd"/><path d="M1302.2779,400.0881c-1.49294,2.19224 -2.81288,4.39283 -4.30585,6.58507c-1.35885,-0.58784 -1.29178,-1.97803 -1.76046,-3.0459c-0.46871,-1.06753 -0.75601,-2.30073 -1.21634,-3.54194c0.96558,-2.04357 2.76262,-3.35035 4.23041,-5.02151c1.84429,1.30831 2.45246,3.07926 3.05224,5.02428z" fill="#c8e0e1"/><path d="M1303.91677,470.3608c1.32833,-2.37462 2.47528,-4.58356 3.81203,-7.13186c1.66291,1.47364 2.43569,3.42701 3.92561,4.8923c-0.80932,2.39932 -2.61478,3.8801 -4.0993,5.89831c-1.67968,-1.12593 -3.02176,-2.06148 -3.63831,-3.65875z" fill="#c6ddde"/><path d="M1321.64238,444.39226c1.58747,3.03755 2.29318,6.38112 4.41642,9.09631c-0.61957,2.06026 -1.05776,3.95485 -2.36097,5.80807c-2.01728,-1.31665 -3.15284,-2.93897 -2.68111,-5.52901c0.66986,-3.10275 0.47474,-6.24723 0.62563,-9.37537z" fill="#b9cfd0"/><path d="M1237.41317,425.52444c-1.01283,-0.57149 -0.45194,-1.41524 -0.5914,-2.1187c-0.27057,-1.58057 -0.36812,-3.15318 -1.3558,-4.24572c-1.29178,-1.97838 -1.02658,-3.88131 -0.58001,-5.94992c0.2149,-0.86045 0.60283,-1.7129 1.0075,-2.91237c2.15677,2.01977 3.80292,3.84113 2.95168,7.10924c-0.62795,2.23395 -0.57232,4.67535 -0.85428,6.926c-0.02515,0.5214 -0.0503,1.04248 -0.57769,1.19147z" fill="#c0d8d8"/><path d="M1242.90506,459.05714c-0.78954,-1.60562 -1.0685,-3.01251 -1.00143,-4.40274c0.03353,-0.69511 0.07545,-1.56391 0.44657,-2.06861c1.66593,-2.18389 2.8213,-4.56686 3.9766,-6.94948c1.21097,0.0584 1.00445,0.74517 0.9793,1.2666c-0.08383,1.7376 -0.17604,3.64922 0.08615,5.40348c0.23704,2.27569 -0.35741,3.8149 -2.14607,4.94762c-0.89014,0.47969 -1.43429,0.97608 -2.34116,1.80313z" fill="#c1d9d9"/><path d="M1286.45241,469.34392c-1.13019,1.86154 -2.58125,3.18502 -4.04903,4.85583c-1.85267,-1.13428 -2.27946,-3.07091 -3.242,-4.68488c1.31995,-2.20059 3.29836,-3.67267 5.12054,-5.50085c1.12714,1.79634 1.56232,3.55895 2.17049,5.32994z" fill="#c3dbdc"/><path d="M1286.58775,405.42729c-0.92065,-2.48276 -1.67666,-4.78346 -2.60567,-7.09255c0.76744,-1.53052 1.52647,-2.88736 3.13375,-3.85505c1.48992,1.46529 2.27108,3.24498 3.22523,5.03263c-0.80094,2.22563 -1.93116,4.08717 -3.75331,5.915z" fill="#c3dadb"/><path d="M1270.67008,476.59508c1.80542,-1.48078 3.42947,-2.79591 5.05348,-4.111c1.6713,1.29996 2.45246,3.07961 3.23361,4.85894c-1.28641,1.50548 -2.72909,2.65524 -4.50933,3.61427c-0.50224,-0.37241 -1.16909,-0.9272 -1.49831,-1.29126c-0.81469,-1.08457 -1.29178,-1.97838 -2.27946,-3.07091z" fill="#c4dbdc"/><path d="M1238.26303,443.85389c-0.15927,3.30182 -0.28498,5.90821 -0.41911,8.6886c-0.92367,1.17481 -2.00356,1.99351 -3.58569,2.43981c-0.99606,-0.91885 -0.5914,-2.1187 -0.88712,-3.17784c-0.29568,-1.05952 -0.41841,-2.11035 -0.37646,-2.9795c1.8138,-1.65415 3.26483,-2.97759 5.26838,-4.97111z" fill="#c2d9da"/><path d="M1264.62085,389.91099c0.75906,-1.35684 1.67431,-2.35758 2.74582,-3.0026c1.39234,-0.10693 2.03408,0.96894 2.87388,1.53208c0.83984,0.56314 1.86943,0.78691 2.32976,2.02843c-0.42981,1.7209 -1.71622,3.22638 -3.0194,5.0796c-0.82307,-0.9105 -1.64615,-1.82139 -2.4776,-2.55786c-0.81469,-1.08457 -1.62938,-2.16876 -2.45246,-3.07961z" fill="#c5ddde"/><path d="M1291.89846,478.664c-0.94882,1.69586 -2.35792,2.1505 -3.44623,3.14327c-1.86105,-0.96094 -2.99658,-2.58325 -4.29674,-4.38757c1.27803,-1.33179 2.5561,-2.66358 3.66114,-4.00372c2.01728,1.31665 2.78167,3.4437 4.08184,5.24802z" fill="#c3dbdc"/><path d="M1250.74073,408.0529c-0.66685,-0.55479 -0.99606,-0.9192 -1.32531,-1.28326c-0.65008,-0.90216 -1.29178,-1.97838 -2.10647,-3.0626c1.32833,-2.37462 2.13768,-4.77394 4.13286,-6.59377c1.1942,0.40615 1.6713,1.29996 2.30461,2.54986c-0.8177,2.573 -1.8252,5.48537 -3.00569,8.38977z" fill="#c7dfe0"/><path d="M1261.54083,468.14227c-1.79704,1.30675 -2.91884,2.99464 -4.86372,3.7716c-1.50669,-1.11793 -1.58747,-3.03755 -2.74814,-4.13878c1.66593,-2.18389 3.46296,-3.49064 5.27677,-5.14479c1.65453,1.64736 1.56232,3.55895 2.33513,5.51197z" fill="#c7dee0"/><path d="M1260.11582,497.68396c-1.05474,0.29731 -2.24056,-0.28252 -3.49345,0.52787c0.237,2.27604 0.63865,4.73376 0.35668,6.9844c-0.68361,-0.20708 -1.54022,-0.42247 -2.21545,-0.80357c-1.01283,-0.57149 -1.66291,-1.47364 -1.60423,-2.68984c-0.0724,-2.09366 -0.15321,-4.01363 -0.22561,-6.10729c2.24898,0.10849 3.27858,0.33223 7.18205,2.08843z" fill="#61acb1"/><path d="M1313.43049,402.54215c-1.2948,1.67916 -2.39984,3.0193 -3.86763,4.69014c-0.929,-2.30908 -1.86642,-4.44445 -2.62243,-6.74518c0.93205,-1.34849 1.85568,-2.52291 3.11698,-3.50734c1.65453,1.64736 2.43569,3.42701 3.37307,5.56237z" fill="#c2dada"/><path d="M1243.58566,462.92175c1.2948,-1.67916 2.72909,-2.65524 4.3531,-3.97033c0.57464,2.46642 1.16604,4.58512 1.75744,6.70378c-0.76744,1.53052 -2.00356,1.99351 -3.42943,2.79556c-1.49831,-1.29161 -1.92507,-3.22828 -2.68111,-5.52901z" fill="#c1d9d9"/><path d="M1293.26829,396.344c-1.47316,-1.81269 -2.44407,-3.25298 -3.58801,-4.70158c0.6028,-1.71255 2.04547,-2.86231 3.48811,-4.01207c1.51504,0.94424 2.84873,2.05348 3.80292,3.84113c-0.61957,2.06026 -2.39149,2.84596 -3.70302,4.87252z" fill="#c6dedf"/><path d="M1304.80923,477.0225c-1.28641,1.50548 -2.73747,2.82892 -4.0155,4.16071c-1.5486,-0.24878 -2.55305,-0.99395 -3.53235,-2.26055c0.80094,-2.22563 2.76262,-3.35035 4.0658,-5.20354c1.52345,0.77021 2.32976,2.02843 3.48205,3.30338z" fill="#c0d7d7"/><path d="M1242.93377,404.54093c-0.78421,1.87823 -1.05779,3.95519 -2.69857,5.61769c-0.9793,-1.2666 -1.96701,-2.35914 -2.9547,-3.45167c0.10059,-2.08531 1.04941,-3.78151 2.50043,-5.10495c1.35881,0.58818 2.18192,1.49869 3.15284,2.93897z" fill="#c3dadb"/><path d="M1256.35249,485.83231c-0.692,-0.03339 -1.39238,0.10728 -2.08437,0.07389c-0.94882,1.69586 -0.34903,3.64087 -0.61423,5.5438c-1.21939,0.11563 -1.86105,-0.96059 -3.06367,-1.19268c-0.58302,-2.29239 0.03654,-4.35265 -1.06545,-6.67008c1.73836,-0.09058 2.75119,0.4809 3.93704,1.06074c0.84822,0.38911 2.07596,0.10014 2.89068,1.18433z" fill="#5aa0a4"/><path d="M1331.70601,458.63766c-0.78421,1.87823 -1.05779,3.95519 -2.5172,5.45236c-1.19424,-0.4058 -1.85267,-1.13428 -2.84035,-2.22716c0.43819,-1.89458 1.2224,-3.77282 2.33582,-5.28664c1.19424,0.4058 1.86105,0.96059 3.02176,2.06148z" fill="#bdd3d4"/><path d="M1277.63422,483.20114c1.26127,-0.98408 2.34954,-1.97682 3.43782,-2.96924c1.51507,0.9439 2.49437,2.2105 3.46529,3.65075c-0.58603,1.36518 -1.8138,1.65415 -3.02477,1.59571c-1.55698,-0.0751 -3.11393,-0.1502 -3.87836,-2.27725z" fill="#bdd4d5"/><path d="M1325.20199,413.73451c-0.96558,2.04357 -1.92278,3.91349 -2.88836,5.95706c-1.55394,-3.73267 -2.25965,-7.0762 1.34277,-9.86341c0.99606,0.91885 1.10203,2.3174 1.54555,3.90635z" fill="#bbd2d3"/><path d="M1261.73824,478.42849c-1.35046,-0.76187 -1.99213,-1.83809 -2.63383,-2.91393c0.05868,-1.21651 0.94043,-1.52217 1.66593,-2.18389c0.54415,-0.49639 1.09666,-1.16646 2.14302,-1.29005c1.35046,0.76187 1.26663,2.49946 2.60871,3.43501c-1.11342,1.51382 -2.36634,2.32457 -3.78383,2.95289z" fill="#c3dadb"/><path d="M1282.49004,429.26632c0.49687,-3.11109 0.99374,-6.22253 2.18261,-9.30027c1.0296,0.22377 1.16071,1.10088 1.11879,1.96968c0.06401,2.26769 -0.04496,4.52668 -0.14556,6.61199c-0.07545,1.56391 -1.13019,1.86119 -3.15585,0.7186z" fill="#b1c6c7"/><path d="M1314.65331,477.84554c0.41304,-1.37353 1.47617,-1.84453 2.21008,-2.68028c1.2948,-1.67916 2.86016,-1.77774 4.89421,-0.80884c-1.15534,2.38262 -3.30674,3.84674 -5.10378,5.15314c-1.20259,-0.23209 -1.70483,-0.60453 -2.00055,-1.66402z" fill="#bbd2d3"/><path d="M1305.75551,428.64661c-0.53272,-3.33487 0.82075,-6.23054 2.00962,-9.30862c0.92062,2.48311 0.79491,5.08947 0.85054,7.53088c0.09755,1.57223 -0.43819,1.89458 -2.86016,1.77774z" fill="#bad1d2"/><path d="M1330.68549,447.44124c1.14391,1.44863 2.30461,2.54952 3.44855,3.99815c-0.2149,0.86045 -0.79259,2.05192 -1.19725,3.25177c-3.07206,-1.019 -3.06364,-1.19303 -2.78167,-3.4437c0.05868,-1.21616 0.29035,-2.42433 0.5304,-3.80621z" fill="#b5cbcc"/><path d="M1286.12884,382.58816c1.70483,0.60453 2.70089,1.52373 3.69699,2.44258c-0.59442,1.53887 -2.01194,2.1672 -3.27321,3.15162c-1.16905,-0.92755 -2.16512,-1.8464 -3.33421,-2.77363c0.24844,-1.55556 1.82219,-1.82818 2.91046,-2.82057z" fill="#c0d7d8"/><path d="M1319.47047,460.66023c1.02121,0.3978 1.6713,1.29996 2.313,2.37583c-0.62795,2.23395 -1.93116,4.08717 -3.56356,5.57595c-1.21935,0.11528 -1.54022,-0.42247 -1.84432,-1.30796c0.97396,-2.21763 1.94793,-4.43488 3.09488,-6.64382z" fill="#bdd4d4"/><path d="M1315.64895,399.68818c-0.96253,-1.61431 -1.74369,-3.39362 -2.70626,-5.00758c0.73391,-0.83541 1.61566,-1.14141 2.65364,-1.09136c1.02121,0.3978 1.32531,1.28326 1.80237,2.1771c0.31245,0.71178 0.62493,1.42359 0.93738,2.13536c-0.56927,1.01744 -1.2948,1.67916 -2.68717,1.78644z" fill="#b6cccc"/><path d="M1281.73615,394.56871c-1.14391,-1.44863 -2.12324,-2.7152 -3.44014,-4.17218c0.22329,-1.03413 0.79259,-2.05192 2.37469,-2.4979c1.16909,0.9272 2.32976,2.02808 3.66346,3.1377c-0.75906,1.35684 -1.33671,2.54796 -2.59798,3.53238z" fill="#c1d9d9"/><path d="M1322.30902,405.40875c-0.75906,1.35684 -1.50132,2.36593 -2.75424,3.17667c-1.14391,-1.44863 -1.40609,-3.20324 -1.858,-4.61847c0.41304,-1.37353 1.46779,-1.67081 2.35792,-2.1505c0.51062,0.19873 0.8566,0.21542 0.84822,0.38945c0.46871,1.06753 0.93738,2.13536 1.40609,3.20289z" fill="#b7cdce"/><path d="M1330.75698,420.79556c-1.29178,-1.97838 -1.21634,-3.54229 -1.48687,-5.12286c-0.43514,-1.76295 0.63637,-2.40801 1.88925,-3.21837c1.14391,1.44863 1.41448,3.02921 2.03941,4.45279c-0.42984,1.72125 -2.18493,2.15885 -2.44175,3.88844z" fill="#b6cccc"/><path d="M1325.03918,471.03111c-1.56537,0.09858 -2.60335,0.04853 -3.7724,-0.8787c1.11342,-1.51382 2.05386,-3.036 2.98591,-4.38448c1.58213,-0.4463 2.2238,0.62989 3.25343,0.85366c-0.01677,0.34737 0.13946,0.70346 -0.04191,0.8688c-0.93205,1.34849 -1.67431,2.35758 -2.42499,3.54073z" fill="#c2dada"/><path d="M1276.98209,385.28202c-0.57769,1.19147 -1.12181,1.68785 -2.00356,1.99351c-1.04636,0.12363 -1.70483,-0.60488 -2.54467,-1.16767c-0.66685,-0.55479 -1.86943,-0.78691 -1.98375,-2.01177c0.91528,-1.00109 1.99518,-1.81983 3.56893,-2.0921c1.16071,1.10088 1.97536,2.18545 2.96308,3.27799z" fill="#bbd2d3"/><path d="M1247.65606,472.00137c1.25292,-0.81074 2.15144,-1.46412 3.22291,-2.10879c1.15232,1.2746 1.77726,2.69815 2.57518,4.13009c-0.74229,1.00944 -1.64081,1.66284 -2.85178,1.60441c-0.3376,-0.19073 -0.67523,-0.38111 -0.83146,-0.73682c-0.65847,-0.72847 -1.30851,-1.63101 -2.11486,-2.88888z" fill="#bbd2d3"/><path d="M1335.36479,447.49286c-1.98375,-2.01177 -1.98375,-2.01177 -2.70626,-5.00758c0.93205,-1.34849 2.32439,-1.45542 3.90653,-1.90172c0.40165,2.45772 -0.57232,4.67535 -1.20027,6.9093z" fill="#adc2c3"/><path d="M1264.56186,481.00305c0.74226,-1.00909 1.8138,-1.65415 3.03315,-1.76974c1.15229,1.27491 2.13997,2.36783 3.1193,3.63408c-3.02477,1.59606 -3.1978,1.58771 -6.15246,-1.86431z" fill="#b5cbcc"/><path d="M1307.96771,393.56977c-0.92367,1.17446 -1.65754,2.00986 -2.91046,2.82057c-1.34205,-0.9359 -1.78561,-2.52482 -2.75652,-3.9651c0.37113,-0.50439 0.73391,-0.83541 1.09666,-1.16611c0.36278,-0.33105 0.89014,-0.47969 1.42591,-0.80239c1.53184,0.59653 2.34649,1.68106 3.14445,3.113z" fill="#bbd1d2"/><path d="M1237.6702,463.33314c-1.6713,-1.29961 -1.74373,-3.39327 -2.54165,-4.8252c0.75068,-1.18315 1.97003,-1.2984 3.04154,-1.94346c1.11879,1.96968 1.38095,3.72432 0.76976,5.6109c-0.02515,0.52108 -0.73391,0.83541 -1.26965,1.15776z" fill="#b6cccd"/><path d="M1248.79959,394.37341c-1.31995,2.20059 -2.8045,4.21915 -4.1161,6.24602c-1.20259,-0.23243 -1.86943,-0.78691 -2.50275,-2.03678c1.82219,-1.82818 3.64434,-3.65601 5.96038,-4.93771c0.32925,0.36406 0.49386,0.54609 0.65847,0.72847z" fill="#acc1c2"/><path d="M1296.22994,421.22025c0.41003,2.28404 0.64707,4.55973 0.19208,6.80202c-0.2149,0.86045 -0.76744,1.53052 -1.63243,1.48878c-0.34598,-0.0167 -1.02121,-0.39746 -1.01286,-0.57114c-0.04725,-2.61505 1.28946,-5.16339 2.45318,-7.7197z" fill="#a7bbbb"/><path d="M1302.55217,387.21218c-0.39631,1.02613 -1.28641,1.50548 -2.34954,1.97682c-1.16071,-1.10088 -2.32138,-2.20215 -3.48209,-3.30303c0.75906,-1.35684 1.80542,-1.48078 3.01642,-1.42237c1.01283,0.57149 2.00051,1.66437 2.8152,2.74859z" fill="#b7cdcd"/><path d="M1290.72331,485.05187c0.94882,-1.6962 2.2017,-2.5066 3.62761,-3.30861c1.35881,0.58818 2.36329,1.33335 2.97984,2.93062c-2.12625,0.94234 -4.19383,0.66851 -6.60742,0.37799z" fill="#b7cece"/><path d="M1228.73676,447.22617c-1.11041,-2.14337 -0.30944,-4.36935 -1.0906,-6.14865c0.74226,-1.00909 1.42587,-0.80205 1.74674,-0.26392c0.79796,1.43159 1.41448,3.02921 1.33065,4.7668c-0.19814,0.51308 -0.20652,0.68677 -1.98679,1.6458z" fill="#b4cacb"/><path d="M1255.66081,395.92337c-1.01286,-0.57114 -1.50669,-1.11758 -1.81079,-2.00307c1.2948,-1.67951 2.59798,-3.53238 5.08701,-4.80577c0.03052,2.96246 -1.6103,4.62492 -3.27622,6.80881z" fill="#b2c8c9"/><path d="M1255.37926,477.2506c1.16905,0.92755 2.00051,1.66437 2.29623,2.72355c-0.20652,0.68677 -0.73391,0.83541 -1.2613,0.98443c-2.10949,0.59462 -2.9158,-0.66328 -3.69696,-2.44293c0.88175,-0.30566 1.77189,-0.78535 2.66203,-1.26504z" fill="#b5cbcb"/><path d="M1317.43016,427.4681c-0.06401,-2.26734 0.0282,-4.17897 0.64776,-6.23923c0.87337,-0.13198 1.1942,0.40615 1.16905,0.92755c0.11435,1.22451 0.40165,2.45772 0.51596,3.68258c-0.06706,1.39019 -0.77579,1.7042 -2.33278,1.6291z" fill="#91a3a3"/><path d="M1251.85883,420.82158c1.11041,2.14371 0.82844,4.39439 0.72785,6.4797c-0.01677,0.34771 -0.37951,0.67842 -0.73391,0.83541c-0.34598,-0.0167 -0.84822,-0.38911 -0.83984,-0.56279c-0.40165,-2.45807 0.05335,-4.70036 0.8459,-6.75231z" fill="#99abac"/><path d="M1243.26995,426.32922c-1.2445,0.63668 -2.10949,0.59497 -2.41359,-0.29052c-0.28734,-1.23286 0.14251,-2.95411 0.94345,-5.17971c1.12718,1.796 1.03496,3.70762 1.47014,5.47023z" fill="#93a5a6"/><path d="M1307.60465,483.77602c1.4762,-1.84488 2.78777,-3.87175 5.83464,-2.33135c-1.48455,2.01856 -3.73353,1.91007 -5.83464,2.33135z" fill="#9aadad"/><path d="M1306.70824,452.03253c-0.45194,-1.41524 -0.89547,-3.00416 -1.3558,-4.24572c0.56089,-0.84375 1.08828,-0.99243 2.11787,-0.76865c0.78954,1.60562 0.01372,3.31017 0.1113,4.88239c-0.34598,-0.0167 -0.51901,-0.02504 -0.87337,0.13198z" fill="#c5dddd"/><path d="M1273.79593,422.57646c1.44801,2.33409 1.33903,4.59308 0.53806,6.81907c-0.00838,0.17368 -0.36275,0.33071 -0.70876,0.31401c-0.52735,0.14864 -0.84822,-0.38911 -0.83146,-0.73682c-0.08078,-1.91997 0.53879,-3.97989 1.00213,-6.39625z" fill="#aec2c3"/><path d="M1240.51059,465.56029c1.14391,1.44863 1.57908,3.21158 2.02265,4.80051c-0.56089,0.84375 -1.2445,0.63668 -1.55698,-0.0751c-0.63332,-1.2499 -1.27502,-2.32574 -1.72696,-3.74098c-0.32922,-0.36441 0.2149,-0.8608 1.2613,-0.98443z" fill="#9caeaf"/><path d="M1293.55933,383.12068c-1.53184,-0.59653 -2.53628,-1.3417 -3.69699,-2.44258c2.28248,-0.58662 4.16033,0.0266 6.23629,0.12671c-0.19814,0.51274 -0.2149,0.86045 -0.39628,1.02579c-0.71715,0.48804 -1.42587,0.80205 -2.14302,1.29005z" fill="#a9bebf"/><path d="M1262.01092,447.61222c1.22777,-0.28931 1.91135,-0.08189 2.5782,0.47255c0.08916,1.74629 -0.50525,3.28512 -2.31906,4.93927c-0.24542,-2.10201 -0.16998,-3.66588 -0.25914,-5.41183z" fill="#b9cfd0"/><path d="M1316.54162,445.88817c0.56089,-0.84375 1.2613,-0.98443 1.96165,-1.12472c0.84822,0.38945 0.80631,1.25825 0.08615,5.40383c-2.02566,-1.14297 -1.41448,-3.02955 -2.04779,-4.27911z" fill="#869797"/><path d="M1263.39935,422.42349c-0.6531,2.75538 0.78653,5.26315 -1.73604,7.23166c-0.56625,-2.6401 -0.29267,-4.71706 1.73604,-7.23166z" fill="#93a4a5"/><path d="M1326.83674,419.38711c-0.12574,2.60674 -0.20957,4.3443 -0.2934,6.08224c-0.01677,0.34737 -0.37951,0.67842 -0.89852,0.65337c-0.17299,-0.00835 -0.51059,-0.19907 -0.67523,-0.38111c-0.24542,-2.10201 -0.15321,-4.01328 1.86711,-6.35451z" fill="#94a5a6"/><path d="M1324.97122,443.68201c1.07151,-0.64503 1.5989,-0.7937 2.43036,-0.05688c0.10593,1.39854 0.20351,2.9708 -0.39929,4.68336c-1.6713,-1.29961 -1.58747,-3.03755 -2.03103,-4.62648z" fill="#abbfc0"/><path d="M1329.7365,409.5988c-0.88175,0.30601 -1.23612,0.46299 -1.58213,0.4463c-1.78564,-2.52447 -1.78564,-2.52447 -1.14928,-4.93248c1.67968,1.12627 1.59585,2.86387 2.73141,4.48619z" fill="#acc0c1"/><path d="M1310.25597,475.54328c1.10504,-1.34014 2.04547,-2.86231 3.3235,-4.1941c0.54412,-0.49604 1.23612,-0.46265 1.70483,0.60488c-1.2948,1.67916 -2.58125,3.18502 -5.02833,3.58923z" fill="#9fb2b2"/><path d="M1310.67165,391.43562c-0.83146,-0.73682 -1.32531,-1.28292 -1.62942,-2.16841c0.37951,-0.67842 0.91528,-1.00109 1.78865,-1.13306c1.0296,0.22377 1.67968,1.12593 2.32976,2.02808c-0.39631,1.02613 -1.44267,1.14976 -2.48903,1.27339z" fill="#aec2c3"/><path d="M1285.70852,452.41301c-1.34208,-0.93555 -1.2834,-2.15206 -1.39771,-3.37692c0.02515,-0.52108 0.56089,-0.84375 1.07989,-0.81871c0.34598,0.0167 0.84822,0.38945 0.83146,0.73682c0.46871,1.06753 0.0724,2.09366 -0.51364,3.45884z" fill="#91a2a3"/><path d="M1281.89611,380.46794c-2.04547,2.86231 -2.22685,3.02765 -4.35847,0.48648c1.40073,-0.28062 2.65364,-1.09136 4.35847,-0.48648z" fill="#869696"/><path d="M1233.59048,425.68821c-1.48992,-1.46529 -0.92065,-2.48276 -0.68895,-3.69093c1.51507,0.9439 1.51507,0.9439 0.68895,3.69093z" fill="#555f5f"/><path d="M1296.48766,448.22999c-0.04191,0.86914 -0.10059,2.08531 -0.67825,3.27678c-1.48154,-1.63901 -1.44801,-2.33409 -0.69733,-3.51724c0.18976,-0.33902 0.70876,-0.31401 1.37561,0.24043z" fill="#93a5a6"/><path d="M1334.03556,421.12779c1.62938,2.16876 1.43963,2.50812 -1.35348,2.8957c-0.28734,-1.23286 0.44657,-2.06861 1.35348,-2.8957z" fill="#8b9b9c"/><path d="M1230.2509,419.43107c0.43518,1.76261 0.19513,3.14449 -0.04493,4.52633c-1.06313,0.47134 -1.56537,0.09858 -1.53184,-0.59653c0.06706,-1.39019 0.30712,-2.77208 1.57676,-3.92984z" fill="#9aacad"/><path d="M1323.96961,399.74101c0.99606,0.91885 2.00889,1.49034 1.76884,2.87222c-0.00838,0.17368 -0.18976,0.33902 -0.36275,0.33071c-1.54022,-0.42247 -1.83594,-1.48164 -1.40609,-3.20289z" fill="#5f6a6b"/><path d="M1274.18476,450.46369c-0.48548,-0.72012 -0.45194,-1.41524 -0.24542,-2.10201c0.18976,-0.33902 0.55254,-0.67007 0.89014,-0.47969c0.3376,0.19073 0.66685,0.55479 0.65005,0.9025c-0.0335,0.69477 -0.24005,1.3815 -1.2948,1.67916z" fill="#636e6f"/><path d="M1304.74549,384.87961c1.23612,-0.46299 2.09276,-0.24757 2.71766,1.17598c-1.41749,0.62833 -2.08434,0.07354 -2.71766,-1.17598z" fill="#4a5354"/></g></g></g></svg>