<svg version="1.1" xmlns="http://www.w3.org/2000/svg" xmlns:xlink="http://www.w3.org/1999/xlink" width="111.58607" height="59.3721" viewBox="0,0,111.58607,59.3721"><defs><linearGradient x1="1120.1248" y1="1113.59449" x2="1120.1248" y2="1171.80753" gradientUnits="userSpaceOnUse" id="color-1"><stop offset="0" stop-color="#ee2a7b"/><stop offset="1" stop-color="#811150"/></linearGradient></defs><g transform="translate(-1252.40014,-503.97502)"><g data-paper-data="{&quot;isPaintingLayer&quot;:true}" fill="url(#color-1)" fill-rule="nonzero" stroke="#ffffff" stroke-width="1.15823" stroke-linecap="butt" stroke-linejoin="miter" stroke-miterlimit="10" stroke-dasharray="" stroke-dashoffset="0" style="mix-blend-mode: normal"><path d="M1286.49411,551.90392c2.48574,2.48329 2.48574,6.51369 0,8.99891c-2.48458,2.4869 -6.51381,2.4869 -9.00071,0c-9.81202,-9.81215 -22.65032,-22.65097 -22.65032,-22.65097c-2.4851,-2.48458 -2.4851,-6.51433 0,-9.00007c0,0 14.87682,-14.8785 22.83308,-22.83359c2.4851,-2.48574 6.51381,-2.4851 9.00071,0c2.48562,2.4851 2.48562,6.51433 0,9.00007c-9.81216,9.81151 -11.93908,11.96396 -11.93908,11.96396c0,0 71.52878,0.25033 82.77926,0.25033c3.51512,0 5.89006,2.84881 5.89006,6.36393c0,3.51447 -2.61213,5.65287 -6.12725,5.65287c-13.41917,0 -82.57661,0.46188 -82.57661,0.46188c0,0 3.83449,3.83398 11.79087,11.79268z"/></g></g></svg>