<svg version="1.1" xmlns="http://www.w3.org/2000/svg" xmlns:xlink="http://www.w3.org/1999/xlink" width="129.78841" height="165.57991" viewBox="0,0,129.78841,165.57991"><g transform="translate(-1247,-416.71009)"><g data-paper-data="{&quot;isPaintingLayer&quot;:true}" fill-rule="nonzero" stroke="none" stroke-width="1" stroke-linecap="butt" stroke-linejoin="miter" stroke-miterlimit="10" stroke-dasharray="" stroke-dashoffset="0" style="mix-blend-mode: normal"><path d="M1376.78841,523.86852c0,8.30944 -1.53224,15.83312 -4.55743,22.43353c-0.96256,2.55373 -2.35729,5.18604 -4.26276,8.15229c-0.86434,1.3358 -1.88583,2.57337 -3.02519,3.69309c-15.89206,15.57775 -37.59876,23.7104 -64.53079,24.14257h-0.35359c-5.42176,0 -11.00068,-1.29651 -16.59924,-3.86988c-0.33395,-0.13751 -0.64825,-0.29466 -0.96256,-0.47146c-4.93066,-2.55373 -10.05777,-6.38432 -15.69562,-11.68822c-7.4451,-6.91471 -11.7668,-13.02402 -13.71156,-19.50657c-0.25537,-0.60897 -0.58932,-1.39473 -1.00185,-2.318c-0.80541,-1.86619 -1.35544,-3.83059 -1.61081,-5.85393c-0.35359,-0.80541 -0.64825,-1.63046 -0.90363,-2.4948c-0.78576,-2.75017 -1.17864,-5.69678 -1.17864,-8.76126c0,-8.34873 2.76981,-16.8939 8.27016,-25.41943c1.70903,-2.67159 3.51629,-4.95031 5.36283,-6.87543c-1.80725,-1.37509 -3.45736,-2.9859 -4.93066,-4.83244c-0.39288,-0.47146 -0.74647,-0.9822 -1.10007,-1.49295c-3.55558,-5.34319 -4.26276,-11.0989 -4.45921,-14.96879c-0.01964,-0.15715 -0.01964,-0.33395 -0.03929,-0.4911c-0.05893,-0.74647 -0.39288,-3.59487 -1.86619,-12.76865c-0.53039,-1.29651 -0.92327,-2.63231 -1.19829,-4.02704c-0.37324,-1.98405 -0.64825,-3.35914 -0.80541,-4.08597c-0.41253,-1.66975 -0.62861,-3.41807 -0.62861,-5.20568c0,-6.48254 2.16085,-12.41506 6.24682,-17.16892c0.35359,-0.43217 0.72683,-0.82505 1.11971,-1.21793c5.99144,-5.99144 14.14373,-9.17378 24.22115,-9.42916c0.19644,-0.01964 0.37324,-0.01964 0.56968,-0.01964c2.318,0 8.32909,-0.07858 23.76933,-0.51075h0.58932c0.68754,0 4.16454,-0.07858 20.25304,-1.11971c1.68939,-0.21608 3.41807,-0.43217 5.18604,-0.62861c1.92512,-0.23573 3.69309,-0.35359 5.38248,-0.35359c5.32354,0 9.88097,1.159 13.90801,3.51629c4.83244,2.86804 8.56482,7.03258 10.86317,12.06146c4.36098,9.48809 2.96626,20.0566 -3.75202,28.32676c-0.94292,1.159 -2.0037,2.21978 -3.1627,3.1627c-1.49295,2.20014 -3.3002,4.71458 -5.4807,7.56297c13.39726,7.48439 20.68521,17.62074 24.63367,26.75523c0.74647,1.19829 1.41437,2.4948 2.02334,3.88953c0.58932,1.31615 1.04114,2.71088 1.35544,4.12526c1.37509,6.22717 2.06263,12.19897 2.06263,17.75824zM1249.21978,456.68578c-0.56968,-1.159 -1.04114,-2.37693 -1.41437,-3.6538c0.35359,1.27686 0.82505,2.4948 1.37509,3.6538z" fill="#00cccc"/><path d="M1353.62411,510.74431c1.03721,4.7244 1.55581,9.1011 1.55581,13.13206c0,5.52784 -0.98024,10.25421 -2.93679,14.16927c-0.34574,1.15311 -1.15311,2.70892 -2.41819,4.66547c-11.86699,11.63322 -28.45248,17.62466 -49.76434,17.9704c-2.30621,0 -4.83834,-0.6345 -7.60226,-1.90155c-3.10966,-1.61474 -6.73988,-4.37866 -10.88478,-8.29569c-4.7244,-4.3767 -7.37439,-7.88906 -7.94996,-10.53905c-0.34574,-0.92131 -0.92327,-2.30425 -1.72671,-4.14686c0,-0.22984 -0.40467,-2.76392 -1.21008,-7.60226c-0.2318,0.34574 -0.34574,0.98024 -0.34574,1.90155c-0.2318,-0.80541 -0.34574,-1.72868 -0.34574,-2.76392c0,-4.14686 1.61081,-8.7259 4.83834,-13.7371c3.22359,-5.0112 6.73988,-7.51582 10.53905,-7.51582c1.84261,0 3.63023,0.69344 5.35694,2.08227c0.45967,0.3477 0.69344,1.10007 0.69344,2.25318c0,0.4636 -0.2043,1.07257 -0.60504,1.82297c-0.40663,0.7504 -0.66593,1.35741 -0.77791,1.81904c-1.61278,1.38884 -3.22752,2.77571 -4.83834,4.16454c-2.30621,2.19621 -3.57129,4.04668 -3.80113,5.54945c-0.2318,0.92524 -0.3477,1.90744 -0.3477,2.94858c0,5.78322 2.59302,11.47803 7.77709,17.08445c5.18407,5.60642 10.65298,8.40963 16.41459,8.40963c1.03524,0 2.12942,-0.1159 3.28253,-0.34574c1.95655,-0.11786 4.83834,-0.34966 8.6375,-0.6954c4.4926,-1.03917 9.09914,-2.76589 13.82354,-5.19193c5.75964,-2.99965 9.33094,-6.20163 10.71191,-9.60792c1.38294,-3.40039 2.07441,-7.12491 2.07441,-11.16373c0,-3.92096 -0.69147,-7.55511 -2.07441,-10.90246c-0.34574,-0.92524 -0.86237,-2.25121 -1.55385,-3.98185c-4.61046,-6.92257 -9.7356,-11.2482 -15.37738,-12.98081c-1.38294,-0.45771 -4.26473,-0.74844 -8.63946,-0.86237c-4.37866,-0.11786 -7.54725,-0.28877 -9.5038,-0.52253c-3.80113,-0.45771 -6.85382,-1.43991 -9.15807,-2.94268c-0.69147,-0.80344 -1.03524,-1.78368 -1.03524,-2.93875c0,-2.76981 1.14918,-4.84816 3.45539,-6.23307c1.84261,-1.15311 5.24104,-5.76946 10.19528,-13.84711c3.33753,-4.73029 8.17586,-11.76877 14.51501,-21.11542c-14.16927,0 -28.22461,0.86237 -42.16208,2.59105c0,1.72868 0.4027,4.89727 1.21008,9.5038c1.03524,6.10538 1.61081,9.7356 1.72671,10.88675c0.11394,1.38098 -0.45967,2.79339 -1.72671,4.23133c-1.26901,1.44188 -2.88179,2.33372 -4.83834,2.67749c-1.84458,0.3477 -3.45736,-0.34574 -4.83834,-2.07245c-0.46164,-0.69344 -0.75237,-2.07441 -0.86434,-4.14686c0,-1.72868 -0.92327,-8.17783 -2.76392,-19.35334c-0.1159,-0.22984 -0.34574,-0.5186 -0.69147,-0.86434c-0.69344,-3.56736 -1.03721,-5.29604 -1.03721,-5.18407c0,-1.26704 0.34574,-2.30229 1.03721,-3.10966c1.95655,-1.95655 5.12317,-2.99376 9.5038,-3.10966c3.56736,0 11.69019,-0.17287 24.36258,-0.52057c2.41819,0 9.84954,-0.40074 22.29013,-1.20811c1.84261,-0.22984 3.7422,-0.45771 5.70071,-0.69147c2.87786,-0.34574 4.80887,-0.22984 5.78911,0.34574c0.97631,0.57754 1.69725,1.38098 2.15888,2.41819c0.92131,1.96048 0.63254,3.86006 -0.86237,5.70071c-0.80737,0.46164 -1.78761,1.32598 -2.93679,2.59105c-1.49884,2.41819 -3.77559,5.61624 -6.82632,9.59024c-3.05269,3.974 -5.27051,7.11508 -6.65148,9.41737c-1.84458,3.22752 -4.66547,8.06389 -8.46856,14.51501c20.61842,3.10966 33.46172,11.57822 38.53185,25.40175c0.45967,0.46556 0.92327,1.214 1.38294,2.25121z" fill="#ffffff"/></g></g></svg>