<svg version="1.1" xmlns="http://www.w3.org/2000/svg" xmlns:xlink="http://www.w3.org/1999/xlink" width="122.06494" height="323.79489" viewBox="0,0,122.06494,323.79489"><g transform="translate(-1219.81645,-374.38146)"><g data-paper-data="{&quot;isPaintingLayer&quot;:true}" fill-rule="nonzero" stroke="none" stroke-width="1" stroke-linecap="butt" stroke-linejoin="miter" stroke-miterlimit="10" stroke-dasharray="" stroke-dashoffset="0" style="mix-blend-mode: normal"><path d="M1246.45179,492.06396c-1.89081,-0.63657 -2.33302,-2.06471 -2.58008,-3.83199c-0.18569,-2.81536 0.15267,-5.60004 0.14166,-8.40517c-0.49336,-0.55473 -0.98671,-1.10947 -1.4903,-1.48952c-10.35969,-8.66959 -15.64417,-20.19701 -19.11022,-32.84491c-0.71996,-2.67137 -1.61461,-5.35297 -1.45093,-8.14788c0.03069,-0.52404 -0.10307,-1.233 -0.43198,-1.60282c-1.80897,-2.03402 -1.67599,-4.30488 -1.70745,-6.76065c-0.05193,-2.10641 0.24551,-4.19236 0.36827,-6.28853c0.07161,-1.22277 0.49258,-2.42508 1.59181,-3.23711c1.09924,-0.81203 1.70512,-2.17879 2.30077,-3.37088c2.7005,-7.20364 6.59309,-13.81163 11.50307,-19.83419c2.82481,-3.34019 6.13276,-5.95096 9.61538,-8.5515c10.26296,-7.63717 21.89346,-11.68865 34.4186,-13.05853c5.64096,-0.54606 11.40545,-0.20848 17.12902,0.82782c4.33635,0.77978 8.25173,2.76188 11.9822,4.90843c11.86967,6.82993 20.2158,16.95912 25.79849,29.38041c1.08979,2.34247 1.63507,5.00361 2.18035,7.66475c0.42175,1.7775 1.02841,3.39056 2.71385,4.54094c1.52099,0.96547 2.12765,2.57853 2.37471,4.3458c0.18569,2.81536 0.02202,5.61027 -0.14166,8.40517c-0.05115,0.87341 -0.44143,1.55167 -0.83171,2.22994c-1.71535,2.35347 -2.39284,4.94301 -2.73119,7.72768c-0.52249,5.92894 -2.77133,11.40623 -4.8455,16.89374c-0.82148,2.05526 -1.81764,4.10029 -3.15294,5.95018c-4.21126,6.06348 -8.57674,11.76737 -14.45298,16.33111c-0.15344,2.62022 -0.4918,5.4049 -0.65547,8.1998c-0.06138,1.04809 -0.13298,2.27086 -1.22199,2.90821c-0.91433,0.64758 -0.80102,1.7059 -0.8624,2.75399c-0.58387,6.97703 -0.99305,13.96429 -1.57692,20.94132c-1.08512,15.53643 -2.18046,31.24753 -3.61494,46.7635c-1.41402,15.1666 -2.304,30.3639 -3.36865,45.55096c-0.14321,2.44554 -0.62556,4.69594 -0.76878,7.14148c-0.69561,11.87834 -1.39123,23.75669 -2.26152,35.6248c-0.12276,2.09618 0.10385,4.21282 -1.05676,6.07293c-0.39028,0.67827 -0.26675,1.5619 -0.3179,2.43531c-0.51148,8.73408 -1.20787,17.6326 -1.71935,26.36668c-0.02046,0.34936 -0.05115,0.87341 -0.07161,1.22277c0.01101,2.80513 -1.2936,4.13098 -3.81075,5.21053c-8.44531,3.53688 -17.06608,4.08372 -25.86232,1.64051c-2.24017,-0.65703 -4.45988,-1.66342 -6.48445,-3.00895c-1.52099,-0.96547 -2.13787,-2.40384 -2.21026,-4.16089c-0.21716,-5.27113 -0.60899,-10.5525 -0.81592,-15.99831c-0.12431,-3.86345 0.11097,-7.88113 -0.53739,-11.77527c-1.43048,-8.49724 -0.75454,-17.0464 -1.66097,-25.51295c-0.42253,-4.75732 -1.20465,-9.36042 -1.45249,-14.10751c-0.22739,-5.09645 -0.81436,-10.03868 -1.22666,-14.97068c-0.70106,-8.98036 -1.04253,-18.11495 -1.91827,-27.10555c-1.41079,-11.82642 -2.12286,-23.61192 -2.83493,-35.39741c-0.28876,-4.04836 -0.57753,-8.09673 -0.86629,-12.14509c-0.33046,-6.32945 -0.65069,-12.83359 -0.98115,-19.16304c-0.14477,-3.51409 -0.64913,-6.87396 -0.79391,-10.38805c-0.30922,-3.699 -0.11486,-7.01795 -0.23917,-10.8814zM1250.96204,489.87416c2.0348,1.17084 4.09006,1.99233 6.35069,2.29999c4.44965,1.8381 9.14559,2.46367 13.84154,3.08923c5.90848,0.87185 12.03257,1.05521 17.98197,1.22833c6.82281,0.22427 13.22387,-1.32896 19.80984,-3.04664c0.71919,-0.30844 1.43837,-0.61689 2.51715,-1.07956c0.08184,-1.39745 0.16367,-2.7949 0.24551,-4.19236c0.02046,-0.34936 -0.13376,-0.70896 -0.27776,-1.24323c-1.22277,-0.07161 -2.45577,0.03147 -3.699,0.30922c-2.12687,0.40129 -4.05859,0.46345 -6.18546,0.86473c-5.30182,0.7412 -10.68626,-0.09996 -15.9574,0.11719c-2.80513,0.01101 -5.63073,0.37138 -8.4154,0.03302c-6.08316,-0.88208 -12.21748,-0.89075 -18.25972,-2.47156c-1.55167,-0.44143 -3.27803,-0.89309 -4.8297,-1.33452c-0.63735,-1.08901 -2.05526,-0.82148 -2.90821,-1.22199c-1.0174,-0.58542 -2.0348,-1.17084 -3.96653,-1.10869c1.08979,2.34247 0.43276,4.58264 1.00873,6.71973c0.86318,0.22583 1.50053,1.31484 2.74376,1.03708zM1257.60149,496.22251c-3.92561,-1.80741 -4.96347,-2.04347 -7.25479,-1.8271c0.05193,2.10641 0.11408,4.03813 0.16601,6.14454c-0.07161,1.22277 0.57597,2.1371 1.59337,2.72252c0.67827,0.39028 1.55167,0.44143 2.22994,0.83171c2.54862,1.37621 5.48751,2.07416 8.29265,2.06315c1.17162,0.94501 2.56907,1.02685 3.96653,1.10869c7.85044,0.63501 15.51597,1.43448 23.41755,1.19609c3.51409,-0.14477 7.03841,-0.46422 10.39828,-0.96859c2.66114,-0.54528 5.49696,-1.08033 7.7159,-3.05376c0.13298,-2.27086 0.26597,-4.54172 0.39895,-6.81258c-1.41791,0.26753 -2.66114,0.54528 -3.72969,0.83327c-4.97292,1.11102 -9.92538,1.87268 -14.83692,1.93562c-6.31922,0.15578 -12.5873,-0.56185 -18.8656,-1.1048c-2.96959,-0.1739 -5.70311,-1.38567 -8.68293,-1.38489c-1.50053,-1.31484 -3.23711,-1.59181 -4.80925,-1.68388zM1267.87645,691.91152c2.38416,1.1913 4.81948,1.5092 7.27525,1.47773c0.16445,0.18491 0.50359,0.38005 0.67827,0.39028c4.20259,0.07083 8.42563,-0.2077 12.36069,-1.55479c2.32201,-0.74042 4.63379,-1.30616 6.49313,-3.12536c0.57286,-9.78217 1.14572,-19.56433 1.74926,-29.87054c-4.30488,1.67599 -8.54839,2.30388 -12.78166,2.7571c-3.70923,0.4839 -7.17217,-0.24473 -10.86094,-0.11019c-1.39745,-0.08184 -2.60999,-0.32813 -4.00745,-0.40996c-2.04503,-0.99616 -4.2852,-1.65319 -6.89519,-1.98132c-0.30689,5.24045 0.80413,10.21337 0.86707,15.12491c0.22739,5.09645 0.62945,10.20314 0.86707,15.12491c1.50053,1.31484 2.87752,1.74604 4.25451,2.17724zM1265.56556,656.54479c1.17162,0.94501 2.55885,1.20153 3.9563,1.28337c1.35653,0.78056 2.9389,0.69795 4.5008,0.9647c4.88085,0.46111 9.81285,0.04881 14.59063,-0.72308c2.83582,-0.53505 5.6921,-1.41947 8.23994,-3.02307c0.04092,-0.69873 0.25652,-1.38722 0.29744,-2.08595c0.50125,-8.55939 0.99227,-16.94411 1.6682,-25.49327c0.70662,-9.07321 1.40301,-17.97174 2.10963,-27.04495c0.95213,-13.26557 2.06872,-26.34622 3.02085,-39.61179c1.21888,-14.82747 1.90349,-29.51095 3.47173,-44.31796c0.3179,-2.43531 0.29666,-5.06576 0.4501,-7.68599c-1.96242,0.5862 -3.77061,1.53199 -5.71256,1.76883c-6.20592,1.2141 -12.52514,1.36988 -18.82391,1.17629c-5.58981,-0.32735 -11.16939,-0.82938 -16.74897,-1.33141c-2.2504,-0.48235 -4.33635,-0.77978 -6.58675,-1.26213c-1.33607,-1.12993 -2.92867,-0.87263 -4.30566,-1.30383c-1.55167,-0.44143 -2.90821,-1.22199 -4.66525,-1.14961c-0.45166,1.72636 -0.18413,3.14427 -0.08106,4.37727c1.31795,10.41874 1.22822,20.93032 2.02212,31.31836c0.48468,6.68905 0.96936,13.37809 1.62873,20.07737c0.70106,8.98036 1.58703,17.79628 2.29832,26.60196c0.62868,7.22332 1.25735,14.44664 1.71134,21.65973c0.59799,7.74736 1.03152,15.30982 1.45483,23.04695c0.46422,7.03841 0.91822,14.2515 1.54689,21.47482c1.5619,0.26675 2.54862,1.37621 3.9563,1.28337zM1337.61686,425.88824c-3.93506,1.34708 -7.64429,1.83099 -11.36375,2.48957c-3.89414,0.64836 -7.62383,1.48162 -11.50774,1.9553c-3.70923,0.4839 -7.57268,0.60822 -11.27168,0.91744c-3.87368,0.29899 -7.74736,0.59799 -11.7855,0.71207c-3.68877,0.13454 -7.54199,0.08417 -11.23077,0.21871c-3.85322,-0.05037 -7.66553,-0.79947 -11.55967,-0.15111c-3.60693,-1.26291 -7.49085,-0.78924 -11.14893,-1.17874c-3.82253,-0.57441 -7.84021,-0.8097 -11.66274,-1.38411c-3.64785,-0.56418 -7.46016,-1.31328 -11.09778,-2.05215c-3.8123,-0.7491 -7.40901,-2.18669 -11.252,-2.41174c-0.59487,4.1719 -0.66648,5.39467 0.54684,8.62077c2.04503,0.99616 4.09006,1.99233 6.50491,2.65958c2.9389,0.69795 5.87779,1.3959 8.98114,2.27875c5.86756,1.57058 11.57068,2.95624 17.68453,3.31428c4.19236,0.24551 8.39494,0.31634 12.54638,1.26058c0.86318,0.22583 1.91127,0.28721 2.97982,-0.00078c2.12687,-0.40129 4.3875,-0.09362 6.48368,0.02913c7.68599,0.4501 15.43335,-0.14788 23.01626,-0.93078c10.03868,-0.81436 19.79961,-2.87196 29.59123,-5.4536c1.95219,-0.41152 3.90437,-0.82304 5.39389,-2.31333c0.50281,-2.59976 0.48157,-5.23022 0.15189,-8.57985zM1268.26285,400.96838c-1.53044,2.18902 -2.36215,4.41896 -3.36854,6.63868c-0.98593,1.87035 -1.28337,3.9563 -0.7074,6.09339c0.81281,4.07905 1.09134,8.3021 0.67115,12.48422c-0.02046,0.34936 0.12353,0.88364 0.1133,1.05832c0.84272,0.57519 1.54144,0.61611 2.44554,0.14321c0.18491,-0.16445 0.38005,-0.50359 0.39028,-0.67827c0.8207,-5.03508 1.99077,-10.04969 3.5102,-15.04385c0.2156,-0.6885 0.45166,-1.72636 0.14321,-2.44554c-0.53505,-2.83582 -1.0701,-5.67165 -3.19775,-8.25017zM1256.23729,426.73151c0.80024,-4.68571 1.93962,-9.17628 3.24345,-13.48194c0.4312,-1.37699 0.32813,-2.60999 -0.11408,-4.03813c-0.75065,-2.14733 -1.87113,-3.96575 -2.98137,-5.95885c-0.30844,-0.71919 -0.60666,-1.61305 -1.67521,-1.32507c-1.04731,2.91844 -2.25907,5.65196 -2.95702,8.59086c2.53994,7.51053 2.53994,7.51053 2.2236,15.90547c0.49336,0.55473 1.18185,0.77033 2.26063,0.30767zM1298.19621,446.54147c-0.88286,3.10335 -1.59104,6.21693 -2.29921,9.33051c-0.2156,0.6885 -0.4312,1.37699 -0.29744,2.08595c1.0591,2.86651 1.94351,5.72279 3.90671,8.11641c2.21893,-1.97342 2.89642,-4.56296 4.08773,-6.94712c0.59565,-1.19208 0.48235,-2.2504 0.02991,-3.50386c-1.23378,-2.87674 -2.11819,-5.73302 -2.8177,-8.75376c0.01023,-0.17468 -0.3289,-0.36982 -0.65781,-0.73964c-0.53427,0.14399 -1.24323,0.27776 -1.95219,0.41152zM1303.22985,402.49026c-2.43453,2.66192 -3.63607,5.22076 -5.01228,7.76938c-0.41074,1.02763 -0.28721,1.91127 -0.16367,2.7949c0.80258,4.25373 1.08111,8.47678 0.65069,12.83359c-0.03069,0.52404 0.1133,1.05832 0.08262,1.58236c1.91127,0.28721 2.27086,0.13298 2.3527,-1.26447c0.26597,-4.54172 1.39512,-8.85761 3.37721,-12.77299c1.1913,-2.38416 1.13938,-4.49057 0.39895,-6.81258c-0.62712,-1.26369 -1.08979,-2.34247 -1.68622,-4.1302zM1276.83948,428.11329c0.87341,0.05115 1.08901,-0.63735 1.12993,-1.33607c0.28643,-4.89108 1.96008,-9.52565 3.63373,-14.16021c1.27314,-3.78162 0.8097,-7.84021 -1.58548,-11.83665c-1.31484,1.50053 -1.59181,3.23711 -2.55729,4.7581c-1.94118,3.21665 -2.13554,6.5356 -1.64141,10.07015c0.47367,3.88391 1.12203,7.77805 0.54762,11.60059c0.14399,0.53427 0.30844,0.71919 0.4729,0.9041zM1290.99191,401.94886c-1.17084,2.0348 -2.12609,3.3811 -2.90665,4.73764c-1.35576,2.19925 -1.65319,4.2852 -1.09768,6.77166c0.85373,3.38033 0.9985,6.89442 0.96859,10.39828c0.10307,1.233 0.02124,2.63045 -0.05037,3.85322c0.86318,0.22583 1.06855,-0.28799 1.08901,-0.63735c1.17007,-5.01462 2.51481,-10.019 4.54806,-14.80779c0.22583,-0.86318 0.44143,-1.55167 0.3179,-2.43531c-0.73019,-2.49669 -1.2857,-4.98315 -2.86885,-7.88035zM1309.30345,445.43912c0.50436,3.35987 -0.20381,6.47345 -0.73731,9.59725c-0.05115,0.87341 -0.61611,1.54144 -0.3179,2.43531c0.44221,1.42814 2.37471,4.3458 4.20414,6.03046c1.32507,-1.67521 1.79719,-3.75093 2.60844,-5.63151c0.61611,-1.54144 0.52327,-2.94913 -0.2683,-4.39773c-1.25424,-2.52738 -2.15911,-5.0343 -2.51948,-7.85989c0.01023,-0.17468 -0.31867,-0.5445 -0.48313,-0.72941c-0.6885,-0.2156 -1.38722,-0.25652 -2.48646,0.55551zM1248.88721,453.46957c0.90487,2.50692 0.55629,5.46628 1.99544,7.8292c1.233,-0.10307 1.80819,-0.94579 2.54784,-1.6036c1.30461,-1.32584 2.76344,-2.2921 3.74937,-4.16245c-0.86396,-3.20565 -0.31,-6.67882 -0.98905,-10.04891c-0.84272,-0.57519 -1.71613,-0.62634 -2.60999,-0.32813c-1.22199,2.90821 -2.78312,5.62128 -4.69361,8.31388zM1277.31705,446.89628c-0.45166,1.72636 -0.90332,3.45271 -1.84833,4.62433c-2.27008,2.84683 -2.2693,5.82665 -1.04575,8.87807c0.46267,1.07878 0.40129,2.12687 1.388,3.23633c1.84911,-1.64452 3.18441,-3.49441 4.5197,-5.3443c0.38005,-0.50359 0.42097,-1.20231 0.29744,-2.08595c-0.54528,-2.66114 -0.92611,-5.13737 -1.47139,-7.79851c0.03069,-0.52404 -0.27776,-1.24323 -1.83966,-1.50998zM1266.31211,446.25181c-0.92378,3.80208 -2.17646,7.23433 -4.61099,9.89625c-0.55473,0.49336 -0.42097,1.20231 -0.46189,1.90104c0.08262,1.58236 0.33991,3.17496 1.29593,4.80847c2.58876,-2.30233 4.3041,-4.6558 6.02968,-7.18396c0.57519,-0.84272 0.80102,-1.7059 0.68772,-2.76422c-0.23684,-1.94196 -0.29899,-3.87368 -0.53583,-5.81564c0.01023,-0.17468 -0.31867,-0.5445 -0.48313,-0.72941c-0.52404,-0.03069 -1.04809,-0.06138 -1.9215,-0.11253zM1316.00439,411.8271c-0.59643,-1.78773 -1.18263,-3.75015 -1.77906,-5.53788c-0.16445,-0.18491 -0.3289,-0.36982 -0.65781,-0.73964c-2.01356,1.45961 -3.18441,3.49441 -3.99566,5.37499c0.90565,5.48673 1.83176,10.62411 1.48396,16.56328c2.60922,-2.65169 1.55012,-5.5182 2.20715,-7.75837c0.68772,-2.76422 1.71457,-5.33329 2.74142,-7.90237zM1266.06282,396.63281c-1.62406,-2.19847 -2.89876,-4.37649 -5.27269,-5.74247c-0.77033,1.18185 -1.69489,2.00411 -2.28031,3.02151c-0.58542,1.0174 -1.34553,2.02457 -1.41713,3.24734c0.43198,1.60282 1.59337,2.72252 2.39517,3.99644c0.8018,1.27392 1.24401,2.70206 2.59031,3.6573c1.38644,-2.7233 2.58798,-5.28214 3.98465,-8.18012zM1245.03721,426.42618c1.00561,-5.19953 1.7854,-9.53588 2.56518,-13.87223c0.02046,-0.34936 0.22583,-0.86318 -0.10307,-1.233c-1.11024,-1.9931 -1.85067,-4.31511 -4.04992,-5.67087c-0.84194,2.40462 -1.67365,4.63456 -2.33068,6.87474c2.03558,4.15066 3.00261,8.58931 3.91849,13.90136zM1287.32971,464.48485c1.64374,-1.1307 2.0954,-2.85706 2.87596,-4.21359c0.96547,-1.52099 1.4069,-3.07266 0.8207,-5.03508c-0.71996,-2.67137 -1.43993,-5.34274 -0.92689,-8.11719c-1.20231,-0.42097 -1.91127,-0.28721 -1.97264,0.76088c-0.32813,2.60999 -0.66648,5.39467 -1.84755,7.60415c-1.59181,3.23711 -0.34781,5.93917 1.05042,9.00082zM1270.26129,459.62912c-2.44476,2.8366 -4.49924,4.99494 -6.37904,7.1635c-0.07161,1.22277 0.41152,1.95219 0.71996,2.67137c0.48313,0.72941 0.77111,1.79796 1.97342,2.21893c2.00333,-1.28493 3.85244,-2.92945 5.5371,-4.75888c-0.39106,-2.30155 -0.96703,-4.43865 -1.85145,-7.29493zM1297.18504,469.79457c-1.41869,-2.71229 -2.68316,-5.06499 -3.93739,-7.59236c-1.35576,2.19925 -2.70128,4.22382 -4.04681,6.24839c1.08979,2.34247 1.84044,4.48979 3.84455,6.18468c1.6642,-1.48007 2.81459,-3.1655 4.13965,-4.84071zM1274.77488,391.53402c-2.15756,0.92533 -2.81459,3.1655 -3.96497,4.85094c-0.38005,0.50359 -0.25652,1.38722 0.06216,1.93173c0.94579,1.80819 1.72713,3.43147 2.68316,5.06499c-0.01023,0.17468 0.33913,0.19514 0.6885,0.2156c1.36599,-2.37393 2.56752,-4.93278 3.9335,-7.30671c-0.77111,-1.79796 -2.08673,-3.27725 -3.40234,-4.75654zM1301.18404,398.51428c-0.5862,-1.96242 -1.18263,-3.75015 -3.03252,-5.08545c-1.48952,1.4903 -3.3284,2.96013 -4.32456,5.00516c0.45244,1.25346 0.55551,2.48646 1.19286,3.57547c0.46267,1.07878 0.20615,2.466 1.74759,3.08211c1.53044,-2.18902 3.06087,-4.37805 4.41663,-6.5773zM1302.12727,469.20759c0.60666,1.61305 2.12765,2.57853 3.6384,3.71868c1.52021,-2.01434 3.35909,-3.48418 4.20103,-5.8888c-1.31562,-1.47929 -2.0765,-3.45193 -3.91616,-4.96191c-1.36599,2.37393 -2.55729,4.7581 -3.92327,7.13203zM1320.29737,443.27845c-0.35881,3.13404 -0.02913,6.48368 -0.73731,9.59725c-0.50281,2.59976 0.63813,4.06882 2.65247,5.58903c1.3353,-1.84989 1.79719,-3.75093 2.44398,-5.81642c-2.10719,-2.92789 -2.78623,-6.29799 -4.35914,-9.36987zM1235.39826,423.40778c0.70896,-0.13376 0.73964,-0.65781 0.77033,-1.18185c0.30767,-2.26063 0.45088,-4.70617 0.93323,-6.95657c0.89309,-3.27803 -0.75143,-5.12714 -2.90976,-7.18162c-0.42097,1.20231 -0.82148,2.05526 -1.04731,2.91844c-0.6468,2.06549 -0.93401,3.97676 0.5256,5.99032c0.8018,1.27392 1.0591,2.86651 1.32662,4.28442c-0.2156,0.6885 -0.61611,1.54144 0.40129,2.12687zM1240.60635,457.19137c0.91433,-0.64758 1.47929,-1.31562 2.03402,-1.80897c1.82865,-1.29516 2.44476,-2.8366 2.21816,-4.95324c-0.24707,-1.76727 0.04014,-3.67854 -0.03225,-5.43559c0.03069,-0.52404 0.23606,-1.03786 -0.97648,-1.28415c-1.01662,2.39439 -2.38261,4.76833 -4.08773,6.94712c-0.38005,0.50359 -0.4312,1.37699 -0.47212,2.07572c0.26753,1.41791 0.54528,2.66114 1.31639,4.4591zM1284.49467,467.99972c-0.59643,-1.78773 -1.00795,-3.73992 -2.13865,-5.38366c-1.85934,1.8192 -3.8729,3.27881 -5.22866,5.47806c0.94579,1.80819 1.36754,3.5857 3.22766,4.74631c1.48952,-1.4903 3.14349,-2.79568 4.13965,-4.84071zM1285.27935,403.7177c1.85934,-1.8192 3.03019,-3.854 3.85167,-5.90926c-0.94579,-1.80819 -1.72713,-3.43147 -3.2072,-5.09567c-1.45883,0.96625 -2.41407,2.31256 -3.20487,3.84377c0.9151,2.33224 1.65553,4.65425 2.5604,7.16116zM1268.47745,475.12463c0.97648,1.28415 1.44938,2.18824 2.28187,2.93812c0.49336,0.55473 0.99694,0.93479 1.50053,1.31484c1.79796,-0.77111 3.4417,-1.90182 4.59209,-3.58725c-0.77111,-1.79796 -1.54222,-3.59593 -3.21743,-4.92099c-1.6642,1.48007 -3.30794,2.61077 -5.15705,4.25529zM1236.07097,441.85164c-2.04425,1.98365 -3.52354,3.29927 -5.19797,4.95402c-0.2156,0.6885 -0.11253,1.9215 0.35014,3.00027c0.28799,1.06855 -0.13298,2.27086 0.86396,3.20565c1.60282,-0.43198 2.70206,-1.24401 3.64707,-2.41563c-0.01101,-2.80513 0.14244,-5.42536 0.3368,-8.74431zM1263.24512,387.87905c0.82226,0.92456 1.64452,1.84911 2.46678,2.77367c0.82226,0.92456 1.65475,1.67443 2.47701,2.59899c1.3353,-1.84989 2.6399,-3.17573 3.10179,-5.07677c-0.46267,-1.07878 -1.4903,-1.48952 -2.33302,-2.06471c-0.84272,-0.57519 -1.65475,-1.67443 -2.88775,-1.57136c-1.1197,1.16139 -2.21893,1.97342 -2.82481,3.34019zM1289.9019,477.43096c-1.29516,-1.82865 -2.04581,-3.97598 -4.06015,-5.49619c-1.30461,1.32584 -2.43453,2.66192 -3.73914,3.98776c1.29516,1.82865 2.25118,3.46216 4.29621,4.45833c1.27392,-0.8018 2.52738,-1.25424 3.50308,-2.9499zM1249.03921,405.97743c1.23222,-3.08289 2.2693,-5.82665 3.30638,-8.5704c-0.63735,-1.08901 -1.10002,-2.16779 -2.30233,-2.58876c-2.03402,1.80897 -3.05064,4.20336 -4.24195,6.58753c0.63735,1.08901 1.2747,2.17802 2.09696,3.10257c0.13376,0.70896 0.4729,0.9041 1.14093,1.46906zM1259.34053,466.52665c-0.93556,-1.98287 -0.81281,-4.07905 -2.12842,-5.55834c-2.02379,1.63429 -3.86267,3.10413 -5.38288,5.11847c1.15116,1.29438 1.04887,3.04119 2.7343,4.19158c1.79796,-0.77111 2.93812,-2.28187 4.777,-3.75171zM1312.42581,401.1007c-0.92533,-2.15756 -1.68622,-4.1302 -3.18674,-5.44504c-1.28415,0.97648 -2.40384,2.13787 -3.18441,3.49441c0.92533,2.15756 1.67599,4.30488 2.58086,6.8118c1.16061,-1.86012 2.29054,-3.19619 3.79029,-4.86117zM1241.25471,461.08551c0.56574,2.31178 0.97726,4.26396 2.64224,5.76371c1.4486,-0.79157 2.71229,-1.41869 3.49285,-2.77522c-0.57597,-2.1371 -0.97726,-4.26396 -1.70745,-6.76065c-1.64374,1.1307 -3.1128,2.27164 -4.42764,3.77216zM1292.12028,394.65316c1.34553,-2.02457 3.3284,-2.96013 3.79029,-4.86117c-0.94579,-1.80819 -2.28187,-2.93812 -3.80285,-3.90359c-1.46906,1.14093 -2.92789,2.10719 -3.56446,3.99799c1.14093,1.46906 2.10719,2.92789 3.57702,4.76677zM1302.96132,475.91709c-1.15116,-1.29438 -1.95296,-2.5683 -3.48418,-3.35909c-1.3353,1.84989 -3.3284,2.96013 -4.16011,5.19008c0.97648,1.28415 1.98365,2.04425 3.54556,2.311c1.47929,-1.31562 2.79413,-2.81614 4.09873,-4.14199zM1241.188,402.3626c-0.96625,-1.45883 -1.79874,-2.2087 -2.99082,-2.80436c-1.30461,1.32584 -2.45499,3.01128 -2.57775,5.10746c0.98671,1.10947 1.97342,2.21893 2.9499,3.50308c1.50998,-1.83966 1.80741,-3.92561 2.61867,-5.80619zM1330.31949,457.71252c-0.99694,-0.93479 -1.82943,-1.68466 -2.86729,-1.92072c-1.15039,1.68544 -1.95141,3.39133 -2.4133,5.29237c0.81203,1.09924 1.64452,1.84911 2.84683,2.27008c1.32507,-1.67521 1.6225,-3.76116 2.43376,-5.64173zM1275.44581,481.84281c0.92533,2.15756 2.31256,2.41407 3.89492,2.33146c1.22277,0.07161 2.466,-0.20615 3.07188,-1.57291c-0.96625,-1.45883 -1.94273,-2.74298 -3.46372,-3.70845c-1.28415,0.97648 -2.39362,1.96319 -3.50308,2.9499zM1324.20419,412.48257c-0.43198,-1.60282 -0.35014,-3.00027 -1.52176,-3.94529c-3.66753,2.76499 -2.98849,6.13509 -1.4565,9.9057c0.99616,-2.04503 1.9821,-3.91538 2.97826,-5.96041zM1259.43571,476.87378c1.61305,-0.60666 2.71229,-1.41869 3.85244,-2.92945c-1.17162,-0.94501 -1.24401,-2.70206 -2.60054,-3.48262c-1.05832,0.1133 -1.4486,0.79157 -2.17802,1.2747c-0.73964,0.65781 -1.63351,0.95602 -1.70512,2.17879c0.63735,1.08901 1.2747,2.17802 2.63123,2.95858zM1280.89807,427.64984c1.86012,1.16061 2.92867,0.87263 3.19542,-0.68927c0.30767,-2.26063 0.26597,-4.54172 0.21404,-6.64813c0.04092,-0.69873 -0.08262,-1.58236 -1.11024,-1.9931c-1.05754,3.09312 -1.76572,6.2067 -2.29921,9.33051zM1312.8977,476.84954c0.28799,1.06855 0.95602,1.63351 1.99388,1.86957c1.83888,-1.46984 4.0169,-2.74453 5.2082,-5.1287c-2.0348,-1.17084 -3.62739,-0.91355 -4.95246,0.76166c-0.73964,0.65781 -1.81842,1.12047 -2.24962,2.49747zM1304.40769,427.27379c2.44554,0.14321 2.99005,-0.17546 3.08211,-1.74759c-0.03147,-2.45577 -0.0527,-5.08622 -0.7829,-7.58291c-1.58159,3.06243 -2.97826,5.96041 -2.29921,9.33051zM1329.40205,446.44084c-0.25652,1.38722 -0.32813,2.60999 -0.57441,3.82253c-0.3179,2.43531 -0.3179,2.43531 2.77522,3.49285c0.42097,-1.20231 1.02685,-2.56907 1.24245,-3.25757c-1.31562,-1.47929 -2.2921,-2.76344 -3.44326,-4.05782zM1285.04729,380.74235c-1.09924,0.81203 -2.69183,1.06933 -2.80436,2.99082c0.99694,0.93479 2.17879,1.70512 3.34019,2.82481c1.28415,-0.97648 2.73275,-1.76805 3.33863,-3.13482c-1.17162,-0.94501 -2.15833,-2.05448 -3.87446,-2.68082zM1317.93834,459.61667c-1.00639,2.21971 -2.18747,4.42919 -3.19386,6.64891c0.29821,0.89387 0.78134,1.62328 1.84989,1.3353c1.6642,-1.48007 2.9995,-3.32996 3.65653,-5.57013c-0.63735,-1.08901 -1.29516,-1.82865 -2.31256,-2.41407zM1314.69589,398.25387c1.233,-0.10307 2.14733,-0.75065 2.90743,-1.75782c-0.30844,-0.71919 -0.61689,-1.43837 -0.92533,-2.15756c-0.4729,-0.9041 -0.77111,-1.79796 -1.79874,-2.2087c-1.04809,-0.06138 -1.94196,0.23684 -2.69183,1.06933c0.78134,1.62328 1.72713,3.43147 2.50848,5.05476zM1280.48823,392.745c1.28415,-0.97648 2.05448,-2.15833 2.66036,-3.5251c-1.33607,-1.12993 -2.49747,-2.24962 -3.66909,-3.19464c-1.42814,0.44221 -2.18824,1.44938 -2.4243,2.48724c1.14093,1.46906 2.28187,2.93812 3.43303,4.2325zM1321.36604,404.07818c-0.46267,-1.07878 -0.92533,-2.15756 -1.56268,-3.24656c-0.16445,-0.18491 -0.51381,-0.20537 -0.85295,-0.40051c-0.72941,0.48313 -1.79796,0.77111 -2.40384,2.13787c0.44221,1.42814 0.68927,3.19542 1.83021,4.66447c1.4486,-0.79157 2.2087,-1.79874 2.98927,-3.15528zM1329.74441,419.64296c0.28721,-1.91127 2.22916,-2.1481 2.33146,-3.89492c-0.61689,-1.43837 -0.6995,-3.02073 -2.01512,-4.50002c-1.27392,0.8018 -2.37316,1.61383 -1.94118,3.21665c0.43198,1.60282 0.16523,3.16473 1.62484,5.17829zM1323.45887,470.10624c0.77033,-1.18185 1.71535,-2.35347 2.47545,-3.36065c0.18491,-0.16445 0.03069,-0.52404 0.05115,-0.87341c-0.85295,-0.40051 -1.67521,-1.32507 -3.27803,-0.89309c-0.95524,1.3463 -1.92072,2.86729 -3.06087,4.37805c1.18185,0.77033 2.21971,1.00639 3.8123,0.7491zM1275.77972,383.35468c-0.98671,-1.10947 -1.96319,-2.39362 -2.78545,-3.31817c-1.60282,0.43198 -2.70206,1.24401 -3.62662,2.06627c0.10307,1.233 1.31562,1.47929 1.98365,2.04425c0.66804,0.56496 1.32584,1.30461 2.55885,1.20153c0.71919,-0.30844 1.4486,-0.79157 1.86957,-1.99388zM1245.27472,470.26023c0.8018,1.27392 1.44938,2.18824 2.09696,3.10257c0.15422,0.35959 0.66804,0.56496 0.83249,0.74987c1.22277,0.07161 2.1371,-0.57597 2.8972,-1.58314c-0.79157,-1.4486 -1.40846,-2.88697 -2.55962,-4.18135c-1.07878,0.46267 -1.9931,1.11024 -3.26702,1.91205zM1334.12868,446.54236c0.83171,-2.22994 1.66342,-4.45988 1.28259,-6.93611c-1.60282,0.43198 -3.0105,0.52482 -3.96575,1.87113c0.6995,3.02073 0.6995,3.02073 2.68316,5.06499zM1262.26208,479.49323c2.77522,3.49285 2.9499,3.50308 6.19647,1.9404c-0.97648,-1.28415 -2.13787,-2.40384 -3.11436,-3.68799c-1.233,0.10307 -2.14733,0.75065 -3.08211,1.74759zM1306.99812,392.01882c-0.79157,-1.4486 -1.6036,-2.54784 -2.96013,-3.3284c-0.35959,0.15422 -0.9041,0.4729 -1.4486,0.79157c-0.36982,0.3289 -0.74987,0.83249 -1.1197,1.16139c0.79157,1.4486 1.39823,3.06165 2.74453,4.0169c1.07878,-0.46267 2.01356,-1.45961 2.7839,-2.64146zM1235.27462,461.43643c0.5445,-0.31867 1.27392,-0.8018 1.47929,-1.31562c0.63657,-1.89081 0.3895,-3.65808 -0.72074,-5.65119c-1.08901,0.63735 -2.50692,0.90487 -3.09234,1.92227c0.59643,1.78773 0.65859,3.71946 2.33379,5.04453zM1247.2169,392.19883c-0.16445,-0.18491 -0.3289,-0.36982 -0.65781,-0.73964c-2.3527,1.26447 -4.21204,3.08367 -6.07138,4.90287c0.45244,1.25346 1.12047,1.81842 2.5077,2.07494c1.34553,-2.02457 2.86573,-4.03891 4.22149,-6.23816zM1294.86003,419.70345c-1.20153,2.55885 -2.56752,4.93278 -2.56674,7.91259c-0.01023,0.17468 0.66804,0.56496 1.0174,0.58542c0.87341,0.05115 1.61305,-0.60666 1.6642,-1.48007c0.65703,-2.24017 0.44065,-4.53149 -0.11486,-7.01795zM1301.59167,385.56739c-0.81203,-1.09924 -1.62406,-2.19847 -2.80591,-2.96881c-1.22277,-0.07161 -2.11664,0.22661 -3.06165,1.39823c1.16139,1.1197 2.31256,2.41407 3.48418,3.35909c1.06855,-0.28799 1.79796,-0.77111 2.38339,-1.78851zM1288.64999,483.84303c2.43531,0.3179 4.52126,0.61533 6.68905,-0.48468c-0.43198,-1.60282 -1.61383,-2.37316 -2.98059,-2.97904c-1.45883,0.96625 -2.73275,1.76805 -3.70845,3.46372zM1226.41312,445.14223c1.63351,-0.95602 1.81842,-1.12047 1.84911,-1.64452c0.27698,-1.73659 -0.50436,-3.35987 -1.29593,-4.80847c-0.31867,-0.5445 -1.18185,-0.77033 -1.76727,0.24707c0.95602,1.63351 0.12431,3.86345 1.2141,6.20592zM1254.13255,393.83079c1.52021,-2.01434 3.20487,-3.84377 3.55345,-6.80313c-2.51715,1.07956 -3.86267,3.10413 -5.18774,4.77934c0.12353,0.88364 0.62712,1.26369 1.63429,2.02379zM1253.02364,475.62188c-0.9041,0.4729 -1.79796,0.77111 -2.70206,1.24401c0.78134,1.62328 1.75782,2.90743 3.71001,2.49591c0.53427,-0.14399 1.06855,-0.28799 1.28415,-0.97648c-0.28799,-1.06855 -1.12047,-1.81842 -2.2921,-2.76344zM1316.21365,426.21236c1.57213,0.09207 2.29132,-0.21638 2.19847,-1.62406c-0.10307,-1.233 -0.20615,-2.466 -0.4839,-3.70923c-0.14399,-0.53427 -0.46267,-1.07878 -1.17162,-0.94501c-0.6468,2.06549 -0.75933,3.98699 -0.54295,6.27831zM1250.03927,418.83148c-0.83171,2.22994 -1.31406,4.48034 -0.923,6.78189c-0.01023,0.17468 0.66804,0.56496 0.84272,0.57519c0.34936,0.02046 0.72941,-0.48313 0.74987,-0.83249c-0.0417,-2.28109 0.43042,-4.35681 -0.66959,-6.52459zM1241.30675,424.27963c-0.42175,-1.7775 -0.30922,-3.699 -1.24479,-5.68188c-1.00639,2.21971 -1.46828,4.12075 -1.00561,5.19953c0.28799,1.06855 0.98671,1.10947 2.2504,0.48235zM1305.71686,482.73912c2.12687,-0.40129 4.57241,-0.25807 5.91793,-2.28265c-3.06243,-1.58159 -4.40796,0.44299 -5.91793,2.28265zM1305.13311,450.80387c0.34936,0.02046 0.53427,-0.14399 0.88364,-0.12353c-0.07239,-1.75704 0.71841,-3.28826 -0.06293,-4.91154c-1.03786,-0.23606 -1.57213,-0.09207 -2.14733,0.75065c0.45244,1.25346 0.89464,2.6816 1.32662,4.28442zM1272.1829,420.82937c-0.66726,2.41485 -1.12915,4.31589 -1.07722,6.4223c-0.02046,0.34936 0.30844,0.71919 0.83249,0.74987c0.17468,0.01023 0.53427,-0.14399 0.71919,-0.30844c0.83171,-2.22994 0.95447,-4.32612 -0.47445,-6.86373zM1238.12145,463.70651c-1.06855,0.28799 -1.61305,0.60666 -1.29438,1.15116c0.45244,1.25346 1.07956,2.51715 1.70667,3.78084c0.48313,0.72941 1.00717,0.7601 1.57213,0.09207c-0.41152,-1.95219 -0.8435,-3.55501 -1.98443,-5.02407zM1292.54837,381.3569c0.72941,-0.48313 1.4486,-0.79157 2.17802,-1.2747c0.18491,-0.16445 0.20537,-0.51381 0.41074,-1.02763c-2.09618,-0.12276 -3.98699,-0.75933 -6.29876,-0.19358c1.16139,1.1197 1.99388,1.86957 3.71001,2.49591zM1260.02358,445.88355c0.07239,1.75704 0.155,3.33941 0.20693,5.44582c1.84911,-1.64452 2.46522,-3.18596 2.39284,-4.94301c-0.84272,-0.57519 -1.35653,-0.78056 -2.59976,-0.50281zM1315.12931,444.7286c0.62712,1.26369 0.16523,3.16473 2.02535,4.32534c0.76956,-4.16167 0.8207,-5.03508 -0.03225,-5.43559c-0.87341,-0.05115 -1.41791,0.26753 -1.9931,1.11024zM1261.68155,420.56495c-2.24962,2.49747 -2.37238,4.59365 -1.8271,7.25479c2.5683,-1.95296 1.31406,-4.48034 1.8271,-7.25479zM1325.79834,418.18491c-2.06471,2.33302 -2.17724,4.25451 -1.95063,6.37115c-0.01023,0.17468 0.3289,0.36982 0.67827,0.39028c0.52404,0.03069 0.89387,-0.29821 0.91433,-0.64758c0.27698,-1.73659 0.20459,-3.49363 0.35804,-6.11385zM1323.66747,442.5994c0.43198,1.60282 0.50436,3.35987 2.17957,4.68493c0.62634,-1.71613 0.54373,-3.29849 0.45088,-4.70617c-1.0174,-0.58542 -1.72636,-0.45166 -2.63045,0.02124zM1328.82697,408.37128c-1.1307,-1.64374 -1.01818,-3.56524 -2.72408,-4.36626c-0.66726,2.41485 -0.66726,2.41485 1.11102,4.97292c0.35959,-0.15422 0.71919,-0.30844 1.61305,-0.60666zM1308.47874,474.4874c2.47623,-0.38083 3.79107,-1.88136 4.94145,-3.56679c-0.46267,-1.07878 -1.16139,-1.1197 -1.71613,-0.62634c-0.95524,1.3463 -2.08517,2.68238 -3.22533,4.19313zM1309.75133,389.9014c1.05832,-0.1133 1.94196,-0.23684 2.52738,-1.25424c-0.64758,-0.91433 -1.29516,-1.82865 -2.33302,-2.06471c-0.88364,0.12353 -1.42814,0.44221 -1.81842,1.12047c0.29821,0.89387 0.79157,1.4486 1.62406,2.19847zM1283.9148,450.96354c0.60588,-1.36676 1.01662,-2.39439 0.72864,-3.46294c-0.15422,-0.35959 -0.49336,-0.55473 -0.83249,-0.74987c-0.52404,-0.03069 -1.24323,0.27776 -1.09924,0.81203c-0.06138,1.04809 -0.13298,2.27086 1.20309,3.40079zM1280.79278,378.56511c-1.54144,-0.61611 -2.99005,0.17546 -4.40796,0.44299c1.96319,2.39362 2.31256,2.41407 4.40796,-0.44299zM1231.53481,423.53209c0.85217,-2.5793 0.85217,-2.5793 -0.65859,-3.71946c-0.41074,1.02763 -0.83171,2.22994 0.65859,3.71946zM1294.84658,446.87115c-0.66804,-0.56496 -1.19208,-0.59565 -1.38722,-0.25652c-0.95524,1.3463 -0.81125,1.88058 0.66882,3.54478c0.59565,-1.19208 0.65703,-2.24017 0.71841,-3.28826zM1333.05313,420.012c-0.92456,0.82226 -1.67443,1.65475 -1.39667,2.89798c2.82559,-0.36037 3.02073,-0.6995 1.39667,-2.89798zM1228.22454,417.20342c-1.1197,1.16139 -1.37621,2.54862 -1.6225,3.76116c-0.04092,0.69873 0.45244,1.25346 1.54144,0.61611c0.24629,-1.21254 0.50281,-2.59976 0.08106,-4.37727zM1323.10106,398.39553c-0.45166,1.72636 0.02124,2.63045 1.39823,3.06165c0,0 0.35959,-0.15422 0.36982,-0.3289c0.23606,-1.03786 -0.77111,-1.79796 -1.76805,-2.73275zM1272.29298,448.88071c1.06855,-0.28799 1.45883,-0.96625 1.32507,-1.67521c0.02046,-0.34936 -0.30844,-0.71919 -0.64758,-0.91433c-0.33913,-0.19514 -0.88364,0.12353 -0.9041,0.4729c-0.20537,0.51381 -0.24629,1.21254 0.22661,2.11664zM1303.83106,383.2446c0.62712,1.26369 1.29516,1.82865 2.73353,1.21176c-0.79157,-1.4486 -1.46984,-1.83888 -2.73353,-1.21176z" fill="#000000"/><path d="M1266.59598,510.24585c5.57958,0.50203 11.15916,1.00406 16.74897,1.33141c6.28853,0.36827 12.61799,0.03781 18.82391,-1.17629c1.95219,-0.41152 3.57547,-1.19286 5.71256,-1.76883c-0.16367,2.7949 -0.13221,5.25068 -0.4501,7.68599c-1.55801,14.63233 -2.25285,29.49049 -3.47173,44.31796c-1.12681,13.25534 -2.06872,26.34622 -3.02085,39.61179c-0.70662,9.07321 -1.40301,17.97174 -2.10963,27.04495c-0.67593,8.54916 -0.99227,16.94411 -1.6682,25.49327c-0.04092,0.69873 -0.08184,1.39745 -0.29744,2.08595c-2.55807,1.77828 -5.22944,2.49825 -8.23994,3.02307c-4.77778,0.77189 -9.70978,1.18419 -14.59063,0.72308c-1.57213,-0.09207 -3.1545,-0.00945 -4.5008,-0.9647c1.59259,-0.2573 3.30872,0.36904 5.28136,-0.39184c-1.0591,-2.86651 -0.36115,-5.80541 -0.37216,-8.61054c0.01023,-0.17468 0.02046,-0.34936 -0.15422,-0.35959c-1.12125,-4.79824 -0.82459,-9.864 -1.41157,-14.80623c-0.24707,-1.76727 -1.01818,-3.56524 -0.56652,-5.29159c0.55396,-3.47317 -0.82382,-6.88419 -0.26986,-10.35736c0.01023,-0.17468 -0.14399,-0.53427 -0.12353,-0.88364c-0.32968,-3.34964 -0.84428,-6.53482 -0.82459,-9.864c0.22505,-3.84299 -0.96781,-7.41846 -0.39339,-11.24099c-0.9151,-2.33224 -0.43276,-4.58264 -0.46422,-7.03841c0.02046,-0.34936 0.03069,-0.52404 0.05115,-0.87341c-1.19286,-3.57547 -0.27931,-7.20286 -0.77345,-10.73741c-0.49413,-3.53455 0.07005,-7.1824 -0.2494,-10.70672c-0.28876,-4.04836 -1.1118,-7.95273 -0.34225,-12.1144c0.02046,-0.34936 0.05115,-0.87341 -0.10307,-1.233c-0.93556,-1.98287 -0.28876,-4.04836 -0.34069,-6.15477c0.06138,-1.04809 0.30767,-2.26063 0.01968,-3.32918c-0.60666,-1.61305 -0.35014,-3.00027 -0.25807,-4.57241c0.05115,-0.87341 0.27698,-1.73659 -0.03147,-2.45577c-0.9151,-2.33224 -0.42253,-4.75732 -0.28954,-7.02818c0.05115,-0.87341 0.27698,-1.73659 -0.03147,-2.45577c-0.76088,-1.97264 -0.47367,-3.88391 -0.36115,-5.80541c0.18413,-3.14427 -0.8545,-6.36014 -0.49569,-9.49418c0.20537,-0.51381 -0.28799,-1.06855 -0.43198,-1.60282z" fill="#87d7dc"/><path d="M1266.59598,510.24585c0.14399,0.53427 0.63735,1.08901 0.60666,1.61305c-0.35881,3.13404 0.50514,6.33968 0.49569,9.49418c-0.11253,1.9215 -0.39973,3.83276 0.36115,5.80541c0.30844,0.71919 0.08262,1.58236 0.03147,2.45577c-0.13298,2.27086 -0.45088,4.70617 0.28954,7.02818c0.30844,0.71919 -0.09207,1.57213 0.03147,2.45577c-0.09207,1.57213 -0.1739,2.96959 0.25807,4.57241c0.28799,1.06855 0.0417,2.28109 -0.01968,3.32918c0.05193,2.10641 -0.59487,4.1719 0.34069,6.15477c0.15422,0.35959 0.12353,0.88364 0.10307,1.233c-0.75933,3.98699 0.05348,8.06604 0.34225,12.1144c0.30922,3.699 -0.25496,7.34685 0.2494,10.70672c0.49413,3.53455 -0.41941,7.16194 0.77345,10.73741c0.16445,0.18491 -0.03069,0.52404 -0.05115,0.87341c-0.13298,2.27086 -0.45088,4.70617 0.46422,7.03841c-0.7491,3.8123 0.44376,7.38777 0.39339,11.24099c-0.19436,3.31895 0.49491,6.51436 0.82459,9.864c-0.02046,0.34936 0.14399,0.53427 0.12353,0.88364c-0.55396,3.47317 0.82382,6.88419 0.26986,10.35736c-0.28721,1.91127 0.49413,3.53455 0.56652,5.29159c0.4123,4.932 0.29032,10.00799 1.41157,14.80623c-0.01023,0.17468 0.15422,0.35959 0.15422,0.35959c0.01101,2.80513 -0.68694,5.74403 0.37216,8.61054c-1.79796,0.77111 -3.50386,-0.02991 -5.28136,0.39184c-1.39745,-0.08184 -2.7949,-0.16367 -3.9563,-1.28337c0.06138,-1.04809 0.30767,-2.26063 0.01968,-3.32918c-1.00795,-3.73992 -0.61845,-7.398 -0.75299,-11.08677c-0.13454,-3.68877 -1.14249,-7.42869 -0.39339,-11.24099c-0.9151,-2.33224 -0.43276,-4.58264 -0.46422,-7.03841c0.02046,-0.34936 0.05115,-0.87341 -0.10307,-1.233c-0.78134,-1.62328 -0.32968,-3.34964 -0.4123,-4.932c0.05115,-0.87341 0.1023,-1.74682 -0.03147,-2.45577c-0.64836,-3.89414 -1.1118,-7.95273 -0.87652,-11.97041c0.03069,-0.52404 0.24629,-1.21254 -0.08262,-1.58236c-0.77111,-1.79796 -0.49413,-3.53455 -0.39184,-5.28136c0.28721,-1.91127 -0.83327,-3.72969 -0.53583,-5.81564c0.33836,-2.78467 -0.38161,-5.45605 -0.5673,-8.27141c-0.12431,-3.86345 -0.95758,-7.59314 -0.7223,-11.61082c0.04092,-0.69873 0.26675,-1.5619 -0.05193,-2.10641c-0.61689,-1.43837 -0.35014,-3.00027 -0.43276,-4.58264c0.08184,-1.39745 -0.01101,-2.80513 -0.28876,-4.04836c-0.56574,-2.31178 -0.78212,-4.6031 -0.6389,-7.04864c0.04014,-3.67854 -0.96781,-7.41846 -0.21871,-11.23077c0.02046,-0.34936 -0.12353,-0.88364 -0.10307,-1.233c-0.30922,-3.699 -0.79313,-7.40823 -0.75299,-11.08677c0.22505,-3.84299 -0.94735,-7.76782 -0.37293,-11.59036c0.03069,-0.52404 -0.28799,-1.06855 -0.43198,-1.60282c-0.21638,-2.29132 -0.24785,-4.74709 0.40918,-6.98726c0.88364,-0.12353 1.58236,-0.08262 2.29132,-0.21638c2.41485,0.66726 4.49057,1.13938 6.7512,1.44704z" fill="#b0eef2"/><path d="M1337.61686,425.88824c0.32968,3.34964 0.35092,5.98009 -0.50125,8.55939c-1.47929,1.31562 -3.43147,1.72713 -5.39389,2.31333c-9.78139,2.40696 -19.55254,4.63923 -29.59123,5.4536c-7.57268,0.60822 -15.32005,1.2062 -23.01626,0.93078c-2.09618,-0.12276 -4.35681,-0.43042 -6.48368,-0.02913c-0.88364,0.12353 -1.93173,0.06216 -2.97982,0.00078c-4.15144,-0.94424 -8.36425,-0.84038 -12.54638,-1.26058c-5.92894,-0.52249 -11.81697,-1.7437 -17.68453,-3.31428c-2.92867,-0.87263 -5.86756,-1.57058 -8.98114,-2.27875c-2.42508,-0.49258 -4.45988,-1.66342 -6.50491,-2.65958c-1.03864,-3.21587 -1.14171,-4.44887 -0.54684,-8.62077c3.83276,0.39973 7.4397,1.66264 11.252,2.41174c3.63762,0.73887 7.44993,1.48796 11.09778,2.05215c3.82253,0.57441 7.82998,0.98438 11.66274,1.38411c3.64785,0.56418 7.53176,0.09051 11.14893,1.17874c3.89414,-0.64836 7.70645,0.10074 11.55967,0.15111c3.67854,0.04014 7.54199,-0.08417 11.23077,-0.21871c3.86345,-0.12431 7.73713,-0.4233 11.7855,-0.71207c3.699,-0.30922 7.56245,-0.43353 11.27168,-0.91744c3.88391,-0.47367 7.6136,-1.30694 11.50774,-1.9553c4.06882,-0.63813 7.77805,-1.12203 11.71311,-2.46911z" fill="#d1eaeb"/><path d="M1260.00923,508.98371c-0.70896,0.13376 -1.40768,0.09284 -2.29132,0.21638c-0.65703,2.24017 -0.79001,4.51103 -0.40918,6.98726c0.14399,0.53427 0.46267,1.07878 0.43198,1.60282c-0.57441,3.82253 0.4233,7.73713 0.37293,11.59036c-0.21482,3.66831 0.44376,7.38777 0.75299,11.08677c-0.02046,0.34936 0.12353,0.88364 0.10307,1.233c-0.7491,3.8123 0.44376,7.38777 0.21871,11.23077c-0.13298,2.27086 0.07316,4.73686 0.6389,7.04864c0.26753,1.41791 0.36037,2.82559 0.28876,4.04836c-0.09207,1.57213 -0.34858,2.95936 0.43276,4.58264c0.31867,0.5445 0.09284,1.40768 0.05193,2.10641c-0.22505,3.84299 0.59799,7.74736 0.7223,11.61082c0.18569,2.81536 0.90565,5.48673 0.5673,8.27141c-0.28721,1.91127 0.83327,3.72969 0.53583,5.81564c-0.27698,1.73659 -0.56418,3.64785 0.39184,5.28136c0.14399,0.53427 0.1133,1.05832 0.08262,1.58236c-0.23528,4.01767 0.23839,7.90159 0.87652,11.97041c0.12353,0.88364 -0.1023,1.74682 0.03147,2.45577c-0.09207,1.57213 -0.36904,3.30872 0.4123,4.932c0.15422,0.35959 0.12353,0.88364 0.10307,1.233c-0.13298,2.27086 -0.45088,4.70617 0.46422,7.03841c-0.7491,3.8123 0.25885,7.55222 0.39339,11.24099c0.13454,3.68877 -0.26519,7.52153 0.75299,11.08677c0.28799,1.06855 0.0417,2.28109 -0.01968,3.32918c-1.58236,0.08262 -2.56907,-1.02685 -3.78162,-1.27314c-0.44376,-7.38777 -1.08267,-14.43641 -1.54689,-21.47482c-0.59799,-7.74736 -1.03152,-15.30982 -1.45483,-23.04695c-0.45399,-7.21309 -1.08267,-14.43641 -1.71134,-21.65973c-0.70106,-8.98036 -1.58703,-17.79628 -2.29832,-26.60196c-0.48468,-6.68905 -0.96936,-13.37809 -1.62873,-20.07737c-0.79391,-10.38805 -0.87885,-20.90986 -2.02212,-31.31836c-0.09284,-1.40768 -0.53505,-2.83582 0.08106,-4.37727c1.57213,0.09207 3.11358,0.70818 4.66525,1.14961c0.85295,0.40051 2.44554,0.14321 3.79185,1.09846z" fill="#87d7dc"/><path d="M1272.76998,662.22511c3.68877,-0.13454 7.16194,0.41941 10.86094,0.11019c4.23327,-0.45322 8.47678,-1.08111 12.78166,-2.7571c-0.59332,10.13153 -1.1764,20.08837 -1.74926,29.87054c-2.03402,1.80897 -4.3458,2.37471 -6.49313,3.12536c-4.10974,1.33685 -8.14788,1.45093 -12.36069,1.55479c-0.17468,-0.01023 -0.51381,-0.20537 -0.67827,-0.39028c1.63351,-0.95602 1.1913,-2.38416 0.92378,-3.80208c-0.66882,-3.54478 -1.16295,-7.07933 -0.78368,-10.56273c0.04092,-0.69873 0.08184,-1.39745 -0.05193,-2.10641c-0.85373,-3.38033 -0.47445,-6.86373 -0.80413,-10.21337c-0.23684,-1.94196 -0.50436,-3.35987 -1.6453,-4.82893z" fill="#61afb4"/><path d="M1258.74954,485.59763c6.05248,1.40613 12.17656,1.58948 18.25972,2.47156c2.78467,0.33836 5.60004,0.15267 8.4154,-0.03302c5.2609,-0.04247 10.65557,0.62401 15.9574,-0.11719c2.11664,-0.22661 4.23327,-0.45322 6.18546,-0.86473c1.24323,-0.27776 2.47623,-0.38083 3.699,-0.30922c0.14399,0.53427 0.29821,0.89387 0.27776,1.24323c-0.08184,1.39745 -0.16367,2.7949 -0.24551,4.19236c-0.9041,0.4729 -1.62328,0.78134 -2.51715,1.07956c-6.41129,1.72791 -12.99726,3.4456 -19.80984,3.04664c-5.9494,-0.17313 -12.07348,-0.35648 -17.98197,-1.22833c-4.69594,-0.62556 -9.40211,-1.07644 -13.84154,-3.08923c0.89387,-0.29821 1.91127,0.28721 2.67137,-0.71996c0.46189,-1.90104 1.11892,-4.14121 -1.0701,-5.67165z" fill="#61aeb3"/><path d="M1262.25652,497.5468c2.99005,-0.17546 5.72357,1.0363 8.68293,1.38489c6.27831,0.54295 12.55661,1.08589 18.8656,1.1048c5.08622,-0.0527 10.03868,-0.81436 14.83692,-1.93562c1.24323,-0.27776 2.48646,-0.55551 3.72969,-0.83327c-0.14321,2.44554 -0.26597,4.54172 -0.39895,6.81258c-2.21893,1.97342 -4.8903,2.69339 -7.7159,3.05376c-3.35987,0.50436 -6.89442,0.9985 -10.39828,0.96859c-7.90159,0.23839 -15.56711,-0.56107 -23.41755,-1.19609c-1.39745,-0.08184 -2.7949,-0.16367 -3.96653,-1.10869c0.05115,-0.87341 0.27698,-1.73659 -0.03147,-2.45577c-0.59643,-1.78773 -0.29899,-3.87368 -0.18647,-5.79518z" fill="#61aeb3"/><path d="M1272.76998,662.22511c0.97648,1.28415 1.41869,2.71229 1.49107,4.46933c0.32968,3.34964 -0.04959,6.83304 0.80413,10.21337c0.13376,0.70896 0.09284,1.40768 0.05193,2.10641c-0.21482,3.66831 0.28954,7.02818 0.78368,10.56273c0.27776,1.24323 0.70973,2.84605 -0.92378,3.80208c-2.63045,0.02124 -5.05553,-0.47134 -7.27525,-1.47773c-0.38083,-2.47623 -0.93634,-4.96269 -0.44376,-7.38777c0.02046,-0.34936 -0.12353,-0.88364 -0.10307,-1.233c-0.31945,-3.52432 -0.62868,-7.22332 -0.77345,-10.73741c-0.08262,-1.58236 -0.00078,-2.97982 -0.25807,-4.57241c-0.41152,-1.95219 -0.46345,-4.05859 0.52249,-5.92894c0.88364,-0.12353 1.58236,-0.08262 2.29132,-0.21638c1.22277,0.07161 2.60999,0.32813 3.83276,0.39973z" fill="#87d7dc"/><path d="M1268.26285,400.96838c1.95296,2.5683 2.6627,5.41435 3.19775,8.25017c0.13376,0.70896 0.07239,1.75704 -0.14321,2.44554c-1.69411,4.98393 -2.6895,10.00877 -3.5102,15.04385c-0.01023,0.17468 -0.20537,0.51381 -0.39028,0.67827c-0.72941,0.48313 -1.60282,0.43198 -2.44554,-0.14321c0.02046,-0.34936 -0.13376,-0.70896 -0.1133,-1.05832c0.42019,-4.18213 0.31634,-8.39494 -0.67115,-12.48422c-0.40129,-2.12687 -0.28876,-4.04836 0.7074,-6.09339c1.18107,-2.20948 1.8381,-4.44965 3.36854,-6.63868z" fill="#cce5e6"/><path d="M1256.23729,426.73151c-1.07878,0.46267 -1.76727,0.24707 -2.26063,-0.30767c0.14166,-8.40517 0.14166,-8.40517 -2.2236,-15.90547c0.52327,-2.94913 1.91994,-5.84711 2.95702,-8.59086c1.24323,-0.27776 1.35653,0.78056 1.67521,1.32507c1.11024,1.9931 2.23072,3.81153 2.98137,5.95885c0.44221,1.42814 0.54528,2.66114 0.11408,4.03813c-1.30383,4.30566 -2.44321,8.79623 -3.24345,13.48194z" fill="#cce5e6"/><path d="M1268.76253,661.81515c-0.70896,0.13376 -1.40768,0.09284 -2.29132,0.21638c-0.98593,1.87035 -0.93401,3.97676 -0.52249,5.92894c0.2573,1.59259 0.17546,2.99005 0.25807,4.57241c0.14477,3.51409 0.45399,7.21309 0.77345,10.73741c-0.02046,0.34936 0.12353,0.88364 0.10307,1.233c-0.32813,2.60999 0.23762,4.92177 0.44376,7.38777c-1.37699,-0.4312 -2.5793,-0.85217 -3.91538,-1.9821c-0.23762,-4.92177 -0.81436,-10.03868 -0.86707,-15.12491c-0.23762,-4.92177 -1.17396,-9.88446 -0.86707,-15.12491c2.78467,0.33836 4.83993,1.15984 6.88496,2.156z" fill="#60adb2"/><path d="M1298.19621,446.54147c0.70896,-0.13376 1.24323,-0.27776 1.95219,-0.41152c0.3289,0.36982 0.49336,0.55473 0.65781,0.73964c0.52482,3.0105 1.58392,5.87702 2.8177,8.75376c0.45244,1.25346 0.56574,2.31178 -0.02991,3.50386c-1.01662,2.39439 -1.69411,4.98393 -4.08773,6.94712c-1.96319,-2.39362 -3.02229,-5.26013 -3.90671,-8.11641c-0.14399,-0.53427 0.08184,-1.39745 0.29744,-2.08595c0.70818,-3.11358 1.41636,-6.22716 2.29921,-9.33051z" fill="#cce5e6"/><path d="M1303.22985,402.49026c0.59643,1.78773 1.0591,2.86651 1.51153,4.11997c0.74042,2.32201 0.79235,4.42842 -0.39895,6.81258c-1.81764,4.10029 -3.12147,8.40595 -3.37721,12.77299c-0.08184,1.39745 -0.26675,1.5619 -2.3527,1.26447c0.03069,-0.52404 -0.1133,-1.05832 -0.08262,-1.58236c0.43042,-4.35681 0.15189,-8.57985 -0.65069,-12.83359c-0.1133,-1.05832 -0.23684,-1.94196 0.16367,-2.7949c1.5509,-2.53839 2.75243,-5.09723 5.18696,-7.75915z" fill="#cae2e3"/><path d="M1276.83948,428.11329c-0.16445,-0.18491 -0.31867,-0.5445 -0.30844,-0.71919c0.58464,-3.99722 0.11097,-7.88113 -0.54762,-11.60059c-0.49413,-3.53455 -0.29977,-6.8535 1.64141,-10.07015c0.96547,-1.52099 1.25268,-3.43225 2.55729,-4.7581c2.58008,3.83199 3.0333,8.06526 1.58548,11.83665c-1.67365,4.63456 -3.51176,9.08422 -3.63373,14.16021c-0.20537,0.51381 -0.24629,1.21254 -1.29438,1.15116z" fill="#c9e1e2"/><path d="M1290.99191,401.94886c1.58314,2.8972 2.13865,5.38366 2.68393,8.0448c0.12353,0.88364 0.07239,1.75704 -0.3179,2.43531c-1.85856,4.79902 -3.37799,9.79317 -4.54806,14.80779c-0.02046,0.34936 -0.22583,0.86318 -1.08901,0.63735c0.07161,-1.22277 0.15344,-2.62022 0.05037,-3.85322c0.02991,-3.50386 -0.11486,-7.01795 -0.96859,-10.39828c-0.55551,-2.48646 -0.24785,-4.74709 1.09768,-6.77166c0.96547,-1.52099 1.92072,-2.86729 3.09156,-4.90209z" fill="#c9e1e2"/><path d="M1309.30345,445.43912c1.09924,-0.81203 1.97264,-0.76088 2.84605,-0.70973c0.16445,0.18491 0.31867,0.5445 0.48313,0.72941c0.18569,2.81536 1.08033,5.49696 2.51948,7.85989c0.79157,1.4486 0.88442,2.85628 0.2683,4.39773c-0.81125,1.88058 -1.45805,3.94607 -2.60844,5.63151c-1.82943,-1.68466 -3.93662,-4.61255 -4.20414,-6.03046c-0.29821,-0.89387 0.09207,-1.57213 0.3179,-2.43531c-0.00078,-2.97982 0.88208,-6.08316 0.37772,-9.44303z" fill="#cae3e4"/><path d="M1248.88721,453.46957c1.91049,-2.69261 3.29693,-5.41591 4.51893,-8.32411c1.06855,-0.28799 1.76727,-0.24707 2.60999,0.32813c0.68927,3.19542 0.12509,6.84327 0.98905,10.04891c-0.98593,1.87035 -2.44476,2.8366 -3.74937,4.16245c-0.73964,0.65781 -1.31484,1.50053 -2.54784,1.6036c-1.26447,-2.3527 -0.92611,-5.13737 -1.82076,-7.81897z" fill="#c8e0e1"/><path d="M1277.31705,446.89628c1.5619,0.26675 1.69567,0.9757 1.82943,1.68466c0.54528,2.66114 1.10079,5.1476 1.47139,7.79851c0.13376,0.70896 0.09284,1.40768 -0.29744,2.08595c-1.3353,1.84989 -2.84527,3.68955 -4.5197,5.3443c-0.81203,-1.09924 -0.92533,-2.15756 -1.388,-3.23633c-1.388,-3.23633 -1.38878,-6.21615 1.04575,-8.87807c1.12993,-1.33607 1.58159,-3.06243 1.85856,-4.79902z" fill="#cbe4e5"/><path d="M1266.31211,446.25181c0.87341,0.05115 1.39745,0.08184 1.9215,0.11253c0.15422,0.35959 0.49336,0.55473 0.48313,0.72941c0.23684,1.94196 0.29899,3.87368 0.53583,5.81564c0.1133,1.05832 -0.11253,1.9215 -0.68772,2.76422c-1.72558,2.52816 -3.61561,4.8714 -6.02968,7.18396c-1.1307,-1.64374 -1.21332,-3.2261 -1.29593,-4.80847c0.04092,-0.69873 0.08184,-1.39745 0.46189,-1.90104c2.43453,-2.66192 3.68721,-6.09417 4.61099,-9.89625z" fill="#c8e0e1"/><path d="M1262.25652,497.5468c-0.11253,1.9215 -0.40996,4.00745 0.35092,5.98009c0.30844,0.71919 0.08262,1.58236 0.03147,2.45577c-2.97982,0.00078 -5.74403,-0.68694 -8.29265,-2.06315c0.49258,-2.42508 -0.06293,-4.91154 -0.28954,-7.02818c1.27392,-0.8018 2.466,-0.20615 3.53455,-0.49413c1.58236,-0.08262 3.31895,0.19436 4.66525,1.14961z" fill="#85d5d9"/><path d="M1316.00439,411.8271c-1.02685,2.56907 -2.0537,5.13815 -2.9161,7.89214c-0.66726,2.41485 0.56652,5.29159 -2.20715,7.75837c0.34781,-5.93917 -0.56808,-11.25122 -1.48396,-16.56328c0.98593,-1.87035 2.15678,-3.90515 3.99566,-5.37499c0.3289,0.36982 0.49336,0.55473 0.65781,0.73964c0.77111,1.79796 1.36754,3.5857 1.95374,5.54811z" fill="#c6dede"/><path d="M1266.06282,396.63281c-1.39667,2.89798 -2.59821,5.45682 -3.99488,8.3548c-1.33607,-1.12993 -1.77828,-2.55807 -2.59031,-3.6573c-0.8018,-1.27392 -1.96319,-2.39362 -2.39517,-3.99644c0.07161,-1.22277 0.83171,-2.22994 1.41713,-3.24734c0.58542,-1.0174 1.34553,-2.02457 2.28031,-3.02151c2.38416,1.1913 3.65886,3.36932 5.28292,5.56779z" fill="#cae3e3"/><path d="M1245.03721,426.42618c-0.91588,-5.31205 -1.88291,-9.7507 -3.90826,-14.07604c0.83171,-2.22994 1.48874,-4.47011 2.33068,-6.87474c2.18902,1.53044 2.93968,3.67776 4.04992,5.67087c0.15422,0.35959 0.12353,0.88364 0.10307,1.233c-0.77978,4.33635 -1.55957,8.6727 -2.57541,14.04691z" fill="#cae3e4"/><path d="M1287.32971,464.48485c-1.58314,-2.8972 -2.82715,-5.59926 -1.05042,-9.00082c1.1913,-2.38416 1.51943,-4.99416 1.84755,-7.60415c0.06138,-1.04809 0.94501,-1.17162 1.97264,-0.76088c-0.51304,2.77445 0.20693,5.44582 0.92689,8.11719c0.5862,1.96242 0.14477,3.51409 -0.8207,5.03508c-0.78056,1.35653 -1.22199,2.90821 -2.87596,4.21359z" fill="#c8e0e1"/><path d="M1258.74954,485.59763c2.17879,1.70512 1.53199,3.77061 1.23456,5.85656c-0.7601,1.00717 -1.78773,0.59643 -2.67137,0.71996c-2.26063,-0.30767 -4.31589,-1.12915 -6.35069,-2.29999c0.28721,-1.91127 -0.29899,-3.87368 0.67671,-5.56935c0.88364,-0.12353 1.40768,-0.09284 2.10641,-0.05193c1.72636,0.45166 3.45271,0.90332 5.00439,1.34475z" fill="#85d4d9"/><path d="M1270.26129,459.62912c0.89464,2.6816 1.46039,4.99338 2.20081,7.31539c-1.68466,1.82943 -3.53377,3.47395 -5.5371,4.75888c-1.20231,-0.42097 -1.4903,-1.48952 -1.97342,-2.21893c-0.48313,-0.72941 -0.96625,-1.45883 -0.71996,-2.67137c1.52021,-2.01434 3.58492,-4.34736 6.02968,-7.18396z" fill="#c7dfe0"/><path d="M1297.18504,469.79457c-1.32507,1.67521 -2.47545,3.36065 -4.31433,4.83048c-2.00411,-1.69489 -2.75476,-3.84222 -3.84455,-6.18468c1.34553,-2.02457 2.69105,-4.04914 4.04681,-6.24839c1.6036,2.54784 2.69339,4.8903 4.11208,7.60259z" fill="#c8e0e1"/><path d="M1274.77488,391.53402c1.31562,1.47929 2.63123,2.95858 3.39211,4.93122c-1.1913,2.38416 -2.55729,4.7581 -3.9335,7.30671c-0.34936,-0.02046 -0.69873,-0.04092 -0.6885,-0.2156c-0.95602,-1.63351 -1.90182,-3.4417 -2.68316,-5.06499c-0.30844,-0.71919 -0.44221,-1.42814 -0.06216,-1.93173c1.17084,-2.0348 1.81764,-4.10029 3.9752,-5.02562z" fill="#c4dcdd"/><path d="M1301.18404,398.51428c-1.53044,2.18902 -2.88619,4.38828 -4.41663,6.5773c-1.36676,-0.60588 -1.28493,-2.00333 -1.74759,-3.08211c-0.46267,-1.07878 -0.74042,-2.32201 -1.19286,-3.57547c0.99616,-2.04503 2.82481,-3.34019 4.32456,-5.00516c1.84989,1.3353 2.44632,3.12303 3.03252,5.08545z" fill="#c8e0e1"/><path d="M1302.12727,469.20759c1.36599,-2.37393 2.54706,-4.58342 3.92327,-7.13203c1.66498,1.49975 2.42586,3.47239 3.91616,4.96191c-0.84194,2.40462 -2.68082,3.87446 -4.20103,5.8888c-1.68544,-1.15039 -3.03174,-2.10563 -3.6384,-3.71868z" fill="#c6ddde"/><path d="M1320.29737,443.27845c1.57291,3.07188 2.25196,6.44198 4.36937,9.19519c-0.6468,2.06549 -1.10869,3.96653 -2.44398,5.81642c-2.02457,-1.34553 -3.15528,-2.98927 -2.65247,-5.58903c0.70818,-3.11358 0.54295,-6.27831 0.72708,-9.42257z" fill="#b9cfd0"/><path d="M1235.39826,423.40778c-1.0174,-0.58542 -0.44221,-1.42814 -0.57597,-2.1371c-0.2573,-1.59259 -0.33991,-3.17496 -1.32662,-4.28442c-1.28493,-2.00333 -0.99772,-3.9146 -0.5256,-5.99032c0.22583,-0.86318 0.62634,-1.71613 1.04731,-2.91844c2.15833,2.05448 3.80285,3.90359 2.90976,7.18162c-0.65703,2.24017 -0.62556,4.69594 -0.93323,6.95657c-0.03069,0.52404 -0.06138,1.04809 -0.59565,1.19208z" fill="#c0d8d8"/><path d="M1240.60635,457.19137c-0.78134,-1.62328 -1.04887,-3.04119 -0.96703,-4.43865c0.04092,-0.69873 0.09207,-1.57213 0.47212,-2.07572c1.70512,-2.17879 2.89642,-4.56296 4.08773,-6.94712c1.22277,0.07161 1.00717,0.7601 0.97648,1.28415c-0.1023,1.74682 -0.21482,3.66831 0.03225,5.43559c0.21638,2.29132 -0.39973,3.83276 -2.21816,4.95324c-0.9041,0.4729 -1.45883,0.96625 -2.38339,1.78851z" fill="#c1d9d9"/><path d="M1284.49467,467.99972c-1.16061,1.86012 -2.6399,3.17573 -4.13965,4.84071c-1.86012,-1.16061 -2.27164,-3.1128 -3.22766,-4.74631c1.35576,-2.19925 3.36932,-3.65886 5.22866,-5.47806c1.12047,1.81842 1.54222,3.59593 2.13865,5.38366z" fill="#c3dbdc"/><path d="M1285.27935,403.7177c-0.90487,-2.50692 -1.6453,-4.82893 -2.5604,-7.16116c0.79079,-1.53122 1.57136,-2.88775 3.20487,-3.84377c1.4903,1.48952 2.26141,3.28748 3.2072,5.09567c-0.83171,2.22994 -1.99233,4.09006 -3.85167,5.90926z" fill="#c3dadb"/><path d="M1268.47745,475.12463c1.83888,-1.46984 3.49285,-2.77522 5.14682,-4.08061c1.67521,1.32507 2.44632,3.12303 3.21743,4.92099c-1.31484,1.50053 -2.7839,2.64146 -4.59209,3.58725c-0.50359,-0.38005 -1.17162,-0.94501 -1.50053,-1.31484c-0.81203,-1.09924 -1.28493,-2.00333 -2.27164,-3.1128z" fill="#c4dbdc"/><path d="M1236.07097,441.85164c-0.19436,3.31895 -0.34781,5.93917 -0.51148,8.73408c-0.94501,1.17162 -2.04425,1.98365 -3.64707,2.41563c-0.99694,-0.93479 -0.57597,-2.1371 -0.86396,-3.20565c-0.28799,-1.06855 -0.40129,-2.12687 -0.35014,-3.00027c1.84911,-1.64452 3.3284,-2.96013 5.37265,-4.94379z" fill="#c2d9da"/><path d="M1263.24512,387.87905c0.78056,-1.35653 1.71535,-2.35347 2.80436,-2.99082c1.40768,-0.09284 2.04503,0.99616 2.88775,1.57136c0.84272,0.57519 1.88058,0.81125 2.33302,2.06471c-0.45166,1.72636 -1.7665,3.22688 -3.10179,5.07677c-0.82226,-0.92456 -1.64452,-1.84911 -2.47701,-2.59899c-0.81203,-1.09924 -1.62406,-2.19847 -2.44632,-3.12303z" fill="#c5ddde"/><path d="M1289.9019,477.43096c-0.9757,1.69567 -2.40384,2.13787 -3.51331,3.12459c-1.87035,-0.98593 -3.00105,-2.62967 -4.29621,-4.45833c1.30461,-1.32584 2.60922,-2.65169 3.73914,-3.98776c2.02457,1.34553 2.77522,3.49285 4.07038,5.3215z" fill="#c3dbdc"/><path d="M1249.03921,405.97743c-0.66804,-0.56496 -0.99694,-0.93479 -1.32584,-1.30461c-0.64758,-0.91433 -1.28493,-2.00333 -2.09696,-3.10257c1.36599,-2.37393 2.20793,-4.77856 4.24195,-6.58753c1.20231,0.42097 1.67521,1.32507 2.30233,2.58876c-0.85217,2.5793 -1.89948,5.49774 -3.12147,8.40595z" fill="#c7dfe0"/><path d="M1259.34053,466.52665c-1.82865,1.29516 -2.97904,2.98059 -4.95168,3.74148c-1.51076,-1.14016 -1.57291,-3.07188 -2.7343,-4.19158c1.70512,-2.17879 3.53377,-3.47395 5.38288,-5.11847c1.65475,1.67443 1.54222,3.59593 2.3031,5.56857z" fill="#c7dee0"/><path d="M1257.60149,496.22251c-1.06855,0.28799 -2.26063,-0.30767 -3.53455,0.49413c0.21638,2.29132 0.59721,4.76755 0.28954,7.02818c-0.6885,-0.2156 -1.55167,-0.44143 -2.22994,-0.83171c-1.0174,-0.58542 -1.66498,-1.49975 -1.59337,-2.72252c-0.05193,-2.10641 -0.11408,-4.03813 -0.16601,-6.14454c2.27086,0.13298 3.30872,0.36904 7.23433,2.17646z" fill="#61acb1"/><path d="M1312.42581,401.1007c-1.32507,1.67521 -2.45499,3.01128 -3.95474,4.67626c-0.9151,-2.33224 -1.84044,-4.48979 -2.58086,-6.8118c0.95524,-1.3463 1.90026,-2.51793 3.18441,-3.49441c1.65475,1.67443 2.42586,3.47239 3.35119,5.62995z" fill="#c2dada"/><path d="M1241.25471,461.08551c1.32507,-1.67521 2.7839,-2.64146 4.43787,-3.94685c0.55551,2.48646 1.13148,4.62356 1.70745,6.76065c-0.79079,1.53122 -2.04425,1.98365 -3.49285,2.77522c-1.50053,-1.31484 -1.91205,-3.26702 -2.65247,-5.58903z" fill="#c1d9d9"/><path d="M1292.12028,394.65316c-1.46984,-1.83888 -2.43609,-3.29771 -3.57702,-4.76677c0.62634,-1.71613 2.0954,-2.85706 3.56446,-3.99799c1.52099,0.96547 2.85706,2.0954 3.80285,3.90359c-0.6468,2.06549 -2.44476,2.8366 -3.79029,4.86117z" fill="#c6dedf"/><path d="M1302.96132,475.91709c-1.31484,1.50053 -2.79413,2.81614 -4.09873,4.14199c-1.5619,-0.26675 -2.56907,-1.02685 -3.54556,-2.311c0.83171,-2.22994 2.82481,-3.34019 4.16011,-5.19008c1.53122,0.79079 2.33302,2.06471 3.48418,3.35909z" fill="#c0d7d7"/><path d="M1241.188,402.3626c-0.81125,1.88058 -1.10869,3.96653 -2.78312,5.62128c-0.97648,-1.28415 -1.96319,-2.39362 -2.9499,-3.50308c0.12276,-2.09618 1.09846,-3.79185 2.57775,-5.10746c1.36676,0.60588 2.18902,1.53044 3.15528,2.98927z" fill="#c3dadb"/><path d="M1253.91984,484.26311c-0.69873,-0.04092 -1.40768,0.09284 -2.10641,0.05193c-0.9757,1.69567 -0.3895,3.65808 -0.67671,5.56935c-1.233,0.10307 -1.87035,-0.98593 -3.08289,-1.23222c-0.56574,-2.31178 0.08106,-4.37727 -1.00873,-6.71973c1.75704,-0.07239 2.77445,0.51304 3.96653,1.10869c0.85295,0.40051 2.09618,0.12276 2.90821,1.22199z" fill="#5aa0a4"/><path d="M1330.31949,457.71252c-0.81125,1.88058 -1.10869,3.96653 -2.59821,5.45682c-1.20231,-0.42097 -1.86012,-1.16061 -2.84683,-2.27008c0.46189,-1.90104 1.27314,-3.78162 2.4133,-5.29237c1.20231,0.42097 1.87035,0.98593 3.03174,2.10563z" fill="#bdd3d4"/><path d="M1275.44581,481.84281c1.28415,-0.97648 2.39362,-1.96319 3.50308,-2.9499c1.52099,0.96547 2.49747,2.24962 3.46372,3.70845c-0.60588,1.36676 -1.84911,1.64452 -3.07188,1.57291c-1.57213,-0.09207 -3.14427,-0.18413 -3.89492,-2.33146z" fill="#bdd4d5"/><path d="M1324.20419,412.48257c-0.99616,2.04503 -1.9821,3.91538 -2.97826,5.96041c-1.53199,-3.77061 -2.21104,-7.1407 1.4565,-9.9057c0.99694,0.93479 1.08979,2.34247 1.52176,3.94529z" fill="#bbd2d3"/><path d="M1259.43571,476.87378c-1.35653,-0.78056 -1.99388,-1.86957 -2.63123,-2.95858c0.07161,-1.22277 0.96547,-1.52099 1.70512,-2.17879c0.55473,-0.49336 1.1197,-1.16139 2.17802,-1.2747c1.35653,0.78056 1.25424,2.52738 2.60054,3.48262c-1.14016,1.51076 -2.41407,2.31256 -3.85244,2.92945z" fill="#c3dadb"/><path d="M1280.89807,427.64984c0.5335,-3.12381 1.06699,-6.24762 2.29921,-9.33051c1.03786,0.23606 1.16139,1.1197 1.11024,1.9931c0.0417,2.28109 -0.09129,4.55195 -0.21404,6.64813c-0.09207,1.57213 -1.16061,1.86012 -3.19542,0.68927z" fill="#b1c6c7"/><path d="M1312.8977,476.84954c0.4312,-1.37699 1.50998,-1.83966 2.25985,-2.67215c1.32507,-1.67521 2.90743,-1.75782 4.95246,-0.76166c-1.1913,2.38416 -3.37955,3.83354 -5.2082,5.1287c-1.21254,-0.24629 -1.71613,-0.62634 -2.00411,-1.69489z" fill="#bbd2d3"/><path d="M1304.40769,427.27379c-0.50436,-3.35987 0.89231,-6.25785 2.12453,-9.34074c0.90487,2.50692 0.75143,5.12714 0.7829,7.58291c0.08262,1.58236 -0.46189,1.90104 -2.90743,1.75782z" fill="#bad1d2"/><path d="M1329.40205,446.44084c1.14093,1.46906 2.30233,2.58876 3.44326,4.05782c-0.22583,0.86318 -0.82148,2.05526 -1.24245,3.25757c-3.09312,-1.05754 -3.08289,-1.23222 -2.77522,-3.49285c0.07161,-1.22277 0.3179,-2.43531 0.57441,-3.82253z" fill="#b5cbcc"/><path d="M1285.04729,380.74235c1.71613,0.62634 2.71307,1.56113 3.71001,2.49591c-0.61611,1.54144 -2.05448,2.15833 -3.33863,3.13482c-1.17162,-0.94501 -2.16856,-1.8798 -3.34019,-2.82481c0.26675,-1.5619 1.85934,-1.8192 2.96881,-2.80591z" fill="#c0d7d8"/><path d="M1317.93834,459.61667c1.02763,0.41074 1.67521,1.32507 2.31256,2.41407c-0.65703,2.24017 -1.99233,4.09006 -3.65653,5.57013c-1.233,0.10307 -1.55167,-0.44143 -1.84989,-1.3353c1.00639,-2.21971 2.01279,-4.43942 3.19386,-6.64891z" fill="#bdd4d4"/><path d="M1314.69589,398.25387c-0.95602,-1.63351 -1.72713,-3.43147 -2.68316,-5.06499c0.74987,-0.83249 1.64374,-1.1307 2.69183,-1.06933c1.02763,0.41074 1.32584,1.30461 1.79874,2.2087c0.30844,0.71919 0.61689,1.43837 0.92533,2.15756c-0.58542,1.0174 -1.32507,1.67521 -2.73275,1.76805z" fill="#b6cccc"/><path d="M1280.48823,392.745c-1.14093,-1.46906 -2.11742,-2.75321 -3.43303,-4.2325c0.23606,-1.03786 0.82148,-2.05526 2.4243,-2.48724c1.17162,0.94501 2.33302,2.06471 3.66909,3.19464c-0.78056,1.35653 -1.37621,2.54862 -2.66036,3.5251z" fill="#c1d9d9"/><path d="M1321.36604,404.07818c-0.78056,1.35653 -1.54067,2.3637 -2.81459,3.1655c-1.14093,-1.46906 -1.388,-3.23633 -1.83021,-4.66447c0.4312,-1.37699 1.49975,-1.66498 2.40384,-2.13787c0.51381,0.20537 0.86318,0.22583 0.85295,0.40051c0.46267,1.07878 0.92533,2.15756 1.388,3.23633z" fill="#b7cdce"/><path d="M1329.74441,419.64296c-1.28493,-2.00333 -1.19286,-3.57547 -1.45016,-5.16806c-0.42175,-1.7775 0.66726,-2.41485 1.94118,-3.21665c1.14093,1.46906 1.39823,3.06165 2.01512,4.50002c-0.45166,1.72636 -2.22916,2.1481 -2.50614,3.88469z" fill="#b6cccc"/><path d="M1323.45887,470.10624c-1.58236,0.08262 -2.63045,0.02124 -3.80208,-0.92378c1.14016,-1.51076 2.10563,-3.03174 3.06087,-4.37805c1.60282,-0.43198 2.24017,0.65703 3.27803,0.89309c-0.02046,0.34936 0.13376,0.70896 -0.05115,0.87341c-0.95524,1.3463 -1.71535,2.35347 -2.48568,3.53533z" fill="#c2dada"/><path d="M1275.77972,383.35468c-0.59565,1.19208 -1.15039,1.68544 -2.04425,1.98365c-1.05832,0.1133 -1.71613,-0.62634 -2.55885,-1.20153c-0.66804,-0.56496 -1.88058,-0.81125 -1.98365,-2.04425c0.93479,-0.99694 2.03402,-1.80897 3.62662,-2.06627c1.16139,1.1197 1.97342,2.21893 2.96013,3.3284z" fill="#bbd2d3"/><path d="M1245.27472,470.26023c1.27392,-0.8018 2.18824,-1.44938 3.27725,-2.08673c1.15116,1.29438 1.76805,2.73275 2.55962,4.18135c-0.7601,1.00717 -1.67443,1.65475 -2.8972,1.58314c-0.33913,-0.19514 -0.67827,-0.39028 -0.83249,-0.74987c-0.65781,-0.73964 -1.30539,-1.65397 -2.10719,-2.92789z" fill="#bbd2d3"/><path d="M1334.12868,446.54236c-1.98365,-2.04425 -1.98365,-2.04425 -2.68316,-5.06499c0.95524,-1.3463 2.36293,-1.43915 3.96575,-1.87113c0.38083,2.47623 -0.62556,4.69594 -1.28259,6.93611z" fill="#adc2c3"/><path d="M1262.26208,479.49323c0.7601,-1.00717 1.84911,-1.64452 3.08211,-1.74759c1.15116,1.29438 2.13787,2.40384 3.11436,3.68799c-3.07188,1.57291 -3.24656,1.56268 -6.19647,-1.9404z" fill="#b5cbcc"/><path d="M1306.99812,392.01882c-0.94501,1.17162 -1.69489,2.00411 -2.96881,2.80591c-1.3463,-0.95524 -1.77828,-2.55807 -2.74453,-4.0169c0.38005,-0.50359 0.74987,-0.83249 1.1197,-1.16139c0.36982,-0.3289 0.9041,-0.4729 1.4486,-0.79157c1.54144,0.61611 2.35347,1.71535 3.14505,3.16395z" fill="#bbd1d2"/><path d="M1235.27462,461.43643c-1.67521,-1.32507 -1.72713,-3.43147 -2.5187,-4.88007c0.77033,-1.18185 2.00333,-1.28493 3.09234,-1.92227c1.11024,1.9931 1.35731,3.76038 0.72074,5.65119c-0.03069,0.52404 -0.74987,0.83249 -1.29438,1.15116z" fill="#b6cccd"/><path d="M1247.2169,392.19883c-1.35576,2.19925 -2.87596,4.21359 -4.22149,6.23816c-1.21254,-0.24629 -1.88058,-0.81125 -2.5077,-2.07494c1.85934,-1.8192 3.71868,-3.6384 6.07138,-4.90287c0.3289,0.36982 0.49336,0.55473 0.65781,0.73964z" fill="#acc1c2"/><path d="M1294.86003,419.70345c0.39106,2.30155 0.60744,4.59287 0.12509,6.84327c-0.22583,0.86318 -0.79079,1.53122 -1.6642,1.48007c-0.34936,-0.02046 -1.02763,-0.41074 -1.0174,-0.58542c-0.02124,-2.63045 1.35498,-5.17907 2.55651,-7.73791z" fill="#a7bbbb"/><path d="M1301.59167,385.56739c-0.41074,1.02763 -1.31484,1.50053 -2.39362,1.96319c-1.16139,-1.1197 -2.32279,-2.23939 -3.48418,-3.35909c0.78056,-1.35653 1.83888,-1.46984 3.06165,-1.39823c1.0174,0.58542 2.00411,1.69489 2.81614,2.79413z" fill="#b7cdcd"/><path d="M1288.64999,483.84303c0.9757,-1.69567 2.24962,-2.49747 3.69822,-3.28904c1.36676,0.60588 2.37393,1.36599 2.98059,2.97904c-2.15756,0.92533 -4.2435,0.6279 -6.67882,0.31z" fill="#b7cece"/><path d="M1226.41312,445.14223c-1.10002,-2.16779 -0.2683,-4.39773 -1.03942,-6.19569c0.7601,-1.00717 1.4486,-0.79157 1.76727,-0.24707c0.79157,1.4486 1.39823,3.06165 1.29593,4.80847c-0.20537,0.51381 -0.2156,0.6885 -2.02379,1.63429z" fill="#b4cacb"/><path d="M1254.13255,393.83079c-1.0174,-0.58542 -1.51076,-1.14016 -1.80897,-2.03402c1.32507,-1.67521 2.66036,-3.5251 5.18774,-4.77934c0.00078,2.97982 -1.67365,4.63456 -3.37877,6.81336z" fill="#b2c8c9"/><path d="M1253.02364,475.62188c1.17162,0.94501 2.00411,1.69489 2.2921,2.76344c-0.2156,0.6885 -0.74987,0.83249 -1.28415,0.97648c-2.1371,0.57597 -2.9389,-0.69795 -3.71001,-2.49591c0.89387,-0.29821 1.79796,-0.77111 2.70206,-1.24401z" fill="#b5cbcb"/><path d="M1316.21365,426.21236c-0.0417,-2.28109 0.07083,-4.20259 0.71763,-6.26808c0.88364,-0.12353 1.20231,0.42097 1.17162,0.94501c0.10307,1.233 0.38083,2.47623 0.4839,3.70923c-0.08184,1.39745 -0.80102,1.7059 -2.37316,1.61383z" fill="#91a3a3"/><path d="M1250.03927,418.83148c1.10002,2.16779 0.79235,4.42842 0.66959,6.52459c-0.02046,0.34936 -0.39028,0.67827 -0.74987,0.83249c-0.34936,-0.02046 -0.85295,-0.40051 -0.84272,-0.57519c-0.38083,-2.47623 0.10152,-4.72663 0.923,-6.78189z" fill="#99abac"/><path d="M1241.30675,424.27963c-1.26369,0.62712 -2.1371,0.57597 -2.43531,-0.3179c-0.27776,-1.24323 0.1739,-2.96959 1.00561,-5.19953c1.12047,1.81842 1.00795,3.73992 1.4297,5.51742z" fill="#93a5a6"/><path d="M1305.71686,482.73912c1.50998,-1.83966 2.8555,-3.86423 5.91793,-2.28265c-1.52021,2.01434 -3.79107,1.88136 -5.91793,2.28265z" fill="#9aadad"/><path d="M1305.13311,450.80387c-0.44221,-1.42814 -0.87419,-3.03096 -1.32662,-4.28442c0.57519,-0.84272 1.10947,-0.98671 2.14733,-0.75065c0.78134,1.62328 -0.01968,3.32918 0.06293,4.91154c-0.34936,-0.02046 -0.52404,-0.03069 -0.88364,0.12353z" fill="#c5dddd"/><path d="M1272.1829,420.82937c1.43915,2.36293 1.30616,4.63379 0.47445,6.86373c-0.01023,0.17468 -0.36982,0.3289 -0.71919,0.30844c-0.53427,0.14399 -0.85295,-0.40051 -0.83249,-0.74987c-0.06216,-1.93173 0.58464,-3.99722 1.07722,-6.4223z" fill="#aec2c3"/><path d="M1238.12145,463.70651c1.14093,1.46906 1.56268,3.24656 1.99466,4.84939c-0.57519,0.84272 -1.26369,0.62712 -1.57213,-0.09207c-0.62712,-1.26369 -1.26447,-2.3527 -1.70667,-3.78084c-0.3289,-0.36982 0.22583,-0.86318 1.28415,-0.97648z" fill="#9caeaf"/><path d="M1292.54837,381.3569c-1.54144,-0.61611 -2.54862,-1.37621 -3.71001,-2.49591c2.31178,-0.56574 4.20259,0.07083 6.29876,0.19358c-0.20537,0.51381 -0.22583,0.86318 -0.41074,1.02763c-0.72941,0.48313 -1.4486,0.79157 -2.17802,1.2747z" fill="#a9bebf"/><path d="M1260.02358,445.88355c1.24323,-0.27776 1.93173,-0.06216 2.59976,0.50281c0.07239,1.75704 -0.54373,3.29849 -2.39284,4.94301c-0.22661,-2.11664 -0.13454,-3.68877 -0.20693,-5.44582z" fill="#b9cfd0"/><path d="M1315.12931,444.7286c0.57519,-0.84272 1.28415,-0.97648 1.9931,-1.11024c0.85295,0.40051 0.8018,1.27392 0.03225,5.43559c-2.0348,-1.17084 -1.39823,-3.06165 -2.02535,-4.32534z" fill="#869797"/><path d="M1261.68155,420.56495c-0.68772,2.76422 0.7412,5.30182 -1.8271,7.25479c-0.54528,-2.66114 -0.24785,-4.74709 1.8271,-7.25479z" fill="#93a4a5"/><path d="M1325.79834,418.18491c-0.15344,2.62022 -0.25574,4.36704 -0.35804,6.11385c-0.02046,0.34936 -0.39028,0.67827 -0.91433,0.64758c-0.17468,-0.01023 -0.51381,-0.20537 -0.67827,-0.39028c-0.22661,-2.11664 -0.11408,-4.03813 1.95063,-6.37115z" fill="#94a5a6"/><path d="M1323.66747,442.5994c1.08901,-0.63735 1.62328,-0.78134 2.45577,-0.03147c0.09284,1.40768 0.17546,2.99005 -0.45088,4.70617c-1.67521,-1.32507 -1.57291,-3.07188 -2.00489,-4.6747z" fill="#abbfc0"/><path d="M1328.82697,408.37128c-0.89387,0.29821 -1.25346,0.45244 -1.60282,0.43198c-1.77828,-2.55807 -1.77828,-2.55807 -1.11102,-4.97292c1.68544,1.15039 1.58314,2.8972 2.71385,4.54094z" fill="#acc0c1"/><path d="M1308.47874,474.4874c1.12993,-1.33607 2.0954,-2.85706 3.40001,-4.18291c0.55473,-0.49336 1.25346,-0.45244 1.71613,0.62634c-1.32507,1.67521 -2.6399,3.17573 -5.11613,3.55656z" fill="#9fb2b2"/><path d="M1309.75133,389.9014c-0.83249,-0.74987 -1.32584,-1.30461 -1.62406,-2.19847c0.39028,-0.67827 0.93479,-0.99694 1.81842,-1.12047c1.03786,0.23606 1.68544,1.15039 2.33302,2.06471c-0.41074,1.02763 -1.46906,1.14093 -2.52738,1.25424z" fill="#aec2c3"/><path d="M1283.9148,450.96354c-1.3463,-0.95524 -1.2747,-2.17802 -1.37777,-3.41102c0.03069,-0.52404 0.57519,-0.84272 1.09924,-0.81203c0.34936,0.02046 0.85295,0.40051 0.83249,0.74987c0.46267,1.07878 0.05193,2.10641 -0.55396,3.47317z" fill="#91a2a3"/><path d="M1280.79278,378.56511c-2.0954,2.85706 -2.28031,3.02151 -4.40796,0.44299c1.41791,-0.26753 2.69183,-1.06933 4.40796,-0.44299z" fill="#869696"/><path d="M1231.53481,423.53209c-1.4903,-1.48952 -0.90487,-2.50692 -0.65859,-3.71946c1.52099,0.96547 1.52099,0.96547 0.65859,3.71946z" fill="#555f5f"/><path d="M1294.84658,446.87115c-0.05115,0.87341 -0.12276,2.09618 -0.71841,3.28826c-1.48007,-1.6642 -1.43915,-2.36293 -0.66882,-3.54478c0.19514,-0.33913 0.71919,-0.30844 1.38722,0.25652z" fill="#93a5a6"/><path d="M1333.05313,420.012c1.62406,2.19847 1.42892,2.53761 -1.39667,2.89798c-0.27776,-1.24323 0.47212,-2.07572 1.39667,-2.89798z" fill="#8b9b9c"/><path d="M1228.22454,417.20342c0.42175,1.7775 0.16523,3.16473 -0.09129,4.55195c-1.07878,0.46267 -1.58236,0.08262 -1.54144,-0.61611c0.08184,-1.39745 0.33836,-2.78467 1.63273,-3.93584z" fill="#9aacad"/><path d="M1323.10106,398.39553c0.99694,0.93479 2.01434,1.52021 1.75782,2.90743c-0.01023,0.17468 -0.19514,0.33913 -0.36982,0.3289c-1.55167,-0.44143 -1.83966,-1.50998 -1.388,-3.23633z" fill="#5f6a6b"/><path d="M1272.29298,448.88071c-0.48313,-0.72941 -0.44221,-1.42814 -0.22661,-2.11664c0.19514,-0.33913 0.56496,-0.66804 0.9041,-0.4729c0.33913,0.19514 0.66804,0.56496 0.64758,0.91433c-0.04092,0.69873 -0.25652,1.38722 -1.32507,1.67521z" fill="#636e6f"/><path d="M1303.83106,383.2446c1.25346,-0.45244 2.11664,-0.22661 2.73353,1.21176c-1.43837,0.61689 -2.10641,0.05193 -2.73353,-1.21176z" fill="#4a5354"/></g></g></svg>