<svg version="1.1" xmlns="http://www.w3.org/2000/svg" xmlns:xlink="http://www.w3.org/1999/xlink" width="111.33529" height="162.82683" viewBox="0,0,111.33529,162.82683"><g transform="translate(-1252,-419.93017)"><g data-paper-data="{&quot;isPaintingLayer&quot;:true}" fill-rule="nonzero" stroke="none" stroke-width="1" stroke-linecap="butt" stroke-linejoin="miter" stroke-miterlimit="10" stroke-dasharray="" stroke-dashoffset="0" style="mix-blend-mode: normal"><path d="M1363.33529,554.87944c0,3.8492 -1.22475,16.91317 -17.12701,23.60067c-3.73256,1.59411 -7.83449,2.41061 -12.18914,2.41061c-4.43242,0 -9.137,-0.8165 -14.34703,-2.50781c-4.04361,-1.30251 -9.89517,-2.9355 -17.43806,-4.87955c-9.25364,6.47366 -16.32995,9.25364 -23.36739,9.25364c-7.36792,0 -14.36647,-2.95494 -19.73203,-8.30106c-4.02417,-4.00473 -6.27926,-9.44804 -6.27926,-15.12465v-3.77144c0,-2.37173 0.40825,-5.52108 1.94404,-8.92315c0.79706,-6.94023 2.46893,-13.78326 4.97675,-20.393c0.68041,-1.90516 1.96348,-5.09339 5.54052,-12.73348c3.59648,-7.52344 9.00091,-15.37737 16.48548,-23.8534c-1.32195,0.17496 -2.5467,0.25273 -3.63536,0.25273c-13.00564,0 -26.16681,-9.52581 -26.16681,-27.72204c0,-6.16261 2.17733,-12.38355 7.75673,-22.20096c1.65244,-2.89662 3.94641,-5.36556 6.72639,-7.2124c0.36937,-0.25273 0.83594,-0.56377 1.36083,-0.93314c1.41915,-1.18587 3.07159,-2.33285 5.11283,-3.59648c1.34139,-0.8165 2.76054,-1.49691 4.23801,-2.00236c3.47984,-1.20531 7.09575,-2.39117 10.78943,-3.53816c5.30723,-1.65244 10.1479,-2.5467 14.77472,-2.7411h0.23329c10.47839,-0.31105 20.43188,1.59411 29.70496,5.69604c8.67043,3.71312 15.6301,10.12846 20.70405,19.09049c4.7629,8.43714 6.94023,16.93261 6.4931,25.27255c-0.01944,0.23329 -0.03888,0.46657 -0.05832,0.7193c-0.68041,7.71785 -3.30487,14.83304 -7.83449,21.15118c-0.21384,0.31105 -0.46657,0.62209 -0.69986,0.93314c-1.41915,1.78852 -3.90752,4.58794 -10.47839,10.51727c-3.8492,4.02417 -9.2342,9.46748 -16.38827,16.56324c-0.69986,1.0109 -1.45803,2.0218 -2.29397,3.01327c2.6439,0.69986 5.34612,1.59411 8.16498,2.62446l3.11047,1.12754c0.52489,-0.01944 1.03034,-0.01944 1.53579,-0.01944c11.0616,0 17.76854,4.82122 21.46222,8.88427c0.0972,0.0972 0.17496,0.1944 0.27217,0.29161c4.04361,4.62682 6.27926,10.69223 6.62918,18.02127c0.01944,0.33049 0.01944,0.68041 0.01944,1.03034z" fill="#00cccc"/><path d="M1341.9586,554.8736c0,1.47942 -1.36861,2.79164 -4.10387,3.93085c-2.62446,1.13921 -6.49893,0.8826 -11.62732,-0.76984c-5.13033,-1.65438 -12.65377,-3.73645 -22.57033,-6.24232c-4.67542,-0.57155 -8.72097,0.45491 -12.14054,3.07936c-5.92933,4.33133 -10.14984,6.49699 -12.65571,6.49699c-1.70881,0 -3.24849,-0.6843 -4.6171,-2.04902v-3.75783c0,-0.1147 0.14192,-0.34215 0.42963,-0.68236c0.28383,-0.3441 0.45296,-0.71346 0.51323,-1.1081c0.05443,-0.40047 0.25661,-1.05561 0.59876,-1.96348c0.45296,-6.26176 1.82351,-12.3505 4.10387,-18.27011c0.5696,-1.70492 2.16372,-5.34612 4.78818,-10.92552c3.41957,-7.16963 9.63078,-15.42209 18.63948,-24.75738c2.62057,-2.50198 6.38229,-6.25982 11.28516,-11.26961c2.16372,-2.04708 4.33327,-4.03972 6.49893,-5.97404c3.07742,-2.95689 4.67153,-5.28974 4.78818,-7.0005c0.22551,-0.34215 0.51323,-0.91176 0.85343,-1.70687c0.11275,-1.25196 0.05638,-2.95689 -0.17108,-5.12255c-0.1147,-0.22745 -0.25661,-0.74068 -0.42769,-1.53579c-0.17108,-0.79706 -0.37131,-2.04902 -0.59876,-3.75783c-3.42151,-6.82942 -9.97682,-10.2451 -19.66399,-10.2451c-6.49893,0 -11.45818,1.63883 -14.87775,4.91065c-0.34215,0.11275 -0.79706,0.28383 -1.36666,0.50739c-1.94015,1.24224 -3.13574,2.42811 -3.59259,3.55565c-2.39312,5.53274 -5.01757,8.29717 -7.86559,8.29717c-3.19406,0 -4.78818,-2.10734 -4.78818,-6.32591c0,-1.93821 1.65244,-5.81463 4.95925,-11.62732c0.6843,-0.45491 1.59411,-1.08283 2.73527,-1.88183c0.5696,-0.5696 1.59411,-1.31028 3.07936,-2.22398c3.30293,-1.13921 6.69334,-2.24926 10.17317,-3.33403c3.47595,-1.08283 6.58447,-1.6816 9.31974,-1.79629c7.29405,-0.22745 14.13513,1.08478 20.51936,3.93085c4.33133,1.82546 7.86559,5.15949 10.60281,10.00404c2.73527,4.8465 3.98917,9.37611 3.76172,13.59274c-0.34215,3.87642 -1.65438,7.41069 -3.9328,10.60281c-1.36666,1.70881 -4.273,4.56072 -8.71903,8.54795c-3.99306,4.22052 -10.1479,10.43173 -18.4684,18.63948c-0.6843,1.598 -2.22398,3.36319 -4.6171,5.3014c-0.1147,0.45685 -0.40047,1.14115 -0.85343,2.05291c-1.4833,2.62446 -3.59065,5.5308 -6.32786,8.72097c0.11275,1.02451 -0.34215,2.22398 -1.36666,3.59065c-1.25585,1.94015 -1.88183,3.02299 -1.88183,3.25044c-0.9137,2.16566 -2.11123,5.35972 -3.59259,9.57635c-0.34215,1.36861 -0.9137,3.47789 -1.70881,6.32786c2.62057,-0.79706 6.09652,-1.76713 10.42979,-2.90829c2.62251,-0.45296 5.1867,-0.6843 7.69452,-0.6843c5.13227,0 11.05771,1.25585 17.7841,3.76367c1.59411,0.57155 3.98917,1.42498 7.18129,2.56419c1.59411,-0.11275 3.19017,-0.17108 4.78818,-0.17108c2.62057,0 4.50046,0.62598 5.64161,1.88183c0.79317,0.91564 1.25196,2.57002 1.36666,4.96508z" fill="#ffffff"/></g></g></svg>