<svg version="1.1" xmlns="http://www.w3.org/2000/svg" xmlns:xlink="http://www.w3.org/1999/xlink" width="97.85134" height="161.10275" viewBox="0,0,97.85134,161.10275"><g transform="translate(-1256.0001,-419.86725)"><g data-paper-data="{&quot;isPaintingLayer&quot;:true}" fill-rule="nonzero" stroke="none" stroke-width="1" stroke-linecap="butt" stroke-linejoin="miter" stroke-miterlimit="10" stroke-dasharray="" stroke-dashoffset="0" style="mix-blend-mode: normal"><path d="M1353.53787,555.60694c-0.4432,4.29097 -2.13541,8.34019 -4.85504,11.68433c-3.98879,4.91548 -8.64238,8.42078 -13.81974,10.41517c-4.75431,1.83323 -10.05255,2.45774 -16.57966,1.9541c-0.76553,-0.06044 -1.34974,-0.08058 -1.7728,-0.10073c-0.08058,0.02015 -0.16116,0.04029 -0.26189,0.06044c-3.5053,0.92669 -6.42638,1.34974 -9.20645,1.34974c-2.49803,0 -4.71402,-0.42305 -6.62784,-0.98712c-2.78006,0.18131 -5.0162,0.26189 -6.82929,0.26189h-8.48121c-3.84777,-0.16116 -15.33065,-0.60436 -22.38154,-10.35473c-0.94683,-1.24901 -2.69948,-3.70675 -4.04922,-7.09118c-0.58422,-1.18858 -1.108,-2.41745 -1.53105,-3.7269c-1.20872,-3.62617 -1.47061,-7.49409 -0.72523,-11.24113c2.78006,-14.26294 13.578,-21.11238 24.21477,-23.24779c-0.12087,-10.47561 -0.46334,-23.26793 -1.04756,-38.2964c-0.02015,-0.54393 -0.02015,-1.108 0,-1.67207c-3.86792,-1.79294 -7.25234,-4.47228 -9.89139,-7.91714c-3.58588,-4.57301 -5.53998,-10.23386 -5.53998,-16.05588c0,-10.17343 5.58028,-18.89638 16.59981,-25.94727c0.10073,-0.06044 0.18131,-0.12087 0.28204,-0.16116c0.72523,-0.46334 1.24901,-0.82596 1.63178,-1.08785c1.30945,-2.13541 2.98152,-4.04922 4.95577,-5.64071c6.42638,-5.19751 13.94062,-7.93729 21.71674,-7.93729c14.06149,0 25.34291,9.28703 28.12298,23.12692c0.74538,3.76719 0.50363,7.65525 -0.68494,11.28142c-0.2216,2.6189 -0.52378,7.49409 -0.84611,16.4185c-0.02015,1.02742 -0.08058,2.37716 -0.20145,4.69388c-0.08058,1.18858 -0.12087,2.01454 -0.14102,2.47788v18.07042c0.02015,0.60436 0.10073,1.7325 0.20145,3.36428c0.30218,4.37155 0.32233,4.91548 0.32233,5.80187v19.94394c5.64071,2.45774 10.53604,6.76885 14.16221,12.59087c4.41184,7.0106 3.66646,14.12192 3.26355,17.96969z" fill="#00cccc"/><path d="M1331.4988,553.30835c-1.53709,1.88964 -3.07217,3.13059 -4.60725,3.72287c-1.53709,0.59026 -3.83971,0.76754 -6.91189,0.53184c-3.42673,-0.23772 -5.66891,-0.23772 -6.73461,0c-0.11886,0 -0.97302,0.20548 -2.56854,0.62048c-1.5935,0.41298 -2.80827,0.62249 -3.63222,0.62249c-0.23772,0 -0.68091,-0.20951 -1.3296,-0.62249c-0.6507,-0.415 -1.1503,-0.62048 -1.50486,-0.62048c-0.59429,0 -2.15757,0.08864 -4.69589,0.26592c-2.54235,0.17728 -4.51861,0.26592 -5.93685,0.26592c-2.4799,0 -5.02225,0 -7.61899,0c-3.07217,-0.11886 -4.84497,-0.53184 -5.31637,-1.23894c-1.06166,-1.41824 -1.59552,-2.4799 -1.59552,-3.18902c-0.35456,-0.35657 -0.64868,-0.8864 -0.88438,-1.59552c0.94482,-4.84295 5.55207,-6.79101 13.82176,-5.84619c6.02347,0.59227 9.56906,0.53184 10.63073,-0.17929c0.46939,-12.63721 0.17728,-32.84103 -0.88438,-60.60139c0.46939,-5.19751 0.9428,-13.7029 1.41622,-25.51818c-0.82798,-0.11684 -2.01051,0.41701 -3.54358,1.59552c-1.7728,1.53709 -2.89691,2.42349 -3.36831,2.65718c-1.53709,0.59227 -3.07217,0.8864 -4.60725,0.8864c-2.0085,0 -3.48314,-0.64868 -4.42796,-1.95007c-0.59227,-0.71113 -0.8864,-1.53508 -0.8864,-2.4799c0,-2.12735 2.12735,-4.54682 6.38005,-7.26443c4.96181,-3.07016 7.91311,-5.84821 8.85995,-8.33012c2.4799,-2.0085 5.07664,-3.01375 7.79627,-3.01375c3.54358,0 5.66891,1.7728 6.37803,5.31637c-0.23772,0.47342 -0.4714,1.12613 -0.70912,1.95007c-0.47342,3.66243 -0.88438,10.63073 -1.24096,20.91092c0,0.59227 -0.06044,1.88964 -0.17728,3.89813c-0.11886,2.01051 -0.17728,3.13261 -0.17728,3.36831v18.95883c0,0.23772 0.08864,1.68416 0.26592,4.34133c0.17728,2.65718 0.26793,4.10563 0.26793,4.34133v40.4016c3.18902,0.59227 5.37278,0.6507 6.55531,0.17728c1.53508,-0.58825 2.89489,-0.88438 4.07541,-0.88438c2.71761,0 5.02023,1.53709 6.91189,4.60725c0.23369,0.35053 0.23369,1.64991 0,3.89411z" fill="#ffffff"/></g></g></svg>